<svg width="635" height="635" viewBox="0 0 635 635" fill="none" xmlns="http://www.w3.org/2000/svg">
<path d="M344.754 409.487L481.373 463.345L424.395 498.781L288.416 443.9L344.754 409.487Z" fill="#DCDFE3"/>
<path d="M503.013 451.832C503.013 451.832 503.013 453.751 503.013 455.158C503.013 456.693 499.812 460.915 495.459 459.252L496.867 448.762L503.013 451.832Z" fill="#2F353B"/>
<path d="M348.341 397.462L503.014 455.158V158.494C503.014 155.04 500.709 151.97 497.38 151.074L342.963 109.242L348.341 397.462Z" fill="#2F353B"/>
<path d="M341.427 398.358L496.1 457.972V163.1C496.1 159.646 493.795 156.575 490.338 155.68L336.049 114.487L341.427 398.358Z" fill="#FFB230"/>
<path d="M496.228 459.38C496.1 459.38 495.972 459.38 495.716 459.252L341.043 399.638C340.531 399.51 340.275 398.998 340.275 398.486L334.769 114.488C334.769 114.104 334.897 113.72 335.281 113.464C335.537 113.208 336.049 113.08 336.434 113.208L490.85 154.401C494.819 155.424 497.508 159.006 497.508 163.1V457.973C497.508 458.356 497.252 458.74 496.996 458.996C496.74 459.252 496.484 459.38 496.228 459.38ZM342.708 397.463L494.819 456.182V163.1C494.819 160.158 492.899 157.599 490.082 156.96L337.33 116.151L342.708 397.463Z" fill="#2F353B"/>
<path d="M474.717 306.507C478.394 306.507 481.375 303.356 481.375 299.471C481.375 295.585 478.394 292.435 474.717 292.435C471.04 292.435 468.059 295.585 468.059 299.471C468.059 303.356 471.04 306.507 474.717 306.507Z" fill="#2F353B"/>
<path d="M472.923 306.506C476.6 306.506 479.581 303.355 479.581 299.47C479.581 295.584 476.6 292.434 472.923 292.434C469.246 292.434 466.265 295.584 466.265 299.47C466.265 303.355 469.246 306.506 472.923 306.506Z" fill="#959FAA"/>
<path d="M472.406 305.61C473.943 305.482 475.351 304.843 476.376 303.691C477.4 302.54 478.04 301.133 478.168 299.598C478.168 300.365 478.168 301.133 477.912 301.9C477.656 302.668 477.272 303.308 476.76 303.947C476.247 304.459 475.607 304.971 474.839 305.354C474.071 305.61 473.303 305.738 472.406 305.61Z" fill="#DCDFE3"/>
<path d="M397.511 259.685C397.383 256.487 397.126 253.417 396.998 250.218C396.87 247.66 397.126 245.229 398.023 242.799C399.943 237.682 404.681 234.867 410.059 235.635C414.924 236.274 418.893 238.705 422.222 242.159C426.192 246.125 429.008 250.858 430.417 256.359C430.801 257.894 430.929 259.429 431.057 260.964C431.313 263.651 431.441 266.465 431.569 269.152C431.569 270.047 431.953 270.431 432.85 270.687C435.795 271.326 437.843 273.117 439.252 275.676C440.02 277.083 440.532 278.618 440.66 280.153C441.3 291.283 441.941 302.285 442.581 313.415C442.581 314.31 442.453 315.333 442.197 316.229C441.556 318.276 439.636 319.427 437.459 318.915C435.282 318.404 433.106 317.636 430.801 316.997C420.046 313.67 409.29 310.344 398.535 306.89C394.438 305.611 391.877 302.541 391.493 298.447C390.596 286.806 390.084 275.164 389.444 263.523C389.316 261.092 390.724 259.301 392.901 258.918C393.669 258.79 394.566 258.918 395.334 259.173C396.102 259.173 396.742 259.429 397.511 259.685ZM426.064 268.512C425.936 265.442 425.679 262.499 425.551 259.685C425.423 255.591 424.015 252.009 421.454 248.683C419.021 245.485 416.076 243.055 411.979 242.287C408.522 241.519 405.321 243.055 403.657 246.125C402.76 247.916 402.504 249.835 402.632 251.882C402.76 254.824 403.016 257.766 403.144 260.708C403.144 261.348 403.4 261.476 403.913 261.732C409.546 263.395 415.052 265.186 420.686 266.977C422.478 267.489 424.143 268 426.064 268.512ZM413.388 292.69C413.388 293.714 413.516 294.865 413.644 295.889C413.772 297.679 414.668 298.959 416.204 299.854C417.741 300.75 419.277 299.854 419.405 298.063C419.405 297.807 419.405 297.424 419.405 297.168C419.277 295.121 419.149 293.202 419.021 291.155C419.021 290.771 419.021 290.516 419.534 290.132C420.046 289.748 420.558 289.236 420.942 288.725C421.71 287.317 421.71 285.91 421.326 284.375C420.43 281.177 418.637 278.746 415.564 277.595C412.875 276.571 410.443 278.107 410.187 281.049C409.931 283.224 410.443 285.271 411.851 286.934C413.26 288.469 413.388 290.132 413.388 291.923C413.26 292.179 413.388 292.434 413.388 292.69Z" fill="white"/>
<path d="M334.763 115.383C334.763 115.383 334.763 115.639 334.763 114.232C334.763 112.824 335.403 108.347 342.958 109.37L343.982 114.104L343.598 116.79L334.763 115.383Z" fill="#2F353B"/>
<path d="M326.061 484.069C309.544 478.312 293.155 471.916 276.765 465.519C268.571 462.321 260.504 458.995 252.31 455.669L227.982 445.563L203.911 435.328C195.844 431.747 187.778 428.42 179.839 424.711C163.834 417.547 147.829 410.255 132.08 402.451C148.597 408.208 164.986 414.476 181.376 421.001C189.57 424.199 197.637 427.525 205.831 430.851L230.159 440.957L254.358 451.319C262.425 454.901 270.492 458.227 278.43 461.937C294.307 468.973 310.312 476.265 326.061 484.069Z" fill="#2F353B"/>
<path d="M224.788 359.468L218.386 345.396L216.85 335.162L215.185 327.23L207.247 298.831L203.406 285.91L209.168 276.955L224.404 271.966L251.677 297.168C251.677 297.168 245.403 312.135 267.682 320.194L265.889 340.535" fill="#FFDECC"/>
<path d="M224.787 359.468C223.89 358.445 223.25 357.293 222.482 356.27C221.714 355.246 221.073 354.095 220.433 352.944C219.793 351.792 219.153 350.769 218.513 349.618C217.872 348.466 217.232 347.315 216.72 346.164L216.592 345.908V345.652C215.824 340.663 215.184 335.546 214.031 330.684C213.775 329.405 213.647 328.254 213.263 326.975L212.239 323.265L210.19 315.845L206.093 301.133C204.684 296.272 203.276 291.283 201.867 286.422L201.611 285.654L201.995 285.014L207.885 276.187L208.269 275.676L208.782 275.548C213.903 273.885 219.025 272.35 224.018 270.814L224.915 270.559L225.555 271.198L238.999 283.863L252.315 296.528L252.827 297.04L252.571 297.679C251.803 299.854 251.547 302.412 252.059 304.843C252.571 307.274 253.596 309.576 255.26 311.495C256.797 313.414 258.845 315.077 261.022 316.485C263.199 317.892 265.503 318.915 267.936 319.811L268.32 319.939V320.322L267.168 330.557L266.016 340.791L266.656 330.557L267.296 320.322L267.552 320.834C264.991 319.939 262.558 318.915 260.254 317.636C257.949 316.229 255.772 314.694 253.98 312.647C252.187 310.6 250.907 308.041 250.267 305.355C249.754 302.668 249.754 299.854 250.779 297.04L251.035 298.191L237.335 285.91L223.634 273.501L225.043 273.885C220.049 275.676 214.928 277.339 209.934 279.002L210.83 278.362L205.068 287.317L205.324 285.91L209.678 300.622L213.903 315.461L215.952 322.881L216.976 326.591C217.36 327.87 217.488 329.149 217.872 330.429C219.025 335.546 219.537 340.535 220.433 345.652L220.305 345.14C220.817 346.292 221.33 347.571 221.714 348.722C222.226 349.874 222.61 351.153 222.994 352.304C223.378 353.583 223.762 354.735 224.146 356.014C224.274 356.91 224.659 358.189 224.787 359.468Z" fill="#A86E4F"/>
<path d="M233.099 450.168L338.86 490.849C339.244 487.395 332.074 461.426 325.159 443.516C318.373 425.606 317.861 393.241 315.3 381.344C312.74 369.446 301.344 340.279 290.973 331.58C280.601 322.881 266.645 320.45 266.645 320.45C264.34 320.962 256.658 326.463 254.225 329.789C251.792 333.115 230.41 350.385 223.752 343.861C216.325 336.569 219.398 333.115 219.398 333.115C219.398 333.115 216.965 325.056 214.661 324.544C212.228 323.904 207.106 338.232 206.338 341.174C205.57 344.117 203.009 345.396 201.857 347.955C200.832 350.513 193.15 362.282 190.845 367.016C187.004 374.947 168.95 405.01 166.39 420.106C165.109 427.909 172.536 435.329 183.163 439.551C183.163 439.551 181.37 414.605 202.113 418.443" fill="#1386FC"/>
<path d="M233.093 450.168L286.229 469.997L339.238 490.082L338.085 490.721C338.085 489.954 337.957 488.93 337.701 487.907C337.573 486.884 337.317 485.988 337.061 484.965C336.549 483.046 336.165 480.999 335.525 479.08C334.5 475.114 333.348 471.276 332.196 467.439C329.763 459.635 327.202 451.959 324.385 444.412C321.44 436.608 320.032 428.549 318.879 420.489C317.727 412.43 316.959 404.243 316.191 396.183C315.807 392.089 315.422 388.124 314.782 384.158C314.142 380.192 312.99 376.354 311.709 372.517C309.148 364.841 306.075 357.421 302.362 350.129C300.57 346.547 298.521 342.965 296.344 339.767C295.192 338.104 294.04 336.569 292.759 335.034C292.119 334.266 291.479 333.627 290.711 332.987C289.942 332.347 289.174 331.708 288.406 331.196C282.004 326.591 274.322 323.52 266.639 321.857H267.151C266.767 321.985 266.127 322.241 265.615 322.497C265.103 322.753 264.462 323.137 263.95 323.52C262.926 324.16 261.774 324.928 260.749 325.695C258.701 327.358 256.652 328.893 255.115 330.94C254.091 332.092 253.195 332.987 252.171 333.883C251.146 334.778 250.122 335.674 248.97 336.441C246.793 338.104 244.616 339.639 242.311 341.046C240.007 342.454 237.702 343.861 235.141 344.884C233.861 345.396 232.58 345.908 231.172 346.164C229.764 346.547 228.355 346.675 226.819 346.547C226.05 346.419 225.282 346.291 224.514 345.908C224.13 345.78 223.746 345.524 223.49 345.268C223.362 345.14 223.233 345.012 222.977 344.884L222.593 344.501C221.697 343.477 220.673 342.454 219.904 341.302C219.136 340.151 218.368 338.872 217.984 337.465C217.728 336.697 217.728 335.929 217.728 335.162C217.728 334.778 217.856 334.394 217.984 333.883C218.112 333.627 218.112 333.499 218.24 333.243C218.368 332.987 218.496 332.859 218.624 332.603L218.368 333.627C217.984 332.219 217.472 330.812 216.831 329.533C216.191 328.254 215.551 326.847 214.783 326.079C214.655 325.951 214.655 325.951 214.527 325.823H214.399H214.527C214.783 325.823 214.527 325.823 214.271 326.079C213.887 326.463 213.502 327.102 213.118 327.742C212.35 329.021 211.71 330.301 211.07 331.708C209.917 334.394 208.765 337.209 207.869 340.151L207.485 341.174L207.1 342.326C206.844 343.221 206.332 343.989 205.82 344.628C204.796 345.908 203.643 346.931 203.003 348.082C202.875 348.21 202.875 348.338 202.747 348.466L202.491 348.978C202.363 349.362 202.107 349.746 201.979 350.001C201.595 350.641 201.211 351.281 200.826 352.048L198.522 356.014C196.985 358.573 195.321 361.131 193.784 363.818C193.016 365.097 192.248 366.376 191.608 367.783C190.967 369.19 190.199 370.47 189.431 371.877L185.078 379.808C182.133 385.181 179.316 390.426 176.627 395.927C173.938 401.3 171.377 406.801 169.329 412.43C168.304 415.244 167.408 418.187 166.896 421.001C166.512 423.815 167.408 426.758 169.073 429.188C170.737 431.619 172.914 433.666 175.346 435.457C177.779 437.12 180.468 438.527 183.285 439.678L182.773 440.062C182.645 437.248 182.901 434.433 183.541 431.619C184.181 428.805 185.206 426.118 186.87 423.815C188.535 421.513 190.967 419.722 193.784 419.082C196.473 418.315 199.418 418.442 202.107 418.954C199.29 418.442 196.473 418.442 193.784 419.21C191.095 419.978 188.791 421.769 187.254 424.071C185.718 426.374 184.693 429.06 184.181 431.747C183.669 434.433 183.413 437.248 183.541 440.062V440.702L182.901 440.446C180.084 439.295 177.267 437.887 174.706 436.224C172.145 434.433 169.841 432.387 168.048 429.828C166.256 427.269 165.231 424.071 165.615 420.873C166.128 417.803 167.024 414.861 168.048 411.918C170.097 406.161 172.658 400.661 175.346 395.16C178.035 389.659 180.852 384.286 183.669 378.913L188.022 370.854C188.791 369.574 189.431 368.167 190.071 366.888C190.711 365.481 191.48 364.201 192.248 362.794C193.784 360.108 195.321 357.549 196.857 354.991L199.162 351.025C199.546 350.385 199.93 349.746 200.314 349.106C200.442 348.722 200.698 348.466 200.826 348.21C200.955 347.955 201.211 347.443 201.339 347.059C202.235 345.524 203.387 344.501 204.284 343.349C204.668 342.837 205.052 342.198 205.18 341.686L205.436 340.663L205.82 339.511C206.716 336.569 207.869 333.755 209.021 330.94C209.661 329.533 210.301 328.126 211.07 326.719C211.454 326.079 211.966 325.311 212.606 324.672C212.99 324.416 213.374 323.904 214.399 323.776C214.527 323.776 214.655 323.776 214.783 323.776C214.911 323.776 214.911 323.776 215.039 323.904C215.167 323.904 215.295 324.032 215.423 324.16C215.679 324.288 215.935 324.416 216.063 324.672C216.831 325.311 217.216 326.079 217.6 326.719C217.984 327.486 218.368 328.126 218.624 328.893C219.264 330.301 219.776 331.836 220.289 333.243L220.032 334.266C220.032 334.266 220.032 334.394 219.904 334.394C219.904 334.522 219.776 334.522 219.776 334.65C219.648 334.906 219.648 335.162 219.648 335.418C219.648 335.929 219.648 336.441 219.904 336.953C220.161 338.104 220.801 339.128 221.569 340.151C222.337 341.174 223.105 342.07 224.002 342.965L224.386 343.349L224.642 343.605C224.898 343.733 225.026 343.861 225.282 343.989C225.794 344.245 226.306 344.373 226.819 344.373C229.123 344.628 231.556 343.733 233.989 342.837C236.294 341.814 238.598 340.535 240.903 339.128C243.08 337.72 245.256 336.185 247.305 334.65C248.329 333.883 249.354 332.987 250.378 332.219C251.402 331.324 252.299 330.429 253.067 329.533L253.707 328.765C253.963 328.51 254.219 328.254 254.475 327.998C254.987 327.486 255.5 326.974 256.012 326.591C257.036 325.695 258.06 324.8 259.085 323.904C260.109 323.137 261.261 322.241 262.414 321.602C263.054 321.218 263.566 320.834 264.206 320.578C264.847 320.194 265.359 319.938 266.383 319.683H266.639H266.895C270.992 320.578 274.962 321.729 278.803 323.393C282.644 325.056 286.357 326.974 289.686 329.405C290.455 330.045 291.351 330.684 292.119 331.324C292.887 332.092 293.656 332.859 294.424 333.627C295.832 335.162 297.113 336.825 298.265 338.616C300.57 342.07 302.618 345.652 304.411 349.362C308.124 356.654 311.197 364.329 313.758 372.133C315.038 375.971 316.191 379.936 316.831 384.158C317.471 388.252 317.855 392.345 318.239 396.311C319.008 404.37 319.776 412.558 320.8 420.489C321.952 428.549 323.361 436.48 326.178 444.028C328.995 451.704 331.555 459.507 333.86 467.311C335.013 471.276 336.165 475.114 337.189 479.08C337.701 480.999 338.214 483.046 338.598 485.093C338.854 486.116 338.982 487.139 339.238 488.163C339.366 489.186 339.622 490.082 339.494 491.489V492.64L338.342 492.257L285.717 471.021L233.093 450.168Z" fill="#2F353B"/>
<path d="M216.84 322.241C217.608 322.113 218.248 322.369 219.017 322.625C219.657 322.881 220.297 323.264 220.937 323.776C222.089 324.672 223.114 325.823 223.882 326.974C224.65 328.126 225.419 329.533 225.803 330.812C226.315 332.219 226.571 333.627 226.443 335.034C226.059 333.627 225.547 332.347 224.906 331.196C224.266 329.917 223.626 328.765 222.858 327.614C222.089 326.463 221.193 325.439 220.297 324.416C219.273 323.648 218.248 322.625 216.84 322.241Z" fill="#2F353B"/>
<path d="M294.437 412.046C294.437 412.046 282.401 432.13 275.615 444.795C273.95 447.993 262.683 461.298 262.683 461.298L257.049 459.251C257.049 459.251 258.841 454.518 260.25 453.494C261.658 452.471 263.963 449.656 266.268 447.226C268.572 444.795 269.725 443.516 270.493 441.725C271.261 440.062 273.438 435.073 275.102 433.154C276.895 431.363 281.12 427.141 283.041 425.35C285.09 423.559 291.236 417.931 294.437 412.046Z" fill="#1D61D5"/>
<path d="M261.917 281.688C267.807 286.549 259.484 295.76 254.619 298.062C249.753 300.365 248.217 297.295 248.217 297.295C248.217 297.295 246.04 300.109 242.327 307.273C238.614 314.437 232.98 316.1 221.328 319.554C209.677 323.008 204.555 318.659 203.659 316.612C202.891 314.565 202.122 312.39 198.153 294.608C194.184 276.826 201.482 275.419 203.659 261.987L208.652 244.461L229.139 233.331L246.168 239.088L258.588 249.322L265.374 269.407L261.917 281.688Z" fill="#FFDECC"/>
<path d="M261.922 281.688C262.818 282.455 263.587 283.351 263.843 284.502C264.099 285.654 263.971 286.805 263.715 287.956C263.075 290.259 261.666 292.178 260.13 293.969C258.593 295.632 256.801 297.295 254.624 298.318C253.6 298.83 252.447 299.214 251.167 299.214C249.886 299.214 248.606 298.702 247.966 297.551H248.478C247.198 299.47 245.917 301.517 244.893 303.435C243.74 305.482 242.844 307.529 241.436 309.576C240.155 311.623 238.235 313.158 236.186 314.437C234.137 315.716 231.961 316.612 229.656 317.38C227.479 318.147 225.175 318.787 222.998 319.554C220.821 320.194 218.388 320.834 216.084 321.217C213.779 321.473 211.218 321.473 208.913 320.834C207.761 320.578 206.609 320.066 205.584 319.426C204.56 318.787 203.536 317.763 203.152 316.484C202.255 314.181 201.743 312.007 201.231 309.704L199.567 302.924C198.542 298.318 197.39 293.841 196.75 289.108C196.494 286.805 196.494 284.374 196.75 281.944C197.134 279.513 197.774 277.21 198.798 275.036C199.695 272.861 200.719 270.814 201.487 268.639C202.255 266.464 202.896 264.29 203.28 261.987L208.401 244.461C208.401 244.333 208.529 244.205 208.657 244.077L229.144 233.075C229.272 232.948 229.4 232.948 229.528 233.075L246.557 238.96C246.557 238.96 246.685 238.96 246.685 239.088L259.105 249.45L259.233 249.578L265.763 269.791L261.922 281.688ZM261.922 281.688L265.379 269.407L258.465 249.322L258.593 249.45L246.045 239.344L246.173 239.472L229.144 233.843H229.528L209.042 244.973L209.298 244.589L204.304 262.115V261.987C203.92 264.29 203.28 266.592 202.511 268.895C201.743 271.198 200.719 273.245 199.823 275.419C198.926 277.594 198.286 279.769 197.902 281.944C197.518 284.246 197.646 286.549 197.902 288.852C198.414 293.457 199.695 297.935 200.591 302.54L202.127 309.32C202.64 311.623 203.28 313.925 204.048 315.972C204.432 316.996 205.2 317.763 206.097 318.275C206.993 318.915 208.017 319.298 209.17 319.554C211.346 320.194 213.651 320.194 215.956 319.938C218.26 319.682 220.437 319.043 222.742 318.403C225.047 317.763 227.223 317.124 229.4 316.356C231.577 315.589 233.753 314.821 235.802 313.67C237.723 312.518 239.515 310.983 240.796 309.064C242.076 307.145 243.1 304.971 244.253 303.052C245.405 301.005 246.557 298.958 247.966 297.039C248.094 296.911 248.222 296.911 248.35 296.911C248.35 296.911 248.35 296.911 248.478 297.039C248.99 297.935 250.014 298.446 251.167 298.446C252.319 298.446 253.343 298.19 254.368 297.679C256.416 296.783 258.209 295.248 259.874 293.585C261.41 291.922 262.818 290.003 263.587 287.828C263.971 286.677 264.099 285.526 263.843 284.374C263.459 283.479 262.69 282.455 261.922 281.688Z" fill="#A86E4F"/>
<path d="M205.829 256.742C205.829 256.742 212.487 251.113 216.072 253.416C219.657 255.719 221.706 264.034 232.461 263.266C243.217 262.499 247.826 261.475 250.003 270.302L252.692 257.51L236.047 247.915L222.986 243.949L213.768 246.252L207.366 253.928L205.829 256.742Z" fill="#F8CAB1"/>
<path d="M263.703 286.549C263.703 286.549 262.422 274.652 252.435 287.189C249.106 291.41 246.801 281.688 249.106 273.884C251.283 266.081 248.466 259.045 241.68 260.324C216.072 264.929 224.01 250.346 214.279 251.241C207.621 251.753 204.676 256.358 202.115 267.872C202.115 267.872 198.658 259.429 204.42 244.589C213.639 220.794 248.978 221.434 264.215 241.775C264.087 241.647 287.134 251.625 263.703 286.549Z" fill="#2F353B"/>
<path d="M211.106 278.111C211.371 276.723 211.023 275.49 210.328 275.358C209.634 275.225 208.856 276.243 208.591 277.631C208.325 279.019 208.673 280.252 209.368 280.384C210.063 280.517 210.841 279.499 211.106 278.111Z" fill="#2F353B"/>
<path d="M232.479 282.055C232.497 280.643 231.938 279.49 231.231 279.481C230.524 279.472 229.936 280.61 229.918 282.023C229.9 283.436 230.459 284.588 231.166 284.597C231.873 284.606 232.461 283.468 232.479 282.055Z" fill="#2F353B"/>
<path d="M216.59 275.164C216.59 275.164 215.438 267.744 206.347 269.407C206.347 269.407 210.829 270.814 216.59 275.164Z" fill="#2F353B"/>
<path d="M239.765 278.873C239.765 278.873 235.668 272.604 228.114 277.849C228.114 277.849 232.723 277.338 239.765 278.873Z" fill="#2F353B"/>
<path d="M220.171 280.664C218.25 283.99 216.073 287.188 213.769 290.131C213.128 290.898 212.488 291.666 211.976 292.305C211.464 292.945 211.464 293.457 211.976 294.096C212.488 294.608 213.385 294.992 214.281 295.248C215.177 295.504 216.073 295.632 217.098 295.759C216.201 295.887 215.177 296.015 214.153 295.887C213.128 295.759 212.104 295.632 211.208 294.864C210.824 294.48 210.312 293.969 210.312 293.329C210.184 292.689 210.568 292.05 210.824 291.666L212.616 289.363C215.177 286.293 217.482 283.351 220.171 280.664Z" fill="#2F353B"/>
<path d="M196.994 286.805C197.634 292.306 201.219 309.448 202.372 313.03C203.524 316.484 203.012 322.752 211.207 323.136C219.401 323.52 237.967 317.763 241.04 309.192C241.296 308.552 247.954 297.423 247.954 297.423C247.954 297.423 237.967 307.145 226.571 300.877C215.304 294.608 207.878 298.446 204.549 296.911C201.476 295.376 197.634 290.003 197.122 284.246L196.994 286.805Z" fill="#2F353B"/>
<path d="M207.882 302.924C207.882 302.924 214.54 297.806 222.862 304.459C224.783 305.994 222.862 308.936 219.661 307.913C218.509 307.529 215.18 305.61 210.443 306.761C206.857 307.529 204.937 304.842 207.882 302.924Z" fill="#FFDECC"/>
<path d="M208.905 305.099C209.545 304.203 210.697 303.691 211.722 303.436C212.746 303.18 213.898 303.18 215.051 303.308C216.203 303.436 217.099 303.947 218.124 304.459C218.636 304.715 219.02 304.971 219.532 305.355C219.916 305.738 220.3 305.994 220.684 306.378C220.172 306.25 219.66 305.994 219.148 305.866C218.636 305.738 218.124 305.482 217.74 305.355C216.715 305.099 215.819 304.715 214.795 304.587C212.874 304.203 210.825 304.203 208.905 305.099Z" fill="#2F353B"/>
<path d="M233.998 303.819C233.998 303.819 247.954 304.842 248.594 284.758L253.46 281.432L253.076 286.293C253.076 286.293 248.722 297.55 246.418 300.237C244.113 302.795 233.742 314.565 233.742 314.565L233.998 303.819Z" fill="#2F353B"/>
<path d="M256.024 294.225C257.048 293.586 258.2 293.074 259.097 292.306C259.993 291.539 260.889 290.643 261.145 289.62C261.786 287.573 260.121 285.014 258.2 284.503C257.944 284.503 257.816 284.503 257.816 284.503C257.816 284.631 257.688 284.886 257.688 285.142C257.56 285.654 257.56 286.294 257.56 286.933C257.56 288.085 257.56 289.364 257.432 290.643C257.432 290.899 257.304 291.283 257.176 291.667C257.048 291.795 256.92 291.922 256.92 291.922L256.664 292.05C256.536 292.05 256.408 292.178 256.28 292.178C256.024 292.306 255.64 292.306 255.256 292.306C254.871 292.306 254.487 291.922 254.359 291.667C254.231 291.283 254.231 291.027 253.975 291.027C253.719 290.899 253.463 291.027 253.207 291.155C252.695 291.411 252.183 291.795 251.67 292.178C252.055 291.667 252.567 291.283 253.079 290.899C253.335 290.771 253.591 290.515 254.103 290.643C254.359 290.643 254.487 290.899 254.615 291.027C254.743 291.283 254.743 291.283 254.871 291.411C255.127 291.922 255.64 291.795 256.152 291.539L256.536 291.411L256.792 291.283C256.92 291.283 256.792 291.283 256.792 291.283C256.792 291.155 256.92 290.771 256.92 290.515C256.92 289.364 256.792 288.085 256.792 286.933C256.792 286.294 256.792 285.654 256.92 285.014C256.92 284.631 257.048 284.375 257.304 283.991C257.688 283.479 258.2 283.479 258.585 283.607C259.993 283.991 260.889 285.014 261.658 286.038C262.298 287.189 262.554 288.596 262.042 289.876C261.53 291.155 260.505 292.05 259.609 292.69C258.2 293.33 257.048 293.713 256.024 294.225Z" fill="#A86E4F"/>
<path d="M215.173 339.767C215.941 339.511 216.581 339.255 217.35 339.127L218.374 338.871C218.758 338.743 219.014 338.743 219.398 338.487C219.27 338.871 218.886 339.127 218.502 339.255C218.118 339.511 217.734 339.511 217.35 339.639C216.709 339.895 215.941 340.022 215.173 339.767Z" fill="#2F353B"/>
<path d="M207.882 387.483L210.955 420.745L206.346 418.442C206.346 418.442 206.218 412.813 206.09 407.056C206.09 403.346 206.09 399.253 206.09 397.718C205.962 393.752 207.882 387.483 207.882 387.483Z" fill="#1D61D5"/>
<path d="M189.823 410.381C192.256 412.684 205.7 418.569 205.7 418.569C205.7 418.569 204.804 398.74 205.7 395.542C206.596 392.344 207.749 386.971 207.237 383.9" fill="#1386FC"/>
<path d="M189.823 410.382C190.976 411.278 192.384 411.917 193.664 412.557L197.762 414.476C200.451 415.755 203.139 416.907 205.956 418.058L205.188 418.57C205.06 415.627 204.932 412.813 204.804 409.871C204.804 406.928 204.676 403.986 204.804 401.172C204.804 399.764 204.932 398.229 205.06 396.822C205.188 396.054 205.316 395.287 205.572 394.647C205.828 394.008 205.956 393.24 206.084 392.6C206.725 389.786 207.493 386.972 207.237 384.029C207.493 385.436 207.493 386.972 207.365 388.379C207.237 389.786 206.981 391.321 206.725 392.728C206.597 393.496 206.468 394.136 206.212 394.903C206.084 395.671 205.828 396.31 205.828 396.95C205.7 398.357 205.7 399.764 205.7 401.299C205.7 407.056 205.956 412.941 206.084 418.698V419.593L205.188 419.209C202.499 417.93 199.81 416.651 197.122 415.244C195.841 414.604 194.433 413.836 193.152 413.069C192.256 412.173 190.976 411.406 189.823 410.382Z" fill="#2F353B"/>
<path d="M199.032 434.178C218.622 440.83 237.956 447.994 257.162 455.414C266.765 458.996 276.369 462.833 285.972 466.543L314.781 477.929L343.462 489.57C352.937 493.536 362.54 497.374 372.015 501.468C390.965 509.527 409.914 517.714 428.608 526.413C409.018 519.761 389.684 512.597 370.478 505.177C360.875 501.595 351.272 497.758 341.669 494.048L312.86 482.662L284.179 471.021C274.704 467.055 265.101 463.217 255.626 459.124C236.676 451.064 217.726 442.877 199.032 434.178Z" fill="#2F353B"/>
<path d="M202.885 417.291L238.864 436.352L257.814 445.563L254.997 458.356C223.627 456.948 186.112 442.876 182.142 438.783C182.142 438.783 179.069 434.305 184.319 424.327C187.264 418.698 196.483 415.244 202.885 417.291Z" fill="#FFDECC"/>
<path d="M255.511 458.995H254.999C222.861 457.588 185.729 443.26 181.632 439.294C181.376 439.038 178.303 434.305 183.68 424.071C186.753 418.186 196.356 414.476 203.014 416.651H203.142L239.122 435.712L258.456 445.051L255.511 458.995ZM182.656 438.399C187.009 442.62 224.141 456.181 254.487 457.716L257.047 445.818L238.61 436.864L202.63 417.802C196.484 415.883 187.65 419.21 184.833 424.71C180.223 433.537 182.4 437.887 182.656 438.399Z" fill="#A86E4F"/>
<path d="M259.229 359.084C259.229 359.084 253.723 374.051 253.467 380.832C253.211 387.612 248.474 392.985 247.193 396.695C245.913 400.277 245.017 406.289 243.224 408.08C241.431 409.871 236.694 414.86 235.285 416.779C233.237 419.722 233.621 427.141 231.956 428.421C230.292 429.7 221.585 429.7 221.457 431.363C221.457 431.363 218.256 457.588 226.067 462.449C229.78 464.752 246.297 466.927 252.443 462.449C258.589 457.972 257.692 454.902 260.381 453.366C263.07 451.831 266.271 446.586 268.576 444.667C270.881 442.748 271.649 436.864 275.234 433.154C278.691 429.316 286.758 422.152 288.038 420.745C289.318 419.466 294.824 410.255 297.769 408.848" fill="#1386FC"/>
<path d="M259.229 359.084C257.821 363.434 256.54 367.783 255.516 372.133C255.004 374.307 254.491 376.482 254.235 378.785C254.107 379.936 254.107 380.96 253.979 382.111C253.851 383.262 253.595 384.414 253.339 385.565C252.699 387.74 251.675 389.914 250.522 391.961C249.498 394.008 248.218 395.927 247.705 397.974C247.065 400.149 246.681 402.323 246.041 404.498C245.657 405.65 245.401 406.673 244.632 407.824C244.504 408.08 244.248 408.336 243.992 408.72L243.352 409.359L242.2 410.639C240.663 412.302 239.127 413.965 237.718 415.628C237.078 416.523 236.182 417.291 235.926 418.059C235.542 418.954 235.285 419.977 235.029 421.129C234.773 422.152 234.645 423.304 234.517 424.455C234.389 425.606 234.133 426.758 233.749 428.037C233.621 428.421 233.493 428.676 233.109 429.06C232.725 429.444 232.341 429.7 231.956 429.828C231.316 430.084 230.676 430.212 230.164 430.34C229.011 430.595 227.859 430.723 226.707 430.979C225.554 431.107 224.53 431.363 223.506 431.619C223.25 431.747 222.994 431.747 222.866 431.875C222.738 432.003 222.481 432.131 222.609 432.003L222.738 431.875C222.738 431.875 222.738 431.619 222.738 431.747V432.131L222.609 433.026C222.353 435.201 222.225 437.503 222.225 439.678C222.097 444.156 222.225 448.633 222.866 452.983C223.25 455.157 223.762 457.332 224.658 459.123C225.17 460.019 225.682 460.786 226.451 461.426C227.091 461.938 228.115 462.321 229.14 462.577C233.365 463.729 237.846 464.24 242.2 464.112C244.376 463.984 246.553 463.856 248.602 463.217C249.626 462.961 250.65 462.577 251.419 462.066C252.187 461.554 253.083 460.786 253.979 460.147C254.748 459.379 255.516 458.611 256.028 457.716C256.668 456.82 257.052 455.925 257.692 454.902C257.949 454.39 258.461 453.75 258.973 453.366C259.229 453.111 259.613 452.983 259.869 452.727C260.125 452.599 260.253 452.471 260.509 452.343C261.278 451.703 262.046 450.936 262.814 450.168C264.351 448.505 265.631 446.714 267.296 445.051C267.552 444.795 267.68 444.667 267.936 444.412C268.192 444.156 268.32 444.156 268.448 443.9C268.704 443.516 269.088 443.132 269.344 442.621C269.856 441.725 270.24 440.702 270.753 439.55C271.649 437.503 272.673 435.329 274.21 433.538C275.746 431.747 277.411 430.212 279.075 428.676L284.197 424.071L286.758 421.768C287.142 421.385 287.654 421.001 288.038 420.617C288.422 420.233 288.678 419.722 289.062 419.338C290.343 417.547 291.751 415.628 293.16 413.837C293.928 412.941 294.568 412.046 295.336 411.278C296.105 410.511 296.873 409.615 298.025 409.104C297.001 409.615 296.233 410.511 295.592 411.406C294.824 412.302 294.184 413.197 293.544 414.093C292.263 415.884 290.983 417.803 289.703 419.722C289.318 420.233 289.062 420.617 288.678 421.129C288.294 421.513 287.91 421.896 287.398 422.408L284.965 424.711L280.1 429.444C278.563 430.979 276.899 432.642 275.49 434.305C274.21 435.968 273.313 438.015 272.417 440.062C272.033 441.085 271.521 442.109 271.009 443.26C270.753 443.772 270.368 444.284 269.984 444.795C269.856 445.051 269.472 445.307 269.344 445.563C269.216 445.691 268.96 445.947 268.832 446.075C267.424 447.61 266.015 449.529 264.479 451.32C263.71 452.215 262.942 453.111 261.918 453.878C261.662 454.134 261.406 454.262 261.15 454.39C260.893 454.518 260.765 454.646 260.637 454.774C260.381 455.03 259.997 455.413 259.741 455.797C259.229 456.693 258.717 457.844 257.949 458.739C257.308 459.763 256.412 460.658 255.516 461.426C254.62 462.193 253.723 462.961 252.699 463.729C251.675 464.368 250.394 464.88 249.242 465.264C246.937 465.903 244.632 466.159 242.2 466.287C237.59 466.415 232.981 466.031 228.371 464.752C227.219 464.368 226.067 464.112 224.914 463.217C223.762 462.321 222.994 461.298 222.481 460.147C221.329 457.972 220.817 455.541 220.305 453.239C219.537 448.633 219.537 444.028 219.665 439.422C219.793 437.12 219.921 434.817 220.177 432.514L220.305 431.619V431.235C220.305 431.235 220.305 430.851 220.433 430.723C220.561 430.595 220.689 430.34 220.689 430.212C221.201 429.7 221.457 429.572 221.841 429.444C222.225 429.316 222.481 429.188 222.738 429.188C223.89 428.932 225.042 428.676 226.195 428.549C227.347 428.421 228.499 428.165 229.524 428.037C230.036 427.909 230.548 427.781 230.932 427.653C231.188 427.525 231.188 427.525 231.188 427.525C231.188 427.397 231.316 427.269 231.444 427.141C231.828 426.246 231.956 425.222 232.084 424.071C232.212 422.92 232.469 421.768 232.597 420.745C232.853 419.594 233.109 418.442 233.621 417.291C233.749 417.035 233.877 416.651 234.133 416.395C234.261 416.14 234.517 415.884 234.645 415.628C235.029 415.116 235.413 414.732 235.798 414.349C237.334 412.686 238.871 411.022 240.535 409.359L241.687 408.208L242.328 407.568C242.456 407.441 242.584 407.313 242.712 407.057C243.224 406.289 243.608 405.266 243.992 404.114C244.632 402.068 245.145 399.765 245.913 397.59C246.553 395.287 247.961 393.369 248.986 391.322C250.138 389.403 251.162 387.356 251.803 385.309C252.187 384.286 252.443 383.134 252.571 382.111C252.699 381.087 252.827 379.808 252.955 378.785C253.339 376.482 253.979 374.307 254.491 372.133C256.028 367.527 257.564 363.306 259.229 359.084Z" fill="#2F353B"/>
<path d="M193.163 310.216C193.163 310.216 193.291 308.553 193.675 307.914C194.059 307.274 198.156 307.018 203.534 307.914" fill="#FFDECC"/>
<path d="M193.167 310.216C193.039 309.704 193.039 309.192 193.167 308.553C193.167 308.297 193.295 308.041 193.295 307.657C193.295 307.657 193.423 307.401 193.551 307.401C193.679 307.273 193.679 307.273 193.807 307.273C193.935 307.145 194.063 307.146 194.191 307.146C195.344 306.762 196.368 306.762 197.392 306.762C199.569 306.762 201.617 307.145 203.538 308.041C201.361 308.169 199.313 308.041 197.392 308.041C196.368 308.041 195.344 308.041 194.447 308.169C194.191 308.169 194.063 308.297 194.063 308.297C193.935 308.425 193.807 308.681 193.807 308.936C193.551 309.192 193.423 309.704 193.167 310.216Z" fill="#A86E4F"/>
<path d="M190.988 313.158C191.116 312.646 191.244 310.471 193.164 310.215C195.085 309.959 199.823 308.296 203.536 307.913C207.249 307.529 212.755 313.03 215.315 316.612C216.98 319.042 221.205 323.648 223.894 326.334C225.559 328.125 226.839 330.044 227.607 332.347C234.521 350.384 243.612 401.811 246.301 416.139L246.941 418.954C249.758 427.781 249.246 440.445 245.661 450.168C242.716 458.355 237.594 464.496 230.552 464.624C214.931 464.879 213.523 448.249 213.523 448.249C207.889 431.362 212.755 409.487 213.779 394.647C213.779 394.647 216.596 358.188 216.724 355.502C217.236 343.093 216.084 341.43 215.315 340.406C215.315 340.406 207.761 337.848 206.609 334.649C205.328 331.579 201.487 323.008 200.719 322.24C199.951 321.473 196.878 320.833 196.878 318.019" fill="#FFDECC"/>
<path d="M190.988 313.157C191.116 312.39 191.244 311.75 191.628 311.11C191.884 310.854 192.14 310.599 192.396 310.471C192.78 310.343 193.036 310.215 193.421 310.215C194.829 309.959 196.237 309.447 197.646 309.191C199.054 308.808 200.463 308.424 201.871 308.168C202.639 308.04 203.28 307.912 204.048 307.912C204.816 307.912 205.456 308.168 206.225 308.424C208.913 309.575 211.09 311.622 213.139 313.797C214.163 314.82 215.059 315.972 215.828 317.251C216.724 318.402 217.62 319.426 218.644 320.577C220.565 322.752 222.486 324.799 224.534 326.973C226.583 329.148 227.863 331.835 228.76 334.649C230.68 340.15 232.217 345.779 233.625 351.279C236.442 362.537 238.747 373.795 241.052 385.18C242.204 390.809 243.228 396.566 244.381 402.195L245.917 410.766C246.429 413.58 246.941 416.394 247.582 419.209C249.63 425.733 249.758 432.641 248.99 439.293C248.606 442.62 247.966 445.946 246.941 449.144C245.917 452.342 244.509 455.54 242.588 458.355C240.667 461.169 237.979 463.728 234.649 464.879C232.985 465.519 231.192 465.646 229.528 465.519C227.863 465.391 226.071 465.135 224.406 464.623C221.077 463.472 218.26 461.169 216.468 458.227C214.675 455.284 213.523 451.958 213.139 448.632V448.76C210.194 439.933 210.194 430.722 210.834 421.639C211.474 412.557 212.883 403.602 213.651 394.519L215.828 367.398C216.212 362.921 216.596 358.315 216.724 353.838C216.852 351.535 216.852 349.361 216.724 347.058C216.724 345.907 216.596 344.755 216.468 343.732C216.34 342.58 216.084 341.557 215.315 340.662L215.443 340.789C213.011 339.894 210.706 338.871 208.657 337.335C208.145 336.952 207.633 336.44 207.249 335.928C206.865 335.416 206.609 334.777 206.353 334.265C205.84 333.114 205.328 331.962 204.816 330.811C203.792 328.508 202.767 326.206 201.615 323.903C201.231 323.391 201.103 322.752 200.591 322.368C200.079 321.984 199.438 321.728 198.926 321.472C198.414 321.089 197.902 320.705 197.518 320.193C197.134 319.681 197.006 319.042 197.006 318.402C197.006 319.042 197.134 319.681 197.518 320.193C197.902 320.705 198.414 321.089 198.926 321.472C199.438 321.856 200.079 322.112 200.591 322.368C201.103 322.752 201.359 323.391 201.743 323.903C202.896 326.206 204.048 328.508 205.072 330.811C205.584 331.962 206.097 333.114 206.609 334.265C206.865 334.905 206.993 335.416 207.505 335.928C207.889 336.44 208.401 336.824 208.913 337.207C210.962 338.743 213.267 339.766 215.7 340.534C216.468 341.429 216.724 342.58 216.98 343.732C217.236 344.883 217.236 346.034 217.364 347.186C217.492 349.488 217.492 351.791 217.364 353.966C217.236 358.571 216.852 363.049 216.468 367.526L214.419 394.647C213.779 403.73 212.242 412.685 211.73 421.767C211.218 430.722 211.346 439.933 214.163 448.504V448.632C214.547 451.83 215.7 455.028 217.364 457.715C219.157 460.401 221.717 462.576 224.79 463.6C226.327 464.111 227.863 464.367 229.528 464.495C231.192 464.623 232.729 464.367 234.265 463.855C237.338 462.832 239.643 460.401 241.564 457.715C243.484 455.028 244.765 451.958 245.789 448.888C246.813 445.69 247.454 442.492 247.838 439.166C248.606 432.641 248.478 425.861 246.557 419.593C245.917 416.778 245.405 413.964 244.893 411.022L243.356 402.45C242.332 396.822 241.308 391.065 240.155 385.436C237.979 374.051 235.546 362.793 232.857 351.535C231.448 345.907 230.04 340.278 228.119 334.905C227.223 332.09 226.071 329.532 224.15 327.485C222.23 325.438 220.181 323.263 218.388 321.089C217.492 319.937 216.468 318.914 215.7 317.763C214.931 316.611 214.035 315.46 213.011 314.308C211.09 312.134 208.913 310.087 206.353 308.936C205.712 308.68 204.944 308.424 204.304 308.424C203.664 308.424 202.896 308.552 202.127 308.68C200.719 308.936 199.31 309.191 197.902 309.575C196.494 309.959 195.085 310.343 193.677 310.599C193.293 310.599 192.908 310.727 192.652 310.854C192.268 310.982 192.012 311.238 191.884 311.494C191.244 311.622 191.116 312.39 190.988 313.157Z" fill="#A86E4F"/>
<path d="M189.968 317.891C189.968 317.891 188.816 315.333 190.224 313.798C191.633 312.391 200.596 310.728 202.132 309.96" fill="#FFDECC"/>
<path d="M189.964 317.891C189.58 317.252 189.324 316.612 189.195 315.845C189.067 315.077 189.195 314.182 189.836 313.542C190.476 312.774 191.116 312.646 191.884 312.263C192.525 312.007 193.293 311.751 193.933 311.623C195.341 311.239 196.622 310.983 198.03 310.728C199.439 310.472 200.847 310.344 202.128 310.088C200.975 310.855 199.567 311.239 198.158 311.751C196.878 312.135 195.469 312.519 194.189 312.902C193.549 313.03 192.909 313.286 192.268 313.542C191.628 313.798 190.988 314.054 190.604 314.309C189.708 314.949 189.708 316.484 189.964 317.891Z" fill="#A86E4F"/>
<path d="M194.832 322.242C194.832 322.242 197.648 323.01 198.289 324.673C198.929 326.336 194.703 325.952 194.063 325.824C193.423 325.696 190.734 324.545 190.478 323.266C190.222 321.986 189.582 318.66 189.966 317.893C190.35 317.125 196.88 312.52 197.776 312.264C198.673 312.008 201.105 312.776 203.538 315.078" fill="#FFDECC"/>
<path d="M194.835 322.241C195.604 322.369 196.244 322.625 197.012 323.009C197.652 323.393 198.421 323.776 198.677 324.672C198.805 324.928 198.805 325.184 198.549 325.439C198.421 325.695 198.164 325.823 198.036 325.951C197.652 326.079 197.268 326.207 196.884 326.335C196.116 326.463 195.348 326.463 194.579 326.463C193.683 326.463 193.043 326.079 192.275 325.695C191.634 325.312 190.866 324.928 190.354 324.16C190.226 323.904 190.098 323.776 189.97 323.521C189.97 323.265 189.842 323.137 189.842 323.009L189.586 321.858C189.458 321.09 189.33 320.322 189.202 319.555C189.202 319.171 189.202 318.787 189.202 318.276C189.202 318.148 189.202 318.02 189.202 317.892C189.202 317.764 189.33 317.636 189.458 317.508L189.586 317.252L189.714 317.124L189.97 316.868C190.61 316.357 191.122 315.845 191.762 315.461C193.043 314.566 194.195 313.798 195.476 313.031C196.116 312.647 196.756 312.263 197.524 311.879C198.036 311.623 198.421 311.751 198.805 311.879C199.189 312.007 199.573 312.135 199.957 312.263C201.365 312.903 202.518 313.926 203.542 314.949C202.39 314.054 201.109 313.286 199.701 312.775C199.061 312.519 198.293 312.391 197.78 312.647C197.268 313.031 196.628 313.414 195.988 313.798C194.835 314.694 193.555 315.589 192.403 316.485C191.762 316.996 191.25 317.38 190.738 317.892L190.61 318.02L190.482 318.148C190.482 318.276 190.482 318.276 190.482 318.276C190.482 318.531 190.482 318.915 190.482 319.299C190.61 320.067 190.61 320.706 190.738 321.474L190.994 322.625C190.994 322.753 191.122 323.009 191.122 323.137C191.122 323.265 191.122 323.393 191.25 323.393C191.891 324.288 193.427 325.056 194.579 325.312C195.22 325.439 195.988 325.439 196.756 325.439C197.396 325.439 198.293 325.184 198.036 324.8C197.908 324.16 197.396 323.648 196.756 323.265C196.244 322.881 195.604 322.625 194.835 322.241Z" fill="#A86E4F"/>
<path d="M197.263 319.427C197.263 319.427 194.19 320.706 193.166 318.915Z" fill="#FFDECC"/>
<path d="M197.263 319.427C196.623 319.811 195.854 320.066 195.086 320.066C194.702 320.066 194.318 320.066 193.934 319.811C193.55 319.683 193.294 319.299 193.166 318.915C193.678 319.427 194.318 319.683 195.086 319.683C195.47 319.683 195.854 319.683 196.11 319.555C196.623 319.555 197.007 319.555 197.263 319.427Z" fill="#A86E4F"/>
<path d="M194.454 319.811C194.454 319.811 195.734 322.113 194.454 322.881Z" fill="#FFDECC"/>
<path d="M194.446 319.811C194.83 320.194 195.086 320.834 195.086 321.346C195.086 321.602 195.086 321.985 194.958 322.241C194.83 322.497 194.574 322.753 194.318 322.881C194.702 322.497 194.83 321.985 194.702 321.474C194.702 320.962 194.574 320.45 194.446 319.811Z" fill="#A86E4F"/>
<path d="M210.559 216.83C213.882 216.83 216.577 214.138 216.577 210.817C216.577 207.497 213.882 204.805 210.559 204.805C207.235 204.805 204.541 207.497 204.541 210.817C204.541 214.138 207.235 216.83 210.559 216.83Z" fill="#ADB4BD"/>
<path d="M221.694 222.203C223.321 222.203 224.639 220.886 224.639 219.261C224.639 217.636 223.321 216.318 221.694 216.318C220.068 216.318 218.75 217.636 218.75 219.261C218.75 220.886 220.068 222.203 221.694 222.203Z" fill="#ADB4BD"/>
<path d="M179.958 209.538C199.333 209.538 215.041 193.844 215.041 174.486C215.041 155.127 199.333 139.434 179.958 139.434C160.582 139.434 144.875 155.127 144.875 174.486C144.875 193.844 160.582 209.538 179.958 209.538Z" fill="#ADB4BD"/>
<path d="M179.45 194.186C179.194 194.058 178.938 194.058 178.682 193.93C178.041 193.546 177.657 192.906 177.529 192.139C177.529 191.883 177.529 191.755 177.529 191.499C177.529 186.126 177.529 180.753 177.529 175.38C177.529 174.997 177.401 174.869 177.145 174.869C173.176 173.845 170.103 170.391 169.591 166.298C168.951 160.925 172.408 155.935 177.785 154.912C183.291 153.761 188.797 157.471 189.949 162.971C190.973 168.344 187.772 173.589 182.523 174.997C182.267 175.125 182.139 175.253 182.139 175.508C182.139 178.067 182.139 180.498 182.139 183.056C182.139 183.184 182.139 183.312 182.139 183.44C182.267 183.44 182.395 183.44 182.523 183.44C183.419 183.44 184.187 183.44 185.084 183.44C185.98 183.44 186.748 184.08 186.748 184.847C186.748 185.743 186.108 186.254 185.212 186.382C184.699 186.382 184.571 186.638 184.571 187.022C184.571 187.15 184.571 187.278 184.571 187.406C184.571 188.045 184.699 188.173 185.34 188.301C186.236 188.429 186.748 189.069 186.748 189.836C186.748 190.604 185.98 191.243 185.084 191.243C184.059 191.243 183.163 191.243 182.011 191.243C182.011 191.499 182.011 191.755 182.011 192.011C182.011 193.034 181.37 193.802 180.346 194.186C180.218 194.186 180.218 194.186 180.09 194.314C180.09 194.186 179.706 194.186 179.45 194.186ZM179.962 170.775C183.163 170.775 185.724 168.217 185.724 165.018C185.724 161.82 183.035 159.262 179.962 159.262C176.761 159.262 174.2 161.948 174.2 165.146C174.072 168.217 176.761 170.775 179.962 170.775Z" fill="white"/>
</svg>
