<svg width="200" height="200" viewBox="0 0 200 200" fill="none" xmlns="http://www.w3.org/2000/svg">
<path d="M176.688 128.287C176.688 87.6224 143.783 54.6816 103.162 54.6816C62.5419 54.6816 29.6367 87.6224 29.6367 128.287C29.6367 141.177 32.9579 153.299 38.7827 163.836L167.644 163.683C173.367 153.197 176.688 141.126 176.688 128.287Z" fill="#FFB230"/>
<path d="M110.932 68.9514C110.829 70.844 109.041 70.6905 107.866 71.1509C106.691 71.6112 98.9243 74.3733 98.9243 74.3733L101.939 76.6751C101.939 76.6751 123.399 79.4884 126.618 78.2096C129.837 76.9309 129.173 73.3503 129.173 73.3503C128.202 68.4911 131.318 64.9106 131.318 64.9106L131.983 62.6599L128.764 59.8467" fill="#FFDECC"/>
<path d="M110.93 68.9518C110.93 69.2075 110.879 69.5144 110.726 69.7702C110.624 70.0259 110.419 70.2305 110.164 70.384C109.653 70.6909 109.091 70.7932 108.58 70.9466C107.507 71.3047 106.434 71.7139 105.412 72.1231L99.025 74.476L99.0761 74.1691L102.091 76.4709L101.989 76.4197C105.259 76.8289 108.58 77.187 111.85 77.4939C113.485 77.6473 115.12 77.8008 116.806 77.9031C118.441 78.0565 120.127 78.1588 121.762 78.21C122.58 78.2611 123.397 78.2611 124.215 78.21C125.032 78.1588 125.901 78.1588 126.565 77.9031C127.281 77.5962 127.945 77.1358 128.354 76.4709C128.558 76.164 128.711 75.7548 128.813 75.3967C128.916 75.0387 128.967 74.6295 129.018 74.2203C129.018 74.0157 129.018 73.8111 129.018 73.6065C129.018 73.5042 129.018 73.4019 128.967 73.2996L128.916 72.9927L128.813 72.3789L128.762 71.7651C128.762 70.9466 128.813 70.0771 129.018 69.2587C129.427 67.6219 130.142 66.0874 131.215 64.7575V64.8086L131.93 62.6092V62.6603L128.762 59.7959L132.032 62.558C132.032 62.558 132.083 62.6092 132.032 62.6092L131.368 64.8598C131.368 64.8598 131.368 64.8598 131.368 64.9109C130.397 66.1897 129.682 67.7242 129.324 69.3098C129.171 70.1282 129.12 70.9466 129.12 71.7139L129.171 72.3277L129.273 72.9415L129.324 73.2484C129.324 73.3507 129.375 73.453 129.375 73.5553C129.375 73.7599 129.427 73.9645 129.375 74.2203C129.375 75.0898 129.171 75.9594 128.711 76.6755C128.251 77.4427 127.536 78.0054 126.718 78.3123C125.85 78.6192 125.032 78.6192 124.215 78.6703C123.397 78.6703 122.529 78.6703 121.711 78.6703C118.39 78.568 115.069 78.2611 111.799 77.9542C108.478 77.5962 105.208 77.2381 101.937 76.7778C101.886 76.7778 101.886 76.7778 101.835 76.7266L98.8718 74.3737C98.7696 74.3226 98.7696 74.2203 98.8207 74.118C98.8207 74.0668 98.8718 74.0668 98.9229 74.0668L105.361 71.8162C106.434 71.4582 107.507 71.0489 108.58 70.742C109.142 70.5886 109.704 70.5374 110.164 70.2305C110.419 70.0771 110.624 69.8725 110.726 69.6167C110.879 69.5144 110.93 69.2075 110.93 68.9518Z" fill="#A86E4F"/>
<path d="M136.376 58.7225C138.471 60.9731 134.639 64.2467 132.544 64.9116C130.449 65.5766 129.989 64.2467 129.989 64.2467C129.989 64.2467 128.967 65.2697 127.128 67.9295C125.237 70.5893 122.887 70.9474 118.033 71.7146C113.179 72.4819 111.339 70.4359 111.135 69.5663C110.931 68.6967 110.726 67.776 110.113 60.4104C109.5 53.0448 112.463 52.8913 114.098 47.6229L117.062 40.871L125.85 37.4951L132.39 40.7176L136.836 45.4745L138.471 53.9143L136.376 58.7225Z" fill="#FFDECC"/>
<path d="M136.376 58.7226C136.682 59.0806 136.938 59.4898 136.989 60.0013C137.04 60.4617 136.938 60.9732 136.733 61.3824C136.325 62.252 135.712 62.9681 134.996 63.5819C134.281 64.1957 133.463 64.7072 132.544 65.0141C132.084 65.1675 131.624 65.2187 131.113 65.1675C130.602 65.1164 130.142 64.8095 129.938 64.298L130.142 64.3491C129.529 65.0141 128.916 65.7813 128.354 66.5486C127.792 67.3158 127.281 68.0831 126.668 68.8503C126.004 69.5664 125.186 70.1291 124.317 70.5383C123.449 70.8964 122.478 71.1521 121.558 71.3567C120.639 71.5613 119.668 71.7148 118.748 71.8682C117.828 72.0217 116.858 72.1751 115.887 72.124C114.916 72.124 113.945 71.9705 113.025 71.5613C112.566 71.3567 112.157 71.101 111.748 70.794C111.39 70.4871 111.033 70.0268 110.931 69.5153C110.726 68.5434 110.624 67.6227 110.522 66.6509L110.266 63.8376C110.113 61.9451 109.858 60.0525 109.909 58.1088C109.96 57.1369 110.062 56.1651 110.317 55.2444C110.573 54.3237 110.982 53.403 111.493 52.5846C112.004 51.7662 112.514 50.9989 112.923 50.1294C113.383 49.311 113.69 48.4414 113.996 47.5207L116.96 40.7689C116.96 40.7177 117.011 40.6666 117.062 40.6666L125.85 37.3418C125.901 37.3418 125.952 37.3418 126.004 37.3418L132.493 40.6154C132.493 40.6154 132.544 40.6154 132.544 40.6666L136.938 45.4747L136.989 45.5258L138.522 53.9656L136.376 58.7226ZM136.376 58.7226L138.42 53.9656L136.733 45.5258L136.785 45.577L132.339 40.82L132.39 40.8712L125.85 37.6998H126.004L117.215 41.0758L117.317 40.9735L114.354 47.7253V47.6741C114.047 48.5948 113.69 49.5156 113.281 50.334C112.821 51.2035 112.31 51.9708 111.85 52.7892C111.39 53.6076 110.982 54.426 110.726 55.3467C110.471 56.2162 110.368 57.1881 110.317 58.1088C110.266 59.9502 110.522 61.8428 110.675 63.7353L110.931 66.5486C111.033 67.4693 111.135 68.4411 111.339 69.3107C111.39 69.7199 111.697 70.0779 112.004 70.3848C112.31 70.6917 112.719 70.8963 113.128 71.101C113.945 71.459 114.916 71.6125 115.836 71.6125C116.755 71.6125 117.675 71.5102 118.646 71.3567C119.566 71.2033 120.536 71.0498 121.456 70.8963C122.376 70.6917 123.295 70.4871 124.164 70.1291C125.033 69.771 125.799 69.2595 126.412 68.5434C127.025 67.8785 127.536 67.0601 128.15 66.2928C128.712 65.5256 129.325 64.8095 129.989 64.0934C130.04 64.0422 130.091 64.0422 130.142 64.0934C130.142 64.0934 130.142 64.1445 130.193 64.1445C130.347 64.5026 130.755 64.8095 131.164 64.8606C131.624 64.9118 132.084 64.8606 132.493 64.7583C133.361 64.5026 134.179 63.9911 134.894 63.3773C135.609 62.7635 136.274 62.0985 136.682 61.229C136.887 60.8198 136.989 60.3594 136.938 59.899C136.938 59.4898 136.682 59.0806 136.376 58.7226Z" fill="#A86E4F"/>
<path d="M115.272 45.6273C115.272 45.6273 118.236 43.7347 119.564 44.8601C120.893 45.9854 121.25 49.4124 125.593 49.6682C129.936 49.9239 131.827 49.7705 132.236 53.4533L133.973 48.4406L127.79 43.6836L122.783 41.3818L118.951 41.8422L115.936 44.6043L115.272 45.6273Z" fill="#F8CAB1"/>
<path d="M146.388 133.862C146.388 133.862 139.235 159.181 141.636 163.222H78.6871L82.5193 138.977L95.3441 118.772L128.965 114.476L146.388 133.862Z" fill="#1386FC"/>
<path d="M146.389 133.861C145.724 136.265 145.162 138.721 144.6 141.125C144.038 143.58 143.476 145.984 143.016 148.439C142.505 150.894 142.097 153.35 141.79 155.805C141.637 157.032 141.535 158.26 141.484 159.539C141.484 160.153 141.484 160.766 141.535 161.38C141.586 161.994 141.688 162.608 141.943 163.068L142.199 163.477H141.739L110.265 163.631L78.7901 163.682H78.228L78.3302 163.119L80.2207 150.997L82.1623 138.874V138.772L82.2134 138.67L95.0383 118.465L95.1404 118.312H95.3448L129.016 114.22H129.17L129.272 114.322L146.389 133.861ZM146.389 133.861L128.761 114.629L128.965 114.731L95.3448 119.181L95.6514 118.977L82.8777 139.232L82.9288 139.028L81.0382 151.15L79.0966 163.273L78.5857 162.71L110.06 162.761L141.535 162.915L141.279 163.324C140.921 162.71 140.87 162.045 140.819 161.38C140.768 160.715 140.768 160.101 140.819 159.488C140.87 158.209 141.024 156.981 141.177 155.754C141.535 153.247 142.046 150.792 142.557 148.388C143.732 143.478 145.009 138.67 146.389 133.861Z" fill="#2F353B"/>
<path d="M129.274 73.6582C129.274 73.6582 134.537 75.0393 138.164 75.1416C141.792 75.295 149.865 75.3973 152.215 81.6888L147.821 86.9061L125.953 83.8371L125.85 79.6428L126.719 77.9037C126.77 77.9037 129.427 77.2899 129.274 73.6582Z" fill="#1386FC" stroke="#2F353B" stroke-width="2.1685" stroke-miterlimit="10"/>
<path d="M52.8365 121.279L125.442 128.9L128.099 85.4739L63.311 76.7783L52.8365 121.279Z" fill="#FFB230"/>
<path d="M52.8365 121.279L89.2161 124.962L125.442 128.696L125.238 128.9L127.844 85.4736L128.048 85.7294L63.311 76.9315L63.4643 76.8292L58.2015 99.0284L52.8365 121.279ZM52.8365 121.279L57.946 99.0796L63.1577 76.7781C63.1577 76.6758 63.2599 76.6758 63.311 76.6758L128.099 85.269C128.253 85.269 128.304 85.4225 128.304 85.5248L125.596 128.951C125.596 129.054 125.494 129.156 125.391 129.156L89.0629 125.268L52.8365 121.279Z" fill="#2F353B"/>
<path d="M63.3076 76.7783L67.4463 66.0879L126.052 74.0162L128.096 85.4738L63.3076 76.7783Z" fill="#DCDFE3"/>
<path d="M63.3076 76.778L67.3441 66.0365C67.3441 65.9854 67.3952 65.9854 67.4463 65.9854C72.3514 66.5992 77.2054 67.2641 82.1105 67.8779L96.7748 69.8216L126.103 73.709C126.205 73.709 126.308 73.8113 126.308 73.9136L128.3 85.3201C128.3 85.4736 128.249 85.5759 128.096 85.5759H128.045L95.5996 81.1258L63.3076 76.778ZM63.3076 76.778L95.804 80.9724L128.147 85.2178L127.892 85.4736L125.848 74.0671L126.052 74.2717L96.7237 70.2308L82.0595 68.236C77.1543 67.571 72.3003 66.9061 67.3952 66.19L67.4974 66.1388L63.3076 76.778Z" fill="#2F353B"/>
<path d="M52.834 121.279L47.3668 150.026L123.754 158.005L125.44 128.901L52.834 121.279Z" fill="#DCDFE3"/>
<path d="M52.8325 121.279L47.4675 150.077L47.3653 149.923L123.803 157.749L123.548 158.005L125.234 128.901L125.438 129.105L89.2121 125.218L52.8325 121.279ZM52.8325 121.279L89.0588 124.962L125.387 128.696C125.489 128.696 125.592 128.798 125.592 128.901L124.008 158.005C124.008 158.159 123.906 158.261 123.752 158.261L47.3142 150.179C47.2631 150.179 47.212 150.128 47.212 150.026L52.8325 121.279Z" fill="#2F353B"/>
<path d="M52.8354 121.279L22.9448 123.376L36.3317 80.41L63.3098 76.7783L52.8354 121.279Z" fill="#DCDFE3"/>
<path d="M52.8345 121.279L37.9147 122.404C32.9585 122.814 27.9512 123.172 22.9439 123.53C22.8417 123.53 22.7906 123.479 22.7906 123.376V123.325L36.0753 80.3078C36.1264 80.2055 36.1775 80.1544 36.2797 80.1544L63.2578 76.625C63.36 76.625 63.4622 76.6762 63.4622 76.7785V76.8296L58.1483 99.08L52.8345 121.279ZM52.8345 121.279L57.944 98.9777L63.1045 76.7785L63.3089 77.0342L36.3308 80.717L36.5352 80.5636L23.0461 123.53L22.8928 123.325C27.849 123.018 32.8053 122.66 37.8126 122.353L52.8345 121.279Z" fill="#2F353B"/>
<path d="M63.308 76.7783L62.5416 106.65L120.534 113.351L128.096 85.4739L63.308 76.7783Z" fill="#ADB4BD"/>
<path d="M63.3065 76.7783L62.6933 106.599L62.5912 106.445L120.584 113.095L120.328 113.3L127.89 85.4227L128.044 85.6785L95.7007 81.2795L63.3065 76.7783ZM63.3065 76.7783L95.6496 80.9726L128.095 85.2181C128.197 85.2181 128.299 85.3204 128.248 85.4739V85.525L120.788 113.402C120.737 113.504 120.635 113.606 120.533 113.606L62.5401 106.752C62.489 106.752 62.4379 106.701 62.4379 106.599L63.3065 76.7783Z" fill="#2F353B"/>
<path d="M62.5419 106.649L59.4762 121.994L52.8339 121.278L63.3083 76.7773L62.5419 106.649Z" fill="#ADB4BD"/>
<path d="M62.5397 106.649L59.5251 121.994C59.5251 122.046 59.474 122.046 59.474 122.046L52.8827 121.381C52.8316 121.381 52.7805 121.329 52.7805 121.278L55.2842 110.128L57.8389 98.9768C58.7075 95.2429 59.5761 91.5601 60.4448 87.8772C61.3134 84.1944 62.2331 80.4605 63.1017 76.7776C63.1017 76.6753 63.2039 76.6242 63.3061 76.6753C63.4083 76.6753 63.4594 76.7776 63.4594 76.8288L62.9484 91.7647L62.5397 106.649ZM62.5397 106.649L62.8462 91.7135L63.1528 76.7776L63.5105 76.8288C62.6929 80.5628 61.8243 84.2456 60.9557 87.9795C60.0871 91.7135 59.2696 95.3963 58.3499 99.0791L55.6929 110.179L52.9338 121.329L52.8316 121.176L59.4229 121.943L59.3718 121.994L62.5397 106.649Z" fill="#2F353B"/>
<path d="M128.096 85.4736L120.534 113.35L119.461 128.286L125.44 128.9L128.096 85.4736Z" fill="#ADB4BD"/>
<path d="M128.097 85.4736C126.82 90.1795 125.593 94.8853 124.418 99.5399C123.192 104.195 122.017 108.798 120.79 113.402V113.351L119.717 128.286L119.513 128.031L125.491 128.644L125.236 128.9C125.696 121.688 126.155 114.527 126.666 107.315L127.433 96.4198L128.097 85.4736ZM128.097 85.4736L127.484 96.2152L126.922 107.059C126.564 114.322 126.104 121.637 125.696 128.9C125.696 129.054 125.593 129.156 125.44 129.156L119.462 128.542C119.309 128.542 119.206 128.389 119.258 128.286L120.382 113.351V113.299C121.659 108.645 122.987 103.939 124.265 99.2842C125.542 94.6295 126.82 90.0772 128.097 85.4736Z" fill="#2F353B"/>
<path d="M59.478 121.995L119.463 128.287L120.536 113.351L62.5437 106.65L59.478 121.995Z" fill="#959FAA"/>
<path d="M59.4788 121.995L89.5737 125.013L119.515 128.082L119.26 128.287L120.333 113.351L120.537 113.607L91.5153 110.18L77.0043 108.492L62.4934 106.752L62.5955 106.65L59.4788 121.995ZM59.4788 121.995L62.4934 106.65C62.4934 106.599 62.5445 106.548 62.5955 106.548L77.1065 108.185L91.6175 109.821L120.639 113.095C120.793 113.095 120.895 113.249 120.844 113.351L119.72 128.287C119.72 128.389 119.617 128.491 119.464 128.491L89.4204 125.269L59.4788 121.995Z" fill="#2F353B"/>
<path d="M125.438 128.9L154.716 135.805L153.336 89.0535L127.329 81.2275L128.095 85.473L125.438 128.9Z" fill="#DCDFE3"/>
<path d="M125.438 128.9L140.153 132.276L154.767 135.652L154.562 135.805L153.08 89.054L153.285 89.3098L127.329 81.4326L127.584 81.228L128.299 85.4735V85.5247L126.92 107.212L125.438 128.9ZM125.438 128.9L126.664 107.212L127.942 85.4224V85.4735L127.175 81.228C127.175 81.1257 127.226 81.0234 127.329 81.0234C127.38 81.0234 127.38 81.0234 127.431 81.0234L153.438 88.7471C153.54 88.7983 153.591 88.9006 153.643 89.0029L154.92 135.754C154.92 135.856 154.869 135.908 154.767 135.908H154.716L140.051 132.378L125.438 128.9Z" fill="#2F353B"/>
<path d="M169.534 96.8288C166.11 97.2892 157.322 96.88 155.943 96.6242C152.928 96.1127 150.629 94.6805 148.636 92.4299L146.592 89.2586L142.811 87.7241L144.242 82.9671C143.731 81.0234 143.527 77.4429 140.716 76.9314C140.716 76.9314 141.534 76.0107 146.694 76.7268C148.381 76.9314 153.439 76.3176 155.381 77.6986C157.322 79.0797 158.753 78.0055 161.052 78.5682C163.351 79.1309 166.366 78.5171 169.329 79.4889C172.293 80.4608 173.11 82.4045 173.519 83.2229C173.877 84.0924 176.738 87.1103 176.738 90.435C176.738 93.7598 175.665 97.903 174.541 98.8748C170.862 102.251 169.636 104.553 164.118 105.166C158.6 105.78 153.643 104.348 153.643 104.348L153.694 96.0104" fill="#1386FC"/>
<path d="M169.534 96.8289C167.694 97.1358 165.855 97.1358 163.964 97.1869C162.125 97.1869 160.234 97.1869 158.395 97.1358C157.935 97.1358 157.475 97.0846 157.015 97.0846C156.556 97.0335 156.096 97.0335 155.585 96.9312C154.665 96.7777 153.745 96.4708 152.877 96.1128C151.139 95.3455 149.607 94.1691 148.329 92.7369L146.234 89.5656L146.439 89.719L142.658 88.1845L142.3 88.031L142.402 87.673L143.833 82.8649V83.1206C143.68 82.5068 143.526 81.893 143.424 81.2792C143.271 80.6654 143.118 80.1028 142.913 79.5401C142.709 78.9775 142.402 78.5171 142.045 78.1079C141.687 77.6987 141.176 77.4941 140.665 77.3918L139.796 77.2383L140.41 76.6245C140.563 76.5222 140.563 76.5222 140.665 76.4711C140.716 76.4199 140.767 76.4199 140.818 76.3688C140.92 76.3176 141.023 76.2665 141.125 76.2665C141.329 76.2153 141.534 76.1642 141.738 76.113C142.147 76.0619 142.556 76.0107 142.964 76.0107C143.782 76.0107 144.548 76.0107 145.366 76.113C145.774 76.1642 146.132 76.2153 146.541 76.2153C146.745 76.2153 146.899 76.2665 147.103 76.2665C147.307 76.2665 147.461 76.2665 147.665 76.2665H150.015C150.782 76.2665 151.599 76.2665 152.417 76.3688C153.234 76.4199 154.001 76.5734 154.818 76.8291C155.023 76.8803 155.227 76.9826 155.431 77.0849C155.534 77.136 155.636 77.1872 155.738 77.2895L155.942 77.443C156.249 77.6476 156.556 77.7498 156.862 77.8521C157.526 78.0056 158.242 77.9545 159.059 77.9545C159.468 77.9545 159.877 77.9545 160.285 78.0056C160.49 78.0056 160.694 78.0568 160.899 78.1079L161.461 78.2102C162.176 78.3637 162.942 78.4148 163.709 78.4148C165.242 78.466 166.877 78.466 168.461 78.824C170.045 79.1821 171.629 79.847 172.753 81.1258C173.008 81.4327 173.264 81.7907 173.468 82.1488C173.57 82.3534 173.672 82.5068 173.774 82.7114C173.877 82.8649 173.928 83.1206 174.03 83.2229C174.388 83.8367 174.899 84.5017 175.307 85.1666C176.176 86.4965 176.891 87.9799 177.147 89.6679C177.249 90.4863 177.198 91.3047 177.147 92.1231C177.096 92.9415 176.942 93.7087 176.789 94.476C176.636 95.2432 176.431 96.0105 176.176 96.7777C175.92 97.545 175.614 98.3122 175.103 98.9772C175.052 99.0795 174.95 99.1306 174.847 99.2329L174.643 99.4376L174.234 99.8467L173.366 100.665C172.804 101.228 172.242 101.739 171.68 102.302C170.556 103.376 169.176 104.348 167.643 104.859C166.11 105.371 164.526 105.627 162.993 105.678C159.826 105.831 156.709 105.422 153.694 104.604H153.592V104.501L153.745 96.1639L153.847 104.501L153.745 104.399C156.76 105.115 159.877 105.422 162.993 105.166C164.526 105.064 166.059 104.808 167.49 104.297C168.92 103.734 170.147 102.865 171.271 101.79C171.833 101.279 172.395 100.716 172.957 100.154L173.774 99.3352L174.183 98.926L174.388 98.7214C174.439 98.6703 174.49 98.6191 174.541 98.568C174.95 98.0053 175.205 97.2892 175.461 96.5731C175.665 95.857 175.869 95.0898 176.023 94.3737C176.176 93.6064 176.278 92.8392 176.329 92.1231C176.38 91.3558 176.431 90.5886 176.329 89.8725C176.125 88.4402 175.461 87.0592 174.592 85.7804C174.183 85.1155 173.723 84.5528 173.264 83.8367C173.11 83.581 173.11 83.4787 173.008 83.2741C172.906 83.1206 172.855 82.9672 172.753 82.8137C172.548 82.5068 172.344 82.1999 172.139 81.9442C171.169 80.87 169.789 80.2562 168.307 79.9493C166.826 79.6424 165.293 79.6424 163.76 79.5913C162.993 79.5401 162.176 79.5401 161.358 79.3867L160.796 79.2844C160.643 79.2332 160.439 79.2332 160.285 79.2332C159.928 79.1821 159.57 79.1821 159.161 79.2332C158.395 79.2844 157.577 79.3355 156.709 79.1309C156.3 79.0286 155.891 78.824 155.483 78.6194L155.227 78.466C155.176 78.4148 155.125 78.3637 155.023 78.3637C154.869 78.2614 154.716 78.2102 154.563 78.1591C153.899 77.9033 153.132 77.801 152.417 77.7499C151.65 77.6987 150.884 77.6475 150.118 77.6475H147.767C147.563 77.6475 147.358 77.6475 147.154 77.6475C146.95 77.6475 146.745 77.5964 146.541 77.5964C146.183 77.5452 145.774 77.4941 145.417 77.4941C144.65 77.4429 143.884 77.3918 143.118 77.3918C142.76 77.3918 142.351 77.4429 141.993 77.4941C141.84 77.5452 141.636 77.5452 141.483 77.5964C141.431 77.6475 141.329 77.6476 141.278 77.6987C141.227 77.6987 141.227 77.7499 141.176 77.7499C141.176 77.7499 141.125 77.801 141.176 77.7499L140.92 76.9826C141.636 77.0849 142.3 77.443 142.76 77.9545C143.271 78.466 143.577 79.0798 143.833 79.6936C144.293 80.9212 144.497 82.1999 144.804 83.3764L144.855 83.4787L144.804 83.581L143.322 88.3379L143.066 87.8264L146.847 89.4121L146.95 89.4633L147.001 89.5656L148.993 92.7369L148.942 92.6857C150.118 94.0668 151.548 95.2432 153.183 95.9593C154.001 96.3174 154.869 96.6243 155.738 96.7777C156.607 96.9312 157.526 96.9823 158.446 97.0846C160.285 97.2381 162.125 97.3404 163.964 97.3915C164.884 97.3915 165.804 97.4427 166.723 97.4427C167.694 96.9312 168.614 96.9312 169.534 96.8289Z" fill="#2F353B"/>
<path d="M119.206 86.2412L116.651 89.0033L117.213 92.0723H118.286L118.082 93.0442L122.221 94.2718L126.666 89.924L126.41 86.2412H119.206Z" fill="#FFDECC"/>
<path d="M124.879 90.2315C124.879 90.2315 123.703 91.4079 122.63 92.4309C121.557 93.4539 121.098 93.6585 121.762 95.2442C122.426 96.8298 124.317 96.3695 124.623 96.3183C124.93 96.2672 125.594 95.4488 125.696 95.1419C125.952 94.5792 126.463 93.8631 126.922 93.4028C127.382 92.9424 131.674 91.2545 133.922 90.4872C136.171 89.72 138.521 87.367 138.521 87.367C139.594 87.4693 144.244 86.1394 144.244 86.1394L143.63 84.1446L140.82 76.4209L140.054 76.5232C139.594 76.6255 135.762 77.4951 135.353 77.6997C133.565 78.7738 129.937 79.0807 127.536 79.3876C124.879 79.6945 120.587 80.9221 119.207 81.6894C117.828 82.4566 112.871 85.8325 112.054 86.7021C111.236 87.5716 108.222 89.8734 107.302 91.4591C106.74 92.3798 107.711 93.4539 108.682 93.4539C109.652 93.4539 116.55 87.2647 117.419 86.9067" fill="#FFDECC"/>
<path d="M124.879 90.2311L122.528 92.584C122.324 92.7886 122.12 92.9421 121.915 93.1467C121.711 93.3513 121.558 93.5559 121.506 93.8628C121.455 94.1185 121.506 94.3743 121.609 94.6812C121.711 94.9369 121.762 95.1927 121.915 95.4484C122.426 96.4203 123.857 96.5226 124.725 96.1134C124.93 95.9599 125.083 95.7553 125.287 95.4996C125.39 95.3973 125.441 95.295 125.492 95.1415C125.543 95.0392 125.594 94.8858 125.645 94.7835C125.901 94.272 126.258 93.8116 126.667 93.4024C126.871 93.1467 127.178 93.0444 127.382 92.8909C127.638 92.7375 127.893 92.6352 128.149 92.5329C128.66 92.2771 129.171 92.0725 129.682 91.8679C130.704 91.4587 131.725 91.0495 132.798 90.6403C133.309 90.4357 133.871 90.2823 134.331 90.0777C134.842 89.8731 135.302 89.5662 135.762 89.2593C136.682 88.6455 137.55 87.9294 138.317 87.1621C138.368 87.111 138.419 87.111 138.47 87.111C138.879 87.111 139.39 87.0087 139.85 86.9575C140.309 86.8552 140.82 86.7529 141.28 86.6506C142.251 86.3949 143.171 86.1391 144.141 85.8833L143.988 86.1902C143.733 85.3718 143.477 84.5534 143.222 83.735L142.353 81.331L140.565 76.4717L140.82 76.6252L140.054 76.7275L139.287 76.8809L137.704 77.239C137.193 77.3413 136.682 77.4947 136.171 77.6482C135.915 77.6993 135.66 77.8016 135.455 77.9039C135.2 78.0574 134.944 78.1597 134.689 78.262C133.667 78.6712 132.594 78.8758 131.521 79.0804C130.448 79.2338 129.375 79.3873 128.302 79.4896C126.156 79.6942 124.061 80.1545 122.017 80.7683C120.995 81.0752 119.974 81.4333 119.054 81.9448C118.134 82.5074 117.266 83.1212 116.346 83.6839C115.426 84.2977 114.558 84.9115 113.689 85.5253C113.229 85.8322 112.82 86.1391 112.412 86.4971C112.309 86.5994 112.207 86.6506 112.105 86.7529C112.003 86.8552 111.901 86.9575 111.798 87.0598L111.185 87.6225C110.368 88.3386 109.55 89.0035 108.784 89.7708C108.426 90.1288 108.017 90.538 107.711 90.9472C107.558 91.1518 107.404 91.3564 107.302 91.6122C107.2 91.8168 107.2 92.0725 107.251 92.3283C107.404 92.7886 107.813 93.1467 108.324 93.3001C108.426 93.3513 108.579 93.3513 108.682 93.3513C108.784 93.3513 108.886 93.3001 109.039 93.1978C109.295 93.0955 109.499 92.9421 109.704 92.7886C110.572 92.1748 111.441 91.5099 112.309 90.8449L114.813 88.7989L116.09 87.7759C116.499 87.469 116.908 87.111 117.419 86.8552C116.959 87.111 116.55 87.469 116.141 87.8271L114.915 88.8501L112.412 90.9472C111.594 91.6122 110.725 92.3283 109.857 92.9421C109.652 93.0955 109.397 93.249 109.141 93.4024C109.039 93.4536 108.886 93.5559 108.733 93.5559C108.579 93.5559 108.426 93.5559 108.273 93.5047C107.711 93.3513 107.2 92.9421 107.047 92.3794C106.944 92.0725 106.944 91.7656 107.098 91.5099C107.2 91.2541 107.404 90.9984 107.558 90.7938C107.915 90.3334 108.273 89.9754 108.631 89.5662C109.397 88.7989 110.214 88.0828 111.032 87.3667L111.645 86.8041C111.747 86.7017 111.849 86.5994 111.901 86.5483C112.003 86.446 112.105 86.3437 112.207 86.2414C112.616 85.8833 113.076 85.5764 113.485 85.2184C114.353 84.5534 115.222 83.9396 116.141 83.3258C117.01 82.712 117.93 82.0982 118.849 81.5356C119.309 81.2287 119.82 81.0241 120.331 80.8195C120.842 80.6149 121.353 80.4614 121.864 80.308C123.959 79.6942 126.054 79.1827 128.2 78.9781C129.273 78.8758 130.346 78.7223 131.368 78.5689C132.441 78.3643 133.463 78.1597 134.433 77.7505C134.689 77.6482 134.893 77.5459 135.098 77.3924C135.404 77.239 135.66 77.1878 135.915 77.0855C136.426 76.9321 136.988 76.8298 137.499 76.6763L139.083 76.3183L139.901 76.1648L140.718 76.0625C140.82 76.0625 140.974 76.1137 140.974 76.216L142.711 81.0752L143.579 83.4793C143.886 84.2977 144.09 85.1161 144.346 85.9345C144.397 86.0368 144.295 86.1902 144.193 86.2414C143.222 86.4971 142.302 86.7529 141.331 87.0087C140.871 87.111 140.36 87.2133 139.901 87.3156C139.39 87.4179 138.93 87.5202 138.368 87.469L138.521 87.4179C137.704 88.1851 136.835 88.9012 135.864 89.515C135.404 89.8219 134.893 90.0777 134.382 90.3334C133.871 90.538 133.309 90.6915 132.798 90.8961C131.777 91.2541 130.704 91.6633 129.682 92.0725C129.171 92.2771 128.66 92.4817 128.149 92.7375C127.893 92.8398 127.638 92.9421 127.382 93.0955C127.127 93.249 126.871 93.3513 126.718 93.5047C126.36 93.9139 126.003 94.3231 125.747 94.7835C125.696 94.8858 125.645 94.9881 125.543 95.1415C125.492 95.295 125.39 95.3973 125.287 95.4996C125.134 95.7042 124.93 95.9599 124.674 96.1134C124.623 96.1645 124.572 96.2157 124.47 96.2157C124.368 96.2668 124.317 96.2668 124.266 96.2668C124.112 96.2668 124.01 96.318 123.857 96.318C123.55 96.318 123.295 96.318 122.988 96.2668C122.426 96.1645 121.864 95.8065 121.609 95.295C121.455 95.0392 121.404 94.7835 121.302 94.4766C121.251 94.2208 121.2 93.9139 121.251 93.607C121.302 93.3001 121.506 93.0955 121.711 92.8909C121.915 92.6863 122.12 92.4817 122.324 92.3283L124.879 90.2311Z" fill="#A86E4F"/>
<path d="M121.455 94.0667C121.455 94.0667 118.083 94.4248 117.776 93.0949C117.47 91.765 121.199 87.9287 121.199 87.9287" fill="#FFDECC"/>
<path d="M121.456 94.0664C120.587 94.2198 119.718 94.3221 118.85 94.1175C118.645 94.0664 118.39 94.0152 118.186 93.8618C118.083 93.8106 117.981 93.7083 117.879 93.6572C117.777 93.5549 117.675 93.4526 117.624 93.3503C117.572 93.2991 117.572 93.1968 117.521 93.1457C117.521 93.0945 117.47 92.9922 117.47 92.9411C117.47 92.7876 117.47 92.6853 117.521 92.583C117.572 92.3273 117.675 92.1227 117.777 91.9181C118.186 91.0997 118.748 90.4347 119.31 89.7698C119.872 89.1048 120.485 88.491 121.149 87.9795L119.616 90.0255C119.105 90.7416 118.594 91.4066 118.237 92.1738C118.083 92.5319 117.879 92.9411 118.032 93.1968C118.134 93.5037 118.543 93.6572 118.901 93.8106C119.718 93.9641 120.587 94.0152 121.456 94.0664Z" fill="#A86E4F"/>
<path d="M117.777 92.0208C117.777 92.0208 115.938 92.2766 115.478 91.3559C115.018 90.4352 115.069 88.9007 118.492 85.8828" fill="#FFDECC"/>
<path d="M117.776 92.0208C117.419 92.1231 117.01 92.1231 116.601 92.1231C116.192 92.072 115.784 92.0208 115.426 91.6628C115.273 91.5093 115.17 91.3047 115.119 91.1001C115.068 90.8955 115.017 90.6909 115.017 90.4863C115.017 90.0771 115.119 89.6679 115.273 89.2587C115.63 88.5426 116.09 87.9288 116.652 87.3662C117.214 86.8035 117.827 86.3432 118.44 85.8828C117.93 86.4455 117.419 87.0081 116.959 87.6219C116.499 88.1846 116.039 88.7984 115.732 89.4633C115.579 89.7702 115.477 90.1283 115.477 90.4863C115.477 90.6398 115.477 90.8444 115.528 90.9978C115.579 91.1513 115.63 91.3047 115.732 91.407C115.937 91.6628 116.294 91.7651 116.652 91.8674C117.01 92.0208 117.419 92.0208 117.776 92.0208Z" fill="#A86E4F"/>
<path d="M108.63 93.0441C108.63 93.0441 107.353 92.8907 107.557 91.8676C107.557 91.8676 108.119 90.8958 108.783 90.5377C109.448 90.1797 110.469 90.9469 110.316 91.5607C110.163 92.1746 108.63 93.0441 108.63 93.0441Z" fill="#FFDECC"/>
<path d="M108.631 93.0437C108.324 93.0437 108.018 92.9414 107.762 92.7368C107.609 92.6345 107.507 92.4811 107.456 92.3276C107.405 92.1742 107.405 91.9696 107.405 91.8161C107.405 91.8161 107.405 91.8161 107.405 91.765C107.66 91.3046 107.967 90.8443 108.426 90.4862C108.529 90.3839 108.631 90.3328 108.835 90.2816C108.988 90.2305 109.142 90.2305 109.295 90.2305C109.602 90.2816 109.857 90.4351 110.061 90.6397C110.266 90.8443 110.47 91.1 110.419 91.4581C110.368 91.8161 110.113 91.9696 109.908 92.1742C109.551 92.5322 109.142 92.788 108.631 93.0437ZM108.631 93.0437C109.04 92.7368 109.448 92.3788 109.806 92.0207C109.959 91.8673 110.164 91.6115 110.164 91.4581C110.164 91.3046 110.061 91.1 109.857 90.9466C109.704 90.7931 109.499 90.6908 109.244 90.6397C109.142 90.6397 109.04 90.6397 108.937 90.6397C108.835 90.6908 108.733 90.742 108.682 90.7931C108.324 91.1 107.967 91.5092 107.711 91.9184V91.8673C107.711 92.0207 107.66 92.123 107.711 92.2765C107.762 92.3788 107.813 92.5322 107.915 92.6345C108.069 92.788 108.375 92.9414 108.631 93.0437Z" fill="#A86E4F"/>
<path d="M136.886 60.717C136.886 60.717 136.988 55.8577 132.338 60.3589C130.754 61.8934 130.397 57.8526 131.725 54.8347C133.054 51.8169 132.287 48.8501 129.477 49.0036C118.951 49.5151 122.886 44.042 119.002 43.8374C116.294 43.684 114.864 45.3719 113.229 49.8731C113.229 49.8731 112.309 46.2926 115.426 40.615C120.382 31.5614 134.535 33.7097 139.543 42.7121C139.492 42.7121 148.127 47.9806 136.886 60.717Z" fill="#2F353B"/>
<path d="M116.253 54.5298C116.432 53.9938 116.359 53.4869 116.092 53.3975C115.824 53.3081 115.462 53.6702 115.284 54.2062C115.105 54.7422 115.177 55.2492 115.445 55.3385C115.713 55.4279 116.075 55.0658 116.253 54.5298Z" fill="#2F353B"/>
<path d="M124.635 57.2391C124.717 56.6801 124.557 56.1937 124.278 56.1526C123.999 56.1115 123.706 56.5314 123.624 57.0904C123.542 57.6494 123.702 58.1358 123.981 58.1769C124.26 58.218 124.553 57.7981 124.635 57.2391Z" fill="#2F353B"/>
<path d="M118.951 52.5326C118.951 52.5326 117.418 49.924 114.251 51.8165C114.251 51.8677 116.141 51.7654 118.951 52.5326Z" fill="#2F353B"/>
<path d="M127.177 57.2382C127.177 57.2382 127.075 54.2204 123.345 54.3738C123.345 54.3738 125.082 55.1922 127.177 57.2382Z" fill="#2F353B"/>
<path d="M38.7839 163.836L42.8204 163.683L46.8569 163.58L54.9299 163.376C60.2949 163.273 65.6599 163.171 71.0248 163.069C76.3898 162.967 81.7548 162.967 87.1197 162.915L103.215 162.864L119.31 162.915C124.674 162.967 130.039 162.967 135.404 163.069C140.769 163.12 146.134 163.222 151.499 163.376L159.572 163.632L163.609 163.734L167.645 163.887L163.609 164.041L159.572 164.143L151.499 164.399C146.134 164.501 140.769 164.603 135.404 164.706C130.039 164.808 124.674 164.808 119.31 164.859L103.215 164.91L87.1197 164.859C81.7548 164.808 76.3898 164.808 71.0248 164.706C65.6599 164.655 60.2949 164.552 54.9299 164.399L46.8058 164.092L42.7693 163.99L38.7839 163.836Z" fill="#2F353B"/>
<path d="M119.769 56.0107C118.849 57.2383 117.776 58.3637 116.703 59.489C116.448 59.7447 116.141 60.0516 115.834 60.2562C115.579 60.4608 115.579 60.7166 115.783 60.9723C115.988 61.2281 116.345 61.3815 116.652 61.535C117.01 61.6884 117.367 61.7907 117.725 61.8419C117.316 61.8419 116.959 61.8419 116.55 61.7396C116.141 61.6373 115.783 61.535 115.426 61.1769C115.272 61.0235 115.119 60.7677 115.119 60.512C115.119 60.2562 115.272 60.0005 115.426 59.847L116.243 59.0286C117.418 58.0567 118.543 56.9826 119.769 56.0107Z" fill="#2F353B"/>
<path d="M114.557 57.1368C112.616 56.3184 111.696 54.0678 112.565 52.1241L113.178 50.6919C113.587 49.6689 114.762 49.2086 115.784 49.6689L119.156 51.1011C120.178 51.5103 120.638 52.6868 120.178 53.7098L119.565 55.142C118.696 57.0857 116.499 57.9553 114.557 57.1368Z" stroke="#2F353B" stroke-width="1.08425" stroke-miterlimit="10" stroke-linecap="round" stroke-linejoin="round"/>
<path d="M122.784 60.6661C120.842 59.8477 119.923 57.5971 120.791 55.6534L121.405 54.2212C121.813 53.1982 122.988 52.7379 124.01 53.1982L127.383 54.6304C128.405 55.0396 128.864 56.2161 128.405 57.2391L127.791 58.6713C126.974 60.5638 124.726 61.4845 122.784 60.6661Z" stroke="#2F353B" stroke-width="1.08425" stroke-miterlimit="10" stroke-linecap="round" stroke-linejoin="round"/>
<path d="M119.768 54.6302C119.768 54.6302 120.688 54.4256 120.995 55.1929" stroke="#2F353B" stroke-width="1.08425" stroke-miterlimit="10" stroke-linecap="round" stroke-linejoin="round"/>
<path d="M127.79 58.6201L132.542 59.4897" stroke="#2F353B" stroke-width="1.08425" stroke-miterlimit="10" stroke-linecap="round" stroke-linejoin="round"/>
<path d="M110.112 57.2896C110.112 59.5402 110.572 66.5989 110.878 68.1334C111.134 69.5657 110.623 72.072 113.893 72.6347C117.163 73.1973 124.929 71.9186 126.615 68.5938C126.718 68.3892 130.039 64.246 130.039 64.246C130.039 64.246 125.491 67.6219 121.302 64.5018C117.112 61.3816 113.944 62.5069 112.718 61.7397C111.542 60.9724 110.316 58.5684 110.418 56.2666L110.112 57.2896Z" fill="#2F353B"/>
<path d="M113.637 64.3484C113.637 64.3484 116.6 62.6605 119.564 65.7807C120.279 66.5479 119.359 67.5709 118.082 67.0083C117.622 66.8037 116.396 65.8318 114.454 66.0364C112.921 66.0876 112.308 64.9623 113.637 64.3484Z" fill="#FFDECC"/>
<path d="M113.891 65.2182C114.197 64.9113 114.657 64.7578 115.117 64.7067C115.577 64.6555 116.037 64.7067 116.445 64.8601C116.854 65.0136 117.263 65.2182 117.621 65.4739C117.774 65.6274 117.978 65.7297 118.132 65.8831C118.285 66.0366 118.438 66.19 118.54 66.3946C118.336 66.2923 118.132 66.19 117.978 66.0877C117.774 65.9854 117.621 65.8831 117.416 65.7808C117.059 65.6274 116.701 65.4228 116.292 65.3205C115.526 65.1159 114.708 65.0136 113.891 65.2182Z" fill="#2F353B"/>
<path d="M124.062 66.0878C124.062 66.0878 129.631 67.2643 130.959 59.1826L133.105 58.1084L132.697 60.0521C132.697 60.0521 130.295 64.3487 129.273 65.2694C128.251 66.139 123.397 70.3333 123.397 70.3333L124.062 66.0878Z" fill="#2F353B"/>
<path d="M133.361 63.3763C133.821 63.1717 134.281 63.0182 134.69 62.7625C135.099 62.5067 135.507 62.1998 135.661 61.7906C136.018 60.9722 135.507 59.8981 134.741 59.54C134.639 59.4889 134.588 59.54 134.588 59.54C134.537 59.5912 134.486 59.6935 134.486 59.7958C134.434 60.0004 134.383 60.2561 134.332 60.5119C134.281 60.9722 134.23 61.4837 134.128 61.9952C134.077 62.0975 134.077 62.251 133.975 62.4044C133.924 62.4556 133.872 62.5067 133.821 62.5067H133.719C133.668 62.5067 133.617 62.5579 133.515 62.5579C133.361 62.5579 133.259 62.609 133.106 62.5579C132.953 62.5067 132.799 62.4044 132.799 62.251C132.748 62.0975 132.748 61.9952 132.697 61.9952C132.646 61.9441 132.493 61.9952 132.391 61.9952C132.186 62.0975 131.931 62.1998 131.726 62.3021C131.931 62.1487 132.135 61.9952 132.34 61.8929C132.442 61.8418 132.595 61.7906 132.748 61.8418C132.851 61.8929 132.902 61.9441 132.902 61.9952C132.953 62.0975 132.953 62.0975 132.953 62.1487C133.004 62.3533 133.259 62.3533 133.464 62.3021L133.617 62.251L133.719 62.1998C133.77 62.1998 133.719 62.1998 133.719 62.1998C133.77 62.1487 133.77 61.9952 133.821 61.8929C133.872 61.4326 133.924 60.9211 133.975 60.4607C134.026 60.205 134.026 59.9492 134.128 59.6935C134.179 59.5912 134.179 59.4377 134.332 59.2843C134.486 59.1308 134.741 59.1308 134.894 59.182C135.201 59.2843 135.405 59.4889 135.559 59.6935C135.712 59.8981 135.865 60.1027 135.967 60.3584C136.172 60.8699 136.172 61.4326 135.916 61.9441C135.661 62.4044 135.201 62.7113 134.741 62.9671C134.332 63.1717 133.821 63.274 133.361 63.3763Z" fill="#A86E4F"/>
<path d="M130.397 64.9111C130.397 64.9111 130.755 65.1157 131.01 65.1669C131.01 65.1669 129.579 66.906 129.017 69.5658C128.558 71.7653 128.915 73.044 128.915 73.1975C128.915 73.3509 129.592 75.9194 126.935 77.2493C126.935 77.2493 128.047 76.3688 128.047 75.2946C128.098 74.1693 127.28 68.4405 130.397 64.9111Z" fill="#F8CAB1"/>
<path d="M124.624 96.3173C124.624 96.3173 123.857 94.0156 127.485 92.0719C131.113 90.1282 134.536 89.4121 135.66 87.9287C136.784 86.4453 139.492 85.8827 141.332 85.9338L140.77 87.008C140.77 87.008 139.441 87.366 138.522 87.366C138.522 87.366 136.631 89.1052 136.12 89.3609C135.609 89.6167 130.755 91.6627 130.04 91.9696C129.325 92.2765 126.923 92.788 126.054 94.4759C125.186 96.1639 124.624 96.3173 124.624 96.3173Z" fill="#F8CAB1"/>
<path d="M124.878 90.2303L122.527 92.5832C122.323 92.7878 122.118 92.9412 121.914 93.1458C121.71 93.3504 121.556 93.555 121.505 93.8108C121.454 94.0665 121.505 94.3223 121.607 94.6292C121.71 94.8849 121.761 95.1407 121.914 95.3964C122.425 96.3683 123.856 96.4706 124.724 96.0614C124.929 95.9079 125.082 95.7033 125.286 95.4476C125.388 95.3453 125.44 95.243 125.491 95.0895C125.542 94.9872 125.593 94.8338 125.644 94.7315C125.899 94.22 126.257 93.7596 126.666 93.3504C126.768 93.2481 126.87 93.1458 127.023 93.0435C127.126 92.9412 127.279 92.8901 127.381 92.8389C127.637 92.7366 127.892 92.5832 128.148 92.4809C128.659 92.2251 129.169 92.0205 129.68 91.8159C130.702 91.4067 131.724 90.9975 132.797 90.5883C133.308 90.3837 133.87 90.2302 134.33 90.0256C134.841 89.821 135.301 89.5141 135.761 89.2072C136.68 88.5934 137.549 87.8773 138.315 87.1101C138.367 87.0589 138.418 87.0589 138.469 87.0589C138.878 87.0589 139.388 86.9566 139.848 86.9055C140.308 86.8032 140.819 86.7009 141.279 86.5986C142.25 86.3428 143.169 86.0871 144.14 85.8313L143.987 86.1382L143.374 84.1434V84.1945L139.797 76.5731L140.053 76.7266C139.031 76.9312 138.009 77.1869 136.987 77.4427C136.476 77.5961 135.914 77.6984 135.505 77.8519C135.454 77.8519 135.403 77.903 135.352 77.9542L135.148 78.0565C135.045 78.1076 134.892 78.1588 134.79 78.2099C134.534 78.3122 134.279 78.4145 134.024 78.5168C131.929 79.1306 129.834 79.3352 127.688 79.591C125.593 79.8468 123.549 80.3583 121.505 80.9721C120.483 81.279 119.513 81.637 118.644 82.2508C117.724 82.8135 116.856 83.3761 115.987 83.9899C115.118 84.6037 114.25 85.1664 113.381 85.8313C112.972 86.1382 112.513 86.4451 112.155 86.8032C111.797 87.2124 111.388 87.5193 110.98 87.8773C110.162 88.5934 109.396 89.2584 108.629 90.0256C108.272 90.3837 107.914 90.7929 107.607 91.2021C107.454 91.4067 107.301 91.6113 107.25 91.8671C107.199 92.0717 107.25 92.3274 107.352 92.532C107.556 92.9412 108.016 93.2993 108.476 93.3504C108.527 93.3504 108.578 93.3504 108.629 93.3504C108.68 93.3504 108.732 93.3504 108.783 93.2993C108.885 93.2481 108.987 93.197 109.14 93.1458C109.345 92.9924 109.6 92.8901 109.805 92.7366C110.673 92.1228 111.491 91.509 112.359 90.8441L114.863 88.8492L116.089 87.8773C116.498 87.5704 116.907 87.2124 117.367 86.9566C116.907 87.2124 116.498 87.5704 116.089 87.9285L114.863 88.9515L112.41 90.9975C111.593 91.6625 110.775 92.3274 109.907 92.9412C109.702 93.0947 109.447 93.2481 109.242 93.4016C109.14 93.4527 108.987 93.555 108.885 93.6062C108.834 93.6573 108.732 93.6573 108.68 93.6573C108.578 93.6573 108.527 93.6573 108.476 93.6573C107.914 93.6062 107.403 93.2481 107.148 92.6855C107.045 92.4297 106.943 92.1228 107.045 91.8159C107.096 91.509 107.301 91.3044 107.454 91.0487C107.761 90.5883 108.118 90.1791 108.527 89.821C109.294 89.0538 110.06 88.3377 110.877 87.6216C111.286 87.2635 111.695 86.9055 112.053 86.5474C112.461 86.1382 112.87 85.8313 113.279 85.5244C114.148 84.8595 115.016 84.2457 115.885 83.683C116.753 83.0692 117.622 82.5066 118.542 81.9439C119.002 81.637 119.461 81.3813 119.972 81.1767C120.483 80.9721 120.994 80.7675 121.505 80.614C123.549 79.9491 125.593 79.4375 127.739 79.1818C129.834 78.926 131.98 78.7726 133.972 78.1076C134.228 78.0053 134.483 77.9542 134.688 77.8519C134.79 77.8007 134.943 77.7496 135.045 77.6984L135.199 77.5961C135.25 77.545 135.301 77.545 135.403 77.4938C135.965 77.2892 136.476 77.1869 136.987 77.0335C138.009 76.7777 139.031 76.522 140.104 76.3174C140.206 76.3174 140.308 76.3685 140.359 76.4708L143.885 84.0922C143.885 84.0922 143.885 84.0922 143.885 84.1434L144.498 86.1382C144.549 86.2405 144.447 86.394 144.345 86.4451C143.374 86.7009 142.454 86.9566 141.483 87.2124C141.024 87.3147 140.513 87.417 140.053 87.5193C139.542 87.6216 139.082 87.7239 138.52 87.6727L138.673 87.6216C137.856 88.3888 136.987 89.1049 136.016 89.7187C135.556 90.0256 135.045 90.2814 134.534 90.5372C134.024 90.7418 133.461 90.8952 132.951 91.0998C131.929 91.4579 130.856 91.8671 129.834 92.2763C129.323 92.4809 128.812 92.6855 128.301 92.9412C128.045 93.0435 127.79 93.1458 127.534 93.2993C127.432 93.3504 127.279 93.4016 127.177 93.5039C127.075 93.555 126.972 93.6062 126.87 93.7596C126.513 94.1688 126.155 94.578 125.899 95.0384C125.848 95.1407 125.797 95.243 125.695 95.3964C125.644 95.5499 125.542 95.6522 125.44 95.7545C125.286 95.9591 125.082 96.2148 124.826 96.3683C124.775 96.4194 124.724 96.4706 124.622 96.4706C124.52 96.5217 124.469 96.5217 124.418 96.5217C124.264 96.5217 124.162 96.5729 124.009 96.5729C123.702 96.5729 123.447 96.5729 123.14 96.5217C122.834 96.4706 122.578 96.3683 122.323 96.2148C122.067 96.0614 121.914 95.8056 121.761 95.5499C121.607 95.2941 121.556 95.0384 121.454 94.7315C121.403 94.4757 121.352 94.1688 121.403 93.8619C121.454 93.555 121.659 93.3504 121.863 93.1458C122.067 92.9412 122.272 92.7366 122.476 92.5832L124.878 90.2303Z" fill="#A86E4F"/>
<path d="M140.922 87.0081C140.462 88.1845 146.031 89.2075 146.542 89.2587C147.104 89.3098 149.915 83.0695 147.871 77.8522C147.871 77.8522 147.309 74.7832 139.696 76.5734C139.696 76.5734 143.681 80.3074 140.922 87.0081Z" fill="#1386FC"/>
<path d="M140.923 87.0084C140.872 87.213 140.923 87.3665 141.076 87.5199C141.229 87.6734 141.383 87.7757 141.536 87.8268C141.894 88.0314 142.2 88.1337 142.609 88.2872C143.324 88.5429 144.091 88.6964 144.806 88.8498C145.164 88.9521 145.572 89.0033 145.93 89.0544C146.135 89.1056 146.288 89.1056 146.492 89.1056C146.543 89.1056 146.594 89.1056 146.543 89.1056L146.594 89.0544C146.645 89.0033 146.697 88.901 146.748 88.8498C147.105 88.236 147.361 87.4688 147.565 86.7527C147.974 85.3205 148.178 83.786 148.178 82.3026C148.178 80.8193 147.923 79.3359 147.412 78.006L147.361 77.9037C147.361 77.9037 147.31 77.8014 147.31 77.7502C147.259 77.6991 147.259 77.6479 147.208 77.5968C147.105 77.4945 147.003 77.3922 146.901 77.2899C146.697 77.0853 146.39 76.9318 146.083 76.8295C145.47 76.5738 144.755 76.5226 144.091 76.4715C143.375 76.4203 142.66 76.4715 141.945 76.5738C141.229 76.6249 140.514 76.7784 139.748 76.8807L139.901 76.318C140.565 77.0853 141.025 77.9037 141.332 78.7732C141.638 79.6428 141.843 80.6147 141.894 81.5354C141.894 82.4561 141.894 83.3768 141.689 84.2975C141.638 84.7578 141.485 85.2182 141.383 85.6274C141.281 86.1389 141.076 86.5992 140.923 87.0084ZM140.923 87.0084C141.076 86.5481 141.229 86.1389 141.383 85.6785C141.485 85.2182 141.638 84.809 141.689 84.3486L141.791 83.6837C141.843 83.4791 141.791 83.2233 141.843 83.0187C141.894 82.5584 141.843 82.098 141.791 81.6377C141.689 80.717 141.434 79.8474 141.025 79.029C140.667 78.2106 140.156 77.4433 139.543 76.8295C139.441 76.7272 139.39 76.5226 139.543 76.3692C139.594 76.318 139.645 76.318 139.697 76.2669C140.412 76.0623 141.178 75.9088 141.894 75.7554C142.66 75.6019 143.426 75.5508 144.193 75.5508C144.959 75.5508 145.777 75.6531 146.543 75.96C147.31 76.2669 148.127 76.7272 148.434 77.8014L148.383 77.6991C148.945 79.1825 149.149 80.8193 149.047 82.4049C148.945 83.9906 148.587 85.5251 148.076 86.9573C147.821 87.6734 147.514 88.3895 147.054 89.0544C147.003 89.1567 146.952 89.2079 146.85 89.3102C146.799 89.3613 146.748 89.4125 146.697 89.4125C146.594 89.4636 146.543 89.4125 146.492 89.4125C146.288 89.3613 146.135 89.3613 145.93 89.3102L144.806 89.0544C144.091 88.8498 143.324 88.6452 142.609 88.3895C142.251 88.236 141.894 88.1337 141.587 87.9291C141.434 87.8268 141.281 87.7245 141.127 87.5711C140.974 87.4176 140.872 87.213 140.923 87.0084Z" fill="#2F353B"/>
<path d="M153.592 104.348L153.541 97.6472L153.592 96.0615C153.592 96.0615 154.256 96.7776 159.213 96.9311C164.169 97.0845 168.154 96.9822 168.154 96.9822C168.154 96.9822 161.614 99.6932 156.3 98.0564C156.351 98.0564 153.592 101.381 153.592 104.348Z" fill="#1D61D5"/>
<path d="M124.623 158.107L123.754 160.715L79.7104 156.828L80.2214 153.452L124.623 158.107Z" fill="#1D61D5"/>
<path d="M125.439 128.9L129.629 129.923L126.257 161.023L123.753 160.716L125.439 128.9Z" fill="#1D61D5"/>
<path d="M52.8325 121.279L47.4675 150.077L47.3653 149.923L123.803 157.749L123.548 158.005L125.234 128.901L125.438 129.105L89.2121 125.218L52.8325 121.279ZM52.8325 121.279L89.0588 124.962L125.387 128.696C125.489 128.696 125.592 128.798 125.592 128.901L124.008 158.005C124.008 158.159 123.906 158.261 123.752 158.261L47.3142 150.179C47.2631 150.179 47.212 150.128 47.212 150.026L52.8325 121.279Z" fill="#2F353B"/>
<path d="M96.4204 108.645C98.9241 104.451 99.997 99.4893 99.5372 94.6812C99.0773 89.6684 97.0846 85.1161 93.8146 81.331C90.3401 77.3412 85.8948 74.2211 81.5007 71.3567C76.6978 68.2365 71.6905 65.3721 66.8875 62.2008C64.6394 60.7174 61.9824 59.1318 60.7561 56.5742C59.8364 54.6305 60.1941 51.8173 62.3401 50.8966C63.1065 50.5897 62.4423 49.4644 61.6759 49.7713C59.7853 50.5897 58.9167 52.6868 58.9678 54.6305C59.07 56.9323 60.4496 58.876 62.1357 60.3082C64.1284 62.0985 66.4788 63.4795 68.778 64.9117C71.2306 66.4462 73.6832 67.9807 76.1868 69.4641C80.9386 72.3797 85.7416 75.3464 89.8802 79.0803C93.7124 82.5074 96.727 86.7017 97.8511 91.8168C99.0773 97.2898 98.2087 103.172 95.3474 107.98C94.8875 108.747 96.0116 109.361 96.4204 108.645Z" fill="#2F353B"/>
<path d="M57.4324 60.6656C57.3813 64.1438 60.2427 66.5478 63.104 67.9289C64.6368 68.6961 66.2208 69.3099 67.7025 70.1795C69.1332 70.9979 70.4616 71.9186 71.6368 72.9928C76.2354 77.0848 79.0967 83.1205 77.7171 89.3097C77.0018 92.5322 75.2646 95.55 72.4543 97.4426C71.7901 97.9029 72.4033 99.0282 73.1186 98.5679C78.177 95.1408 80.2719 88.4401 78.9434 82.5579C77.6149 76.2664 72.6587 71.1514 66.9872 68.3892C63.7682 66.8036 58.6587 65.1156 58.7098 60.6656C58.7098 59.8472 57.4324 59.8472 57.4324 60.6656Z" fill="#2F353B"/>
<path d="M81.4983 80.7171C82.6735 86.1391 81.4983 91.919 78.3304 96.4714C77.8706 97.1364 78.9946 97.8013 79.4545 97.1364C82.7757 92.2771 83.9509 86.1391 82.7246 80.3591C82.5713 79.5918 81.345 79.8987 81.4983 80.7171Z" fill="#2F353B"/>
<path d="M70.0547 39.1319C70.0036 39.3365 70.0037 39.5411 69.9526 39.7457C69.7993 40.7175 69.646 41.7405 69.4927 42.7124C69.3394 43.6331 69.2372 44.6049 69.0839 45.5256C68.9818 46.1906 68.8796 46.8555 68.7774 47.5205C68.7263 47.7762 68.5219 47.8785 68.3175 47.8274C66.7336 47.2647 65.1496 46.7532 63.5146 46.1906C65.0474 44.3492 66.5803 42.5078 68.1131 40.6152L68.062 40.6664C66.1204 42.3032 64.1788 43.9911 62.2372 45.6279C62.1861 45.6791 62.0839 45.6791 62.0328 45.6791C61.1131 45.3722 60.2445 45.0653 59.3248 44.7584C59.1715 44.7072 59.0693 44.6049 59.0693 44.4515C59.0693 44.298 59.1715 44.1957 59.2737 44.0934C62.6971 42.3032 66.0693 40.5129 69.4927 38.7738C69.5438 38.7738 69.5438 38.7227 69.5949 38.7227C69.646 38.7227 69.6971 38.7227 69.7482 38.7227C69.8504 38.7738 69.9526 38.8761 70.0037 38.9784C70.0547 38.9784 70.0547 39.0807 70.0547 39.1319Z" fill="#2F353B"/>
<path d="M63.105 46.7529C63.7182 46.9575 64.3313 47.1621 64.9445 47.3667C64.9445 47.4179 64.8934 47.4179 64.8934 47.4179C64.4846 47.9294 64.1269 48.492 63.7182 49.0035C63.5649 49.2081 63.3094 49.2593 63.1561 49.0547C63.105 49.0035 63.054 48.9012 63.054 48.8501C63.054 48.1851 63.054 47.469 63.105 46.7529C63.105 46.7529 63.054 46.7529 63.105 46.7529Z" fill="#2F353B"/>
</svg>
