<svg width="150" height="50" viewBox="0 0 150 50" fill="none" xmlns="http://www.w3.org/2000/svg">
<g clip-path="url(#clip0)">
<path d="M111.458 27.2695C111.798 27.2801 112.136 27.2189 112.451 27.0894C112.767 26.9599 113.054 26.7649 113.294 26.5165C113.53 26.2798 113.716 25.9954 113.841 25.6812C113.966 25.3669 114.028 25.0293 114.022 24.6895C114.032 24.3383 113.973 23.9887 113.847 23.6621C113.722 23.3355 113.534 23.0389 113.294 22.7904C113.054 22.542 112.767 22.347 112.451 22.2175C112.136 22.0879 111.798 22.0266 111.458 22.0372C111.13 22.0309 110.804 22.0945 110.5 22.224C110.196 22.3535 109.921 22.5462 109.692 22.7901C109.452 23.0382 109.263 23.3348 109.137 23.6615C109.012 23.9882 108.952 24.3381 108.963 24.6895C108.962 25.0287 109.026 25.3647 109.151 25.6783C109.276 25.9918 109.46 26.2767 109.692 26.5164C109.924 26.7562 110.199 26.9462 110.502 27.0754C110.806 27.2046 111.13 27.2706 111.458 27.2695Z" fill="#FBA668"/>
<path d="M140.527 27.2695C140.867 27.2801 141.205 27.2189 141.521 27.0894C141.836 26.9599 142.123 26.7649 142.363 26.5165C142.599 26.2798 142.785 25.9954 142.91 25.6812C143.036 25.3669 143.097 25.0293 143.091 24.6895C143.101 24.3383 143.042 23.9887 142.917 23.6621C142.791 23.3355 142.603 23.0389 142.363 22.7904C142.123 22.542 141.836 22.347 141.52 22.2175C141.205 22.0879 140.867 22.0266 140.527 22.0372C140.199 22.0309 139.873 22.0945 139.569 22.224C139.265 22.3535 138.99 22.5462 138.762 22.7901C138.521 23.0386 138.333 23.3353 138.208 23.662C138.083 23.9886 138.024 24.3383 138.034 24.6895C138.033 25.0286 138.097 25.3646 138.221 25.6781C138.346 25.9916 138.53 26.2765 138.762 26.5163C138.994 26.7561 139.269 26.9461 139.572 27.0754C139.875 27.2046 140.2 27.2706 140.527 27.2695Z" fill="#FBA668"/>
<path d="M0.000419842 24.7383C-0.011633 23.4159 0.23594 22.1048 0.728136 20.8843C1.19429 19.7298 1.8769 18.6824 2.73655 17.8024C3.59984 16.9239 4.61706 16.2237 5.73376 15.7393C6.90148 15.234 8.15599 14.9786 9.42167 14.9885C10.6934 14.976 11.9537 15.2382 13.1219 15.7584C15.3617 16.7485 17.1429 18.599 18.0905 20.9205C18.583 22.1285 18.8368 23.4262 18.8368 24.7373C18.8368 26.0483 18.583 27.3461 18.0905 28.5541C17.1372 30.8782 15.3493 32.7288 13.1034 33.7161C11.9349 34.2353 10.6748 34.4975 9.40317 34.4861C8.37508 34.4782 7.35811 34.2652 6.40802 33.8586C5.52538 33.5167 4.70983 33.0123 4.0008 32.3698V45.0676H0.000419842V24.7383ZM4.01931 24.7383C4.01569 25.484 4.16273 26.2222 4.451 26.9057C5.00569 28.2434 6.03603 29.3095 7.32898 29.8834C7.99099 30.178 8.70409 30.33 9.42476 30.33C10.1454 30.33 10.8585 30.178 11.5205 29.8834C12.8143 29.3108 13.8451 28.2443 14.3985 26.9057C14.6847 26.2211 14.8324 25.4831 14.8324 24.7373C14.8324 23.9914 14.6847 23.2534 14.3985 22.5689C13.8461 21.2295 12.8151 20.1627 11.5205 19.5911C10.8589 19.295 10.1456 19.1423 9.42476 19.1423C8.70387 19.1423 7.99062 19.295 7.32898 19.5911C6.03519 20.1638 5.00444 21.2302 4.451 22.5689C4.1625 23.253 4.01546 23.9919 4.01931 24.7383Z" fill="white"/>
<path d="M42.1422 24.7021C42.1305 23.3863 42.384 22.0824 42.8864 20.8736C43.3629 19.7202 44.0512 18.6736 44.9133 17.7917C45.7782 16.9124 46.7939 16.2077 47.9084 15.7136C49.0763 15.2055 50.3304 14.9437 51.5974 14.9437C52.8643 14.9437 54.1185 15.2055 55.2863 15.7136C57.5337 16.6983 59.3229 18.5487 60.2755 20.8736C60.7769 22.0827 61.0303 23.3864 61.0196 24.7021V33.6969H57.0008V32.693C55.4304 33.8672 53.5357 34.4856 51.5984 34.4562C50.261 34.4766 48.9331 34.2206 47.6926 33.7033C46.5707 33.2326 45.5562 32.5249 44.7139 31.6253C43.8875 30.7315 43.2399 29.6776 42.8082 28.5242C42.3544 27.3053 42.1284 26.0082 42.1422 24.7021ZM46.159 24.7021C46.1559 25.4479 46.3036 26.1862 46.5928 26.8694C47.1487 28.2063 48.1786 29.2719 49.4708 29.8471C50.1339 30.1463 50.8503 30.2984 51.5737 30.2938C52.2937 30.2985 53.0078 30.1591 53.6767 29.8833C54.3206 29.6194 54.906 29.2228 55.3973 28.7177C55.8887 28.2067 56.2834 27.6051 56.5608 26.9439C56.8556 26.237 57.0033 25.474 56.9946 24.7042C56.9983 23.9576 56.8506 23.2185 56.5608 22.5347C56.0078 21.1959 54.9769 20.1293 53.6829 19.557C53.0187 19.2609 52.3031 19.1082 51.5799 19.1082C50.8567 19.1082 50.1411 19.2609 49.4769 19.557C48.8372 19.8433 48.2545 20.2501 47.7584 20.7566C47.2656 21.2669 46.8702 21.8687 46.5928 22.5305C46.3038 23.2152 46.156 23.9549 46.159 24.7021Z" fill="white"/>
<path d="M67.9266 22.0863L74.2643 15.7778H79.6687L72.0812 23.4114L79.6687 33.6972H74.437L69.0716 26.4231L67.9636 27.5334V33.7015H63.9077V8.60364H67.9266V22.0863Z" fill="white"/>
<path d="M84.7548 24.9893C84.7729 25.7096 84.9383 26.4178 85.2399 27.0673C85.5305 27.6981 85.9297 28.2689 86.4178 28.7518C86.9102 29.2354 87.4862 29.6185 88.1159 29.8812C88.9479 30.2212 89.8458 30.3529 90.7364 30.2657C91.627 30.1784 92.4851 29.8747 93.2407 29.3792C94.0904 28.7763 94.7429 27.9203 95.1114 26.9248H99.5106C99.1739 28.1619 98.6479 29.3353 97.9524 30.4002C97.3535 31.3067 96.603 32.0954 95.7363 32.7292C94.923 33.3176 94.0195 33.7598 93.0639 34.0372C92.1188 34.3137 91.1414 34.4547 90.1592 34.4562C88.891 34.4662 87.6346 34.2041 86.4692 33.6863C85.357 33.1937 84.3444 32.4887 83.4844 31.6083C82.6288 30.724 81.9468 29.6767 81.4759 28.5242C80.9888 27.3148 80.738 26.0176 80.738 24.7074C80.738 23.3972 80.9888 22.1 81.4759 20.8906C81.9473 19.7391 82.6293 18.6926 83.4844 17.8087C84.3444 16.9283 85.357 16.2233 86.4692 15.7307C87.6346 15.2129 88.891 14.9508 90.1592 14.9608C91.5034 14.9392 92.8361 15.22 94.065 15.7839C95.1804 16.3054 96.1819 17.0558 97.0088 17.9895C97.8271 18.9264 98.4674 20.0145 98.8959 21.1969C99.3461 22.4103 99.5868 23.6961 99.6072 24.9956L84.7548 24.9893ZM95.1114 22.1923C94.7518 21.1753 94.1139 20.2885 93.2756 19.64C92.3846 18.9533 91.3032 18.5824 90.1921 18.5824C89.081 18.5824 87.9996 18.9533 87.1086 19.64C86.2703 20.2885 85.6324 21.1753 85.2728 22.1923H95.1114Z" fill="white"/>
<path d="M131.123 24.7022C131.112 23.3865 131.366 22.0828 131.867 20.8737C132.345 19.7208 133.033 18.6742 133.894 17.7917C134.759 16.913 135.775 16.2083 136.889 15.7137C138.058 15.2055 139.312 14.9437 140.579 14.9437C141.847 14.9437 143.101 15.2055 144.269 15.7137C146.516 16.6993 148.304 18.5495 149.256 20.8737C149.759 22.0825 150.012 23.3864 150.001 24.7022V33.697H145.984V32.6931C144.413 33.8676 142.517 34.486 140.579 34.4563C139.242 34.4768 137.914 34.2208 136.674 33.7034C135.551 33.2338 134.536 32.5259 133.695 31.6253C132.868 30.7316 132.221 29.6777 131.789 28.5243C131.335 27.3053 131.109 26.0083 131.123 24.7022ZM135.142 24.7022C135.138 25.4481 135.286 26.1865 135.576 26.8695C136.13 28.2075 137.161 29.2737 138.454 29.8472C139.117 30.1468 139.833 30.2989 140.557 30.2939C141.279 30.299 141.995 30.1589 142.666 29.8813C143.31 29.6179 143.896 29.2213 144.387 28.7157C144.879 28.2058 145.274 27.6039 145.55 26.9418C145.845 26.2351 145.994 25.4721 145.986 24.7022C145.989 23.9554 145.84 23.2163 145.55 22.5327C145.274 21.8706 144.879 21.2687 144.387 20.7588C143.889 20.2548 143.306 19.8509 142.666 19.5677C142.002 19.2717 141.287 19.119 140.564 19.119C139.841 19.119 139.126 19.2717 138.462 19.5677C137.822 19.854 137.238 20.2608 136.741 20.7673C136.249 21.2778 135.855 21.8796 135.578 22.5412C135.289 23.2222 135.14 23.9583 135.142 24.7022Z" fill="white"/>
<path d="M21.6407 20.8849C22.5932 18.5607 24.3815 16.7105 26.6278 15.725C27.7957 15.2168 29.0498 14.9551 30.3168 14.9551C31.5837 14.9551 32.8379 15.2168 34.0057 15.725C35.1206 16.2195 36.1369 16.9242 37.0029 17.803C37.8637 18.686 38.5518 19.7324 39.0298 20.8849C39.5313 22.0941 39.7847 23.3977 39.774 24.7134H35.7551C35.7589 23.9668 35.6111 23.2277 35.3214 22.544C34.7683 21.2051 33.7374 20.1385 32.4434 19.5662C31.7796 19.2702 31.0643 19.1175 30.3414 19.1175C29.6186 19.1175 28.9033 19.2702 28.2395 19.5662C27.5994 19.8501 27.0159 20.2547 26.5189 20.7595C26.0261 21.2693 25.6313 21.8712 25.3553 22.5333C25.065 23.217 24.9165 23.956 24.9195 24.7028V33.6976H20.8965V24.7028C20.8863 23.3906 21.1397 22.0905 21.6407 20.8849Z" fill="white"/>
<path d="M102.697 20.8849C103.649 18.5607 105.438 16.7105 107.684 15.725C108.852 15.2168 110.106 14.9551 111.373 14.9551C112.64 14.9551 113.894 15.2168 115.062 15.725C116.177 16.2195 117.193 16.9242 118.059 17.803C118.92 18.6861 119.608 19.7324 120.086 20.8849C120.587 22.0941 120.841 23.3977 120.83 24.7134H116.811C116.815 23.9668 116.667 23.2277 116.377 22.544C116.101 21.8823 115.706 21.2806 115.214 20.7701C114.717 20.2628 114.134 19.8553 113.493 19.5684C112.829 19.2723 112.114 19.1196 111.391 19.1196C110.668 19.1196 109.953 19.2723 109.289 19.5684C108.649 19.8541 108.065 20.2609 107.569 20.768C107.076 21.2778 106.681 21.8797 106.405 22.5418C106.115 23.2255 105.966 23.9646 105.969 24.7113V33.7061H101.963V24.7028C101.949 23.3913 102.199 22.0913 102.697 20.8849Z" fill="white"/>
<path d="M128.408 15.7776H124.321V36.7045H128.408V15.7776Z" fill="white"/>
<path d="M127.141 36.705H118.224C118.22 37.4041 118.344 38.0976 118.59 38.7489C118.819 39.3764 119.169 39.9494 119.617 40.4335C120.077 40.917 120.625 41.3009 121.229 41.5629C121.888 41.8441 122.595 41.9838 123.307 41.9734C123.991 41.9793 124.67 41.8642 125.316 41.6331C125.918 41.4186 126.468 41.0701 126.925 40.6121C127.389 40.1382 127.755 39.5715 128.001 38.9467C128.276 38.2344 128.412 37.4722 128.399 36.705H127.141Z" fill="white"/>
<path d="M118.631 49.0448C117.19 48.4281 115.888 47.5099 114.807 46.3478C113.769 45.2325 112.941 43.927 112.365 42.498C111.797 41.0699 111.501 39.5417 111.493 37.9974C111.483 36.6773 111.691 35.365 112.11 34.1179L115.467 35.5834C115.237 36.3612 115.126 37.1714 115.138 37.9847C115.156 40.1236 115.965 42.1741 117.399 43.7147C118.14 44.5142 119.032 45.1486 120.018 45.5787C121.005 46.0089 122.066 46.2257 123.137 46.2159C125.206 46.2081 127.193 45.3773 128.687 43.8954C129.14 43.4523 129.537 42.9521 129.869 42.4066L133.251 43.8954C132.712 44.9053 132.03 45.8253 131.226 46.6243C129.067 48.7906 126.179 50.0039 123.172 50.0083C121.61 50.0155 120.064 49.6874 118.631 49.0448Z" fill="#FBA668"/>
<path d="M3.03878 6.317L6.01131 3.36056H8.54393L4.98758 6.94019L8.54393 11.762H6.09149L3.57532 8.35886L3.05522 8.87996V11.762H1.15576V0H3.03878V6.317Z" fill="#FBA668"/>
<path d="M9.27606 7.544C9.27071 6.92906 9.38975 6.31976 9.62553 5.75525C9.84897 5.21427 10.1715 4.72314 10.5753 4.30893C10.9806 3.89662 11.4568 3.56625 11.9793 3.33479C12.5269 3.09619 13.115 2.97327 13.7092 2.97327C14.3033 2.97327 14.8915 3.09619 15.439 3.33479C16.4922 3.79715 17.3304 4.66513 17.7764 5.75525C18.0121 6.31976 18.1312 6.92906 18.1258 7.544V11.7617H16.2408V11.2917C15.5056 11.8432 14.6182 12.1348 13.7102 12.1233C13.0838 12.13 12.4625 12.0071 11.8827 11.7617C11.3564 11.5409 10.8804 11.2092 10.4848 10.7876C10.0981 10.3679 9.7949 9.87355 9.59264 9.33275C9.37831 8.7627 9.27087 8.15564 9.27606 7.544ZM11.1591 7.544C11.1579 7.89406 11.2279 8.24046 11.3646 8.56068C11.6266 9.18756 12.1106 9.68685 12.7173 9.95595C13.0282 10.0975 13.3644 10.1699 13.704 10.1686C14.0411 10.1705 14.3753 10.1055 14.6887 9.97721C14.99 9.8528 15.2641 9.6669 15.4945 9.43059C15.7237 9.18941 15.9071 8.90587 16.0352 8.59471C16.174 8.26321 16.244 7.90526 16.2408 7.544C16.2417 7.19396 16.1717 6.8476 16.0352 6.52732C15.7733 5.90044 15.2892 5.40115 14.6825 5.13205C14.3709 4.99451 14.0356 4.9236 13.6968 4.9236C13.358 4.9236 13.0227 4.99451 12.7111 5.13205C12.1044 5.40115 11.6204 5.90044 11.3585 6.52732C11.2241 6.84807 11.1561 7.19441 11.1591 7.544Z" fill="#FBA668"/>
<path d="M24.8335 5.04053C24.4752 5.04295 24.1202 5.11137 23.7851 5.24258C23.0633 5.51231 22.4727 6.06454 22.1405 6.78036C21.9563 7.17831 21.8648 7.61538 21.8733 8.05652V11.7616H19.9944V3.36025H21.8774V4.46625C22.0862 4.1944 22.3345 3.95763 22.6133 3.76436C23.1302 3.40464 23.7143 3.16117 24.3278 3.04971C24.5794 3.00164 24.8346 2.97602 25.0905 2.97314L24.8335 5.04053Z" fill="#FBA668"/>
<path d="M26.3137 5.31734V3.36056H27.0599V0H28.943V3.36056H30.8362V5.31734H28.9347V11.762H27.0517V5.31734H26.3137Z" fill="#FBA668"/>
<path d="M37.8892 3.3606H39.7743V8.29509C39.7774 8.80369 39.6772 9.30729 39.4803 9.77331C39.2914 10.2255 39.0246 10.6385 38.693 10.992C38.3545 11.3525 37.9492 11.6385 37.5012 11.8329C37.0533 12.0274 36.5721 12.1262 36.0864 12.1236C35.595 12.1265 35.1085 12.0236 34.6577 11.8215C33.7707 11.4163 33.0659 10.6772 32.6862 9.75416C32.4913 9.28385 32.3919 8.77706 32.3943 8.26531V3.3606H34.2794V8.29509C34.2766 8.54357 34.3264 8.78969 34.4254 9.01612C34.5184 9.23576 34.6502 9.43555 34.8139 9.60528C34.9767 9.77251 35.1694 9.90542 35.3813 9.99664C35.605 10.0913 35.8446 10.1398 36.0864 10.1391C36.3234 10.1388 36.558 10.0903 36.7771 9.99664C36.9926 9.90588 37.1883 9.77136 37.3527 9.60103C37.5177 9.43197 37.6503 9.23205 37.7433 9.01186C37.8422 8.78543 37.892 8.53932 37.8892 8.29083V3.3606Z" fill="#FBA668"/>
</g>
<defs>
<clipPath id="clip0">
<rect width="150" height="50" fill="white"/>
</clipPath>
</defs>
</svg>
