<svg width="52" height="16" viewBox="0 0 52 16" fill="none" xmlns="http://www.w3.org/2000/svg">
<g clip-path="url(#clip0)">
<path d="M38.2514 8.72646C38.3679 8.72988 38.4839 8.71027 38.5922 8.66883C38.7006 8.6274 38.799 8.56501 38.8814 8.48552C38.9623 8.40976 39.0262 8.31877 39.0692 8.2182C39.1121 8.11763 39.1332 8.00962 39.1312 7.90087C39.1347 7.78849 39.1143 7.67661 39.0714 7.5721C39.0284 7.46759 38.9637 7.37267 38.8813 7.29317C38.7989 7.21367 38.7005 7.15128 38.5922 7.10982C38.4839 7.06837 38.3679 7.04874 38.2514 7.05213C38.1387 7.05012 38.0267 7.07047 37.9225 7.11191C37.8182 7.15336 37.7239 7.21502 37.6454 7.29307C37.5628 7.37246 37.4979 7.46736 37.4548 7.57191C37.4117 7.67646 37.3914 7.78842 37.3949 7.90087C37.3947 8.00942 37.4166 8.11695 37.4596 8.21728C37.5025 8.31762 37.5656 8.40877 37.6452 8.48549C37.7248 8.56222 37.8193 8.62301 37.9234 8.66436C38.0274 8.70572 38.1389 8.72682 38.2514 8.72646Z" fill="#FBA668"/>
<path d="M48.2272 8.72646C48.3437 8.72988 48.4597 8.71027 48.5681 8.66883C48.6764 8.6274 48.7748 8.56501 48.8573 8.48552C48.9382 8.40976 49.0021 8.31877 49.045 8.2182C49.088 8.11763 49.1091 8.00962 49.107 7.90087C49.1105 7.78849 49.0902 7.67661 49.0472 7.5721C49.0042 7.46759 48.9396 7.37267 48.8572 7.29317C48.7747 7.21367 48.6764 7.15128 48.568 7.10982C48.4597 7.06837 48.3437 7.04874 48.2272 7.05213C48.1145 7.05012 48.0026 7.07047 47.8983 7.11191C47.7941 7.15336 47.6998 7.21502 47.6212 7.29307C47.5388 7.37259 47.4742 7.46753 47.4312 7.57206C47.3883 7.67658 47.3679 7.78848 47.3715 7.90087C47.3711 8.00939 47.393 8.11691 47.4359 8.21723C47.4787 8.31756 47.5418 8.40872 47.6213 8.48545C47.7008 8.56219 47.7953 8.62299 47.8993 8.66435C48.0033 8.70571 48.1148 8.72682 48.2272 8.72646Z" fill="#FBA668"/>
<path d="M0.000144085 7.91648C-0.00399231 7.49332 0.0809719 7.07375 0.249888 6.6832C0.409866 6.31377 0.644131 5.97857 0.939152 5.69698C1.23542 5.41586 1.58452 5.19179 1.96776 5.03678C2.36851 4.8751 2.79904 4.79337 3.23341 4.79652C3.66986 4.79254 4.10237 4.87645 4.50329 5.04291C5.27195 5.35974 5.88323 5.95191 6.20846 6.69477C6.37748 7.08132 6.46456 7.49661 6.46456 7.91614C6.46456 8.33568 6.37748 8.75096 6.20846 9.13751C5.88129 9.88123 5.2677 10.4734 4.49694 10.7894C4.09592 10.9555 3.66348 11.0394 3.22706 11.0358C2.87423 11.0332 2.52522 10.9651 2.19916 10.835C1.89625 10.7255 1.61636 10.5641 1.37303 10.3585V14.4218H0.000144085V7.91648ZM1.37938 7.91648C1.37814 8.1551 1.4286 8.39133 1.52753 8.61003C1.71789 9.03811 2.0715 9.37925 2.51522 9.5629C2.74241 9.65719 2.98714 9.70581 3.23447 9.70581C3.48179 9.70581 3.72652 9.65719 3.95371 9.5629C4.39773 9.37966 4.75147 9.03839 4.9414 8.61003C5.03962 8.39097 5.09029 8.15482 5.09029 7.91614C5.09029 7.67746 5.03962 7.44131 4.9414 7.22225C4.75184 6.79365 4.39798 6.45227 3.95371 6.26938C3.72665 6.17463 3.48187 6.12574 3.23447 6.12574C2.98707 6.12574 2.74229 6.17463 2.51522 6.26938C2.07121 6.45262 1.71747 6.79389 1.52753 7.22225C1.42852 7.44117 1.37806 7.67764 1.37938 7.91648Z" fill="#4A91DC"/>
<path d="M14.4626 7.9049C14.4586 7.48385 14.5456 7.06661 14.718 6.67978C14.8815 6.31071 15.1178 5.97577 15.4136 5.69357C15.7104 5.4122 16.059 5.18669 16.4415 5.0286C16.8423 4.86599 17.2727 4.78223 17.7075 4.78223C18.1423 4.78223 18.5727 4.86599 18.9735 5.0286C19.7448 5.3437 20.3588 5.93583 20.6857 6.67978C20.8578 7.06671 20.9448 7.48388 20.9411 7.9049V10.7832H19.5619V10.462C19.023 10.8377 18.3727 11.0356 17.7079 11.0262C17.2489 11.0327 16.7932 10.9508 16.3674 10.7853C15.9824 10.6347 15.6342 10.4082 15.3452 10.1203C15.0616 9.83431 14.8393 9.49708 14.6912 9.12797C14.5354 8.73792 14.4579 8.32287 14.4626 7.9049ZM15.8411 7.9049C15.8401 8.14357 15.8908 8.37982 15.99 8.59845C16.1808 9.02625 16.5342 9.36726 16.9777 9.55132C17.2053 9.64704 17.4511 9.69572 17.6994 9.69425C17.9465 9.69575 18.1916 9.65114 18.4211 9.56289C18.6421 9.47843 18.843 9.35154 19.0116 9.18991C19.1803 9.02639 19.3157 8.83386 19.4109 8.62227C19.5121 8.39608 19.5628 8.1519 19.5598 7.90558C19.5611 7.66667 19.5104 7.43016 19.4109 7.21135C19.2211 6.78291 18.8673 6.4416 18.4232 6.25848C18.1953 6.16372 17.9497 6.11484 17.7015 6.11484C17.4533 6.11484 17.2077 6.16372 16.9798 6.25848C16.7603 6.35009 16.5603 6.48025 16.39 6.64235C16.2209 6.80565 16.0852 6.99822 15.99 7.20999C15.8908 7.42911 15.8401 7.66579 15.8411 7.9049Z" fill="#4A91DC"/>
<path d="M23.3119 7.06738L25.4869 5.04866H27.3416L24.7377 7.4914L27.3416 10.7829H25.5461L23.7048 8.45516L23.3246 8.81044V10.7842H21.9326V2.75293H23.3119V7.06738Z" fill="#4A91DC"/>
<path d="M29.087 7.9966C29.0932 8.22711 29.15 8.45373 29.2535 8.66157C29.3532 8.86343 29.4902 9.04609 29.6577 9.20061C29.8267 9.35536 30.0244 9.47798 30.2405 9.56202C30.526 9.67081 30.8342 9.71297 31.1398 9.68506C31.4455 9.65714 31.74 9.55995 31.9993 9.4014C32.2909 9.20846 32.5148 8.93453 32.6413 8.61596H34.151C34.0355 9.01185 33.8549 9.38732 33.6163 9.72809C33.4107 10.0182 33.1532 10.2706 32.8557 10.4734C32.5766 10.6617 32.2665 10.8032 31.9386 10.892C31.6142 10.9804 31.2788 11.0255 30.9417 11.026C30.5065 11.0292 30.0753 10.9453 29.6754 10.7797C29.2937 10.622 28.9461 10.3964 28.651 10.1147C28.3574 9.83171 28.1233 9.49658 27.9617 9.12779C27.7946 8.74079 27.7085 8.32568 27.7085 7.90642C27.7085 7.48716 27.7946 7.07205 27.9617 6.68505C28.1235 6.31655 28.3576 5.98168 28.651 5.69883C28.9461 5.41708 29.2937 5.19149 29.6754 5.03386C30.0753 4.86818 30.5065 4.78428 30.9417 4.78748C31.403 4.78057 31.8604 4.87044 32.2822 5.05088C32.665 5.21778 33.0086 5.45789 33.2924 5.75668C33.5733 6.05648 33.793 6.40469 33.9401 6.78306C34.0946 7.17134 34.1772 7.58279 34.1842 7.99864L29.087 7.9966ZM32.6413 7.10159C32.5178 6.77614 32.299 6.49236 32.0113 6.28484C31.7055 6.06509 31.3343 5.94639 30.953 5.94639C30.5717 5.94639 30.2006 6.06509 29.8948 6.28484C29.6071 6.49236 29.3882 6.77614 29.2648 7.10159H32.6413Z" fill="#4A91DC"/>
<path d="M45.0002 7.90493C44.9965 7.48391 45.0835 7.06674 45.2556 6.67981C45.4194 6.31088 45.6556 5.97599 45.9512 5.69359C46.2482 5.41238 46.5967 5.18689 46.9791 5.02863C47.38 4.866 47.8106 4.78223 48.2455 4.78223C48.6804 4.78223 49.1109 4.866 49.5118 5.02863C50.2827 5.344 50.8965 5.93607 51.2233 6.67981C51.3958 7.06663 51.4827 7.48387 51.4787 7.90493V10.7833H50.1002V10.462C49.5611 10.8379 48.9106 11.0358 48.2455 11.0262C47.7865 11.0328 47.3308 10.9509 46.905 10.7853C46.5198 10.635 46.1716 10.4085 45.8828 10.1203C45.5992 9.83434 45.3769 9.49711 45.2288 9.128C45.073 8.73794 44.9955 8.3229 45.0002 7.90493ZM46.3794 7.90493C46.3781 8.14362 46.4288 8.37993 46.5283 8.59848C46.7185 9.02664 47.0722 9.36781 47.516 9.55134C47.7435 9.6472 47.9894 9.69589 48.2377 9.69427C48.4856 9.69591 48.7314 9.65107 48.9615 9.56223C49.1826 9.47795 49.3835 9.35103 49.552 9.18925C49.7211 9.0261 49.8566 8.83348 49.9513 8.62162C50.0527 8.39547 50.1037 8.1513 50.1009 7.90493C50.102 7.66597 50.051 7.42946 49.9513 7.21069C49.8566 6.99883 49.7211 6.80621 49.552 6.64306C49.3814 6.48178 49.1812 6.35253 48.9615 6.26191C48.7337 6.16717 48.4883 6.1183 48.2402 6.1183C47.9921 6.1183 47.7466 6.16717 47.5188 6.26191C47.2991 6.35352 47.0988 6.48368 46.9283 6.64578C46.7595 6.80913 46.624 7.0017 46.529 7.21342C46.4297 7.43134 46.3788 7.66688 46.3794 7.90493Z" fill="#4A91DC"/>
<path d="M7.42688 6.6832C7.75377 5.93946 8.36747 5.34739 9.1384 5.03202C9.53919 4.86941 9.96961 4.78564 10.4044 4.78564C10.8392 4.78564 11.2696 4.86941 11.6704 5.03202C12.053 5.19026 12.4018 5.41575 12.699 5.69698C12.9944 5.97956 13.2306 6.3144 13.3946 6.6832C13.5667 7.07012 13.6537 7.4873 13.65 7.90832H12.2708C12.2721 7.66941 12.2214 7.43289 12.1219 7.21408C11.9321 6.78564 11.5783 6.44434 11.1342 6.26122C10.9064 6.16647 10.6609 6.11761 10.4129 6.11761C10.1648 6.11761 9.91932 6.16647 9.6915 6.26122C9.47182 6.35204 9.27158 6.48152 9.10101 6.64304C8.9319 6.8062 8.79641 6.99882 8.7017 7.21068C8.60205 7.42945 8.55109 7.66596 8.55214 7.90491V10.7833H7.17149V7.90491C7.16797 7.485 7.25494 7.06897 7.42688 6.6832Z" fill="#4A91DC"/>
<path d="M35.2442 6.6832C35.5711 5.93946 36.1848 5.34739 36.9557 5.03202C37.3565 4.86941 37.787 4.78564 38.2217 4.78564C38.6565 4.78564 39.087 4.86941 39.4877 5.03202C39.8704 5.19026 40.2192 5.41575 40.5164 5.69698C40.8117 5.97956 41.0479 6.3144 41.212 6.6832C41.384 7.07013 41.471 7.4873 41.4674 7.90832H40.0881C40.0894 7.66941 40.0387 7.4329 39.9393 7.21408C39.8443 7.00237 39.7088 6.8098 39.54 6.64645C39.3695 6.4841 39.1693 6.35371 38.9495 6.2619C38.7216 6.16716 38.4762 6.11829 38.2281 6.11829C37.98 6.11829 37.7345 6.16716 37.5067 6.2619C37.2869 6.35334 37.0866 6.48352 36.9162 6.64577C36.7471 6.80892 36.6116 7.00154 36.5169 7.2134C36.4173 7.43217 36.3663 7.66868 36.3674 7.90764V10.786H34.9924V7.90491C34.9877 7.48524 35.0735 7.06922 35.2442 6.6832Z" fill="#4A91DC"/>
<path d="M44.068 5.04883H42.6655V11.7454H44.068V5.04883Z" fill="#4A91DC"/>
<path d="M43.6337 11.7456H40.5733C40.572 11.9693 40.6146 12.1912 40.6988 12.3997C40.7775 12.6005 40.8975 12.7838 41.0516 12.9387C41.2093 13.0934 41.3973 13.2163 41.6047 13.3001C41.8308 13.3901 42.0734 13.4348 42.318 13.4315C42.5525 13.4334 42.7856 13.3966 43.0072 13.3226C43.2139 13.254 43.4025 13.1425 43.5596 12.9959C43.7188 12.8442 43.8443 12.6629 43.9286 12.463C44.0232 12.235 44.0697 11.9911 44.0655 11.7456H43.6337Z" fill="#4A91DC"/>
<path d="M40.7128 15.6946C40.2184 15.4972 39.7716 15.2034 39.4006 14.8315C39.0444 14.4746 38.7601 14.0569 38.5624 13.5996C38.3675 13.1426 38.266 12.6536 38.2633 12.1594C38.2597 11.737 38.3313 11.317 38.475 10.918L39.627 11.3869C39.5482 11.6358 39.5101 11.8951 39.5142 12.1553C39.5203 12.8398 39.798 13.496 40.2902 13.9889C40.5445 14.2448 40.8504 14.4478 41.189 14.5854C41.5276 14.7231 41.8918 14.7925 42.2592 14.7893C42.9694 14.7868 43.6514 14.521 44.164 14.0468C44.3194 13.905 44.4557 13.7449 44.5697 13.5703L45.7302 14.0468C45.5455 14.3699 45.3112 14.6643 45.0353 14.92C44.2944 15.6132 43.3033 16.0015 42.2712 16.0029C41.7352 16.0052 41.2046 15.9002 40.7128 15.6946Z" fill="#FBA668"/>
<path d="M1.04271 2.02144L2.06285 1.07538H2.93202L1.71152 2.22086L2.93202 3.76382H2.09037L1.22685 2.67483L1.04836 2.84159V3.76382H0.396484V0H1.04271V2.02144Z" fill="#FBA668"/>
<path d="M3.18366 2.41429C3.18182 2.21751 3.22267 2.02254 3.30359 1.84189C3.38027 1.66878 3.49095 1.51162 3.62953 1.37907C3.76863 1.24713 3.93205 1.14141 4.11138 1.06735C4.29929 0.990994 4.50114 0.95166 4.70505 0.95166C4.90895 0.95166 5.1108 0.990994 5.29872 1.06735C5.66017 1.2153 5.94782 1.49306 6.10086 1.84189C6.18178 2.02254 6.22263 2.21751 6.22079 2.41429V3.76396H5.57386V3.61355C5.32156 3.79004 5.01702 3.88336 4.7054 3.87967C4.49043 3.88181 4.27719 3.84247 4.07822 3.76396C3.89761 3.69331 3.73423 3.58714 3.59848 3.45224C3.46575 3.31794 3.36172 3.15975 3.2923 2.9867C3.21875 2.80428 3.18188 2.61002 3.18366 2.41429ZM3.82988 2.41429C3.82948 2.52631 3.85352 2.63716 3.90043 2.73963C3.99032 2.94023 4.15644 3.10001 4.36465 3.18612C4.47135 3.23141 4.58671 3.2546 4.70328 3.25418C4.81895 3.25478 4.93366 3.23398 5.04121 3.19292C5.14463 3.15311 5.23868 3.09362 5.31776 3.018C5.39641 2.94083 5.45935 2.85009 5.50331 2.75052C5.55095 2.64444 5.57498 2.5299 5.57386 2.41429C5.5742 2.30228 5.55016 2.19145 5.50331 2.08896C5.41342 1.88835 5.2473 1.72858 5.0391 1.64247C4.93215 1.59846 4.81708 1.57577 4.70081 1.57577C4.58454 1.57577 4.46947 1.59846 4.36253 1.64247C4.15432 1.72858 3.98821 1.88835 3.89832 2.08896C3.85219 2.1916 3.82888 2.30243 3.82988 2.41429Z" fill="#FBA668"/>
<path d="M8.52254 1.61322C8.39958 1.614 8.27775 1.63589 8.16274 1.67788C7.91502 1.76419 7.71234 1.94091 7.59835 2.16997C7.53514 2.29731 7.50373 2.43717 7.50664 2.57834V3.76398H6.86182V1.07553H7.50805V1.42946C7.57972 1.34246 7.66491 1.2667 7.76061 1.20485C7.93799 1.08974 8.13844 1.01183 8.34899 0.976162C8.43535 0.960778 8.52292 0.95258 8.61073 0.95166L8.52254 1.61322Z" fill="#FBA668"/>
<path d="M9.03076 1.70155V1.07538H9.28686V0H9.93308V1.07538H10.5828V1.70155H9.93026V3.76382H9.28403V1.70155H9.03076Z" fill="#FBA668"/>
<path d="M13.0035 1.0752H13.6504V2.65423C13.6515 2.81698 13.6171 2.97814 13.5495 3.12726C13.4847 3.27198 13.3931 3.40412 13.2793 3.51726C13.1632 3.6326 13.024 3.72413 12.8703 3.78635C12.7166 3.84857 12.5514 3.8802 12.3848 3.87935C12.2161 3.88027 12.0492 3.84736 11.8944 3.7827C11.5901 3.65302 11.3482 3.41651 11.2179 3.12114C11.151 2.97064 11.1169 2.80846 11.1177 2.6447V1.0752H11.7646V2.65423C11.7637 2.73375 11.7808 2.8125 11.8147 2.88496C11.8466 2.95525 11.8919 3.01918 11.9481 3.07349C12.0039 3.12701 12.0701 3.16954 12.1428 3.19873C12.2196 3.22904 12.3018 3.24453 12.3848 3.24433C12.4661 3.24421 12.5466 3.22871 12.6218 3.19873C12.6958 3.16969 12.7629 3.12664 12.8193 3.07213C12.876 3.01803 12.9215 2.95406 12.9534 2.8836C12.9873 2.81114 13.0044 2.73239 13.0035 2.65287V1.0752Z" fill="#FBA668"/>
<path d="M5.85159 14.2011C5.85159 14.4468 5.65829 14.5884 5.28226 14.5884H4.57324V13.1543H5.23993C5.58209 13.1543 5.77328 13.2904 5.77328 13.5252C5.77595 13.5915 5.75847 13.6571 5.72299 13.714C5.68752 13.7708 5.6356 13.8164 5.57363 13.8451C5.65597 13.8634 5.72898 13.9092 5.77982 13.9743C5.83066 14.0394 5.85607 14.1197 5.85159 14.2011ZM4.7856 13.3204V13.7791H5.22088C5.43747 13.7791 5.56093 13.7015 5.56093 13.5497C5.56093 13.398 5.43747 13.3204 5.22088 13.3204H4.7856ZM5.63712 14.1848C5.63712 14.0187 5.50943 13.9452 5.27379 13.9452H4.7856V14.4216H5.27379C5.50943 14.4223 5.63712 14.3508 5.63712 14.1848Z" fill="#666766"/>
<path d="M7.00022 13.933V14.5885H6.80691V14.4449C6.73636 14.5435 6.61361 14.6007 6.43724 14.6007C6.18255 14.6007 6.021 14.4694 6.021 14.2815C6.021 14.1073 6.13811 13.9637 6.47322 13.9637H6.79633V13.9249C6.79633 13.7588 6.69615 13.6628 6.49438 13.6628C6.36659 13.6623 6.24235 13.7033 6.14164 13.7792L6.05627 13.6322C6.19124 13.5382 6.35484 13.4903 6.52119 13.4961C6.82596 13.4927 7.00022 13.6363 7.00022 13.933ZM6.79633 14.257V14.1052H6.48168C6.27991 14.1052 6.22277 14.1808 6.22277 14.2727C6.22277 14.3816 6.3166 14.4489 6.4711 14.4489C6.5393 14.4537 6.60734 14.4378 6.66567 14.4034C6.724 14.3689 6.76969 14.3178 6.79633 14.257Z" fill="#666766"/>
<path d="M8.40269 13.9635V14.5883H8.19881V13.986C8.19881 13.773 8.08875 13.6688 7.89545 13.6688C7.67886 13.6688 7.5427 13.7934 7.5427 14.0289V14.5883H7.3374V13.4993H7.53282V13.6634C7.58081 13.605 7.64268 13.5587 7.71318 13.5284C7.78368 13.4981 7.86073 13.4846 7.93778 13.4891C8.21009 13.4925 8.40269 13.6443 8.40269 13.9635Z" fill="#666766"/>
<path d="M9.37034 14.525C9.29973 14.5767 9.21276 14.6034 9.12412 14.6005C8.89695 14.6005 8.76785 14.4794 8.76785 14.2602V13.6647H8.57666V13.5027H8.76785V13.2651H8.97103V13.5027H9.29414V13.6647H8.97103V14.2527C8.96759 14.2764 8.96969 14.3004 8.97715 14.3232C8.98462 14.346 8.99728 14.3668 9.01419 14.3842C9.03111 14.4017 9.05185 14.4152 9.0749 14.4239C9.09795 14.4326 9.12272 14.4362 9.1474 14.4344C9.20496 14.435 9.26108 14.4171 9.30684 14.3834L9.37034 14.525Z" fill="#666766"/>
<path d="M10.6229 13.5029V14.5919H10.4303V14.4279C10.386 14.4848 10.3281 14.5306 10.2615 14.5613C10.195 14.592 10.1217 14.6067 10.0479 14.6042C9.75727 14.6042 9.56396 14.4504 9.56396 14.1277V13.5029H9.76785V14.1053C9.76785 14.3183 9.87791 14.4245 10.0712 14.4245C10.2829 14.4245 10.4197 14.2979 10.4197 14.0644V13.5029H10.6229Z" fill="#666766"/>
<path d="M11.8611 13.933V14.5885H11.6678V14.4449C11.5972 14.5435 11.4744 14.6007 11.2981 14.6007C11.0434 14.6007 10.8818 14.4694 10.8818 14.2815C10.8818 14.1073 10.9989 13.9637 11.3341 13.9637H11.6572V13.9249C11.6572 13.7588 11.557 13.6628 11.3552 13.6628C11.2274 13.6623 11.1032 13.7033 11.0025 13.7792L10.9171 13.6322C11.0521 13.5382 11.2157 13.4903 11.382 13.4961C11.6868 13.4927 11.8611 13.6363 11.8611 13.933ZM11.6572 14.257V14.1052H11.3425C11.1408 14.1052 11.0836 14.1808 11.0836 14.2727C11.0836 14.3816 11.1774 14.4489 11.3319 14.4489C11.4001 14.4537 11.4682 14.4378 11.5265 14.4034C11.5848 14.3689 11.6305 14.3178 11.6572 14.257Z" fill="#666766"/>
<path d="M13.2632 13.9635V14.5883H13.0593V13.986C13.0593 13.773 12.9493 13.6688 12.756 13.6688C12.5394 13.6688 12.3997 13.7934 12.3997 14.0289V14.5883H12.1958V13.4993H12.3912V13.6634C12.4392 13.605 12.5011 13.5587 12.5716 13.5284C12.6421 13.4981 12.7191 13.4846 12.7962 13.4891C13.0706 13.4925 13.2632 13.6443 13.2632 13.9635Z" fill="#666766"/>
<path d="M15.3568 13.6546C15.3568 13.9656 15.1233 14.1541 14.7367 14.1541H14.3699V14.5884H14.1582V13.1543H14.7374C15.1233 13.1543 15.3568 13.3401 15.3568 13.6546ZM15.1452 13.6546C15.1452 13.4504 15.0041 13.3326 14.7311 13.3326H14.3706V13.9758H14.7311C15.0027 13.9758 15.1445 13.8594 15.1445 13.6546H15.1452Z" fill="#666766"/>
<path d="M16.6046 14.111H15.6917C15.7171 14.3016 15.8765 14.4282 16.0994 14.4282C16.1601 14.4304 16.2206 14.4199 16.2766 14.3973C16.3326 14.3747 16.3829 14.3407 16.424 14.2975L16.5368 14.4241C16.4808 14.4832 16.4121 14.5296 16.3354 14.56C16.2587 14.5905 16.1759 14.6043 16.0931 14.6004C15.7298 14.6004 15.4878 14.369 15.4878 14.0457C15.4847 13.973 15.4971 13.9004 15.5242 13.8325C15.5513 13.7646 15.5926 13.7028 15.6456 13.6509C15.6985 13.599 15.7619 13.5582 15.8318 13.5309C15.9017 13.5037 15.9768 13.4905 16.0522 13.4924C16.3767 13.4924 16.6081 13.7176 16.6081 14.0518C16.6088 14.0682 16.6067 14.0927 16.6046 14.111ZM15.6917 13.9695H16.4134C16.403 13.8842 16.3605 13.8055 16.294 13.7484C16.2275 13.6913 16.1416 13.6597 16.0525 13.6597C15.9635 13.6597 15.8775 13.6913 15.811 13.7484C15.7445 13.8055 15.702 13.8842 15.6917 13.9695Z" fill="#666766"/>
<path d="M16.8486 13.0679H17.0525V14.5877H16.8486V13.0679Z" fill="#666766"/>
<path d="M18.29 13.9331V14.5885H18.0967V14.4449C18.0262 14.5436 17.9034 14.6007 17.7278 14.6007C17.4724 14.6007 17.3115 14.4694 17.3115 14.2815C17.3115 14.1073 17.4279 13.9637 17.7637 13.9637H18.0862V13.9249C18.0862 13.7588 17.9867 13.6629 17.7849 13.6629C17.6557 13.6616 17.5299 13.7026 17.4279 13.7792L17.3433 13.6322C17.4781 13.5381 17.6418 13.4901 17.8082 13.4961C18.1158 13.4927 18.29 13.6363 18.29 13.9331ZM18.0862 14.257V14.1053H17.7722C17.5704 14.1053 17.5133 14.1808 17.5133 14.2727C17.5133 14.3816 17.6064 14.449 17.7616 14.449C17.8297 14.4538 17.8977 14.4379 17.956 14.4035C18.0142 14.369 18.0597 14.3178 18.0862 14.257Z" fill="#666766"/>
<path d="M19.26 14.525C19.1894 14.5767 19.1024 14.6034 19.0138 14.6005C18.7866 14.6005 18.6568 14.4794 18.6568 14.2602V13.6647H18.4663V13.5027H18.6568V13.2651H18.8607V13.5027H19.1838V13.6647H18.8607V14.2527C18.8572 14.2764 18.8593 14.3004 18.8668 14.3232C18.8743 14.346 18.8869 14.3668 18.9038 14.3842C18.9208 14.4017 18.9415 14.4152 18.9645 14.4239C18.9876 14.4326 19.0124 14.4362 19.037 14.4344C19.0946 14.435 19.1507 14.4171 19.1965 14.3834L19.26 14.525Z" fill="#666766"/>
<path d="M19.4253 13.1665C19.4254 13.149 19.4291 13.1317 19.4363 13.1156C19.4436 13.0995 19.4541 13.085 19.4673 13.073C19.4805 13.061 19.4961 13.0517 19.5131 13.0456C19.5301 13.0396 19.5483 13.0369 19.5664 13.0379C19.5842 13.0368 19.6021 13.0391 19.6189 13.0449C19.6358 13.0506 19.6513 13.0595 19.6644 13.0712C19.6776 13.0828 19.6882 13.0969 19.6956 13.1125C19.703 13.1282 19.7071 13.1452 19.7075 13.1624C19.7015 13.1933 19.6847 13.2212 19.6598 13.2415C19.6349 13.2617 19.6035 13.2731 19.5709 13.2736C19.5384 13.274 19.5067 13.2636 19.4811 13.2441C19.4556 13.2246 19.4379 13.1972 19.4309 13.1665H19.4253ZM19.462 13.5027H19.6659V14.5917H19.462V13.5027Z" fill="#666766"/>
<path d="M21.0798 13.9636V14.5884H20.8759V13.986C20.8759 13.773 20.7652 13.6689 20.5726 13.6689C20.356 13.6689 20.2156 13.7934 20.2156 14.0289V14.5884H20.0117V13.0679H20.2156V13.6559C20.2643 13.6009 20.3254 13.5575 20.3943 13.5291C20.4632 13.5006 20.538 13.4879 20.6128 13.4919C20.8865 13.4926 21.0798 13.6444 21.0798 13.9636Z" fill="#666766"/>
<path d="M22.3064 13.933V14.5885H22.1131V14.4449C22.0425 14.5436 21.9198 14.6007 21.7434 14.6007C21.4887 14.6007 21.3271 14.4694 21.3271 14.2815C21.3271 14.1073 21.4443 13.9637 21.7794 13.9637H22.1025V13.9249C22.1025 13.7588 22.0023 13.6628 21.8005 13.6628C21.6715 13.6616 21.5459 13.7026 21.4443 13.7792L21.3589 13.6322C21.4941 13.5381 21.6579 13.4902 21.8245 13.4961C22.1321 13.4927 22.3064 13.6363 22.3064 13.933ZM22.1025 14.257V14.1052H21.7878C21.5868 14.1052 21.5289 14.1808 21.5289 14.2727C21.5289 14.3816 21.6227 14.449 21.7773 14.449C21.8455 14.4538 21.9136 14.4379 21.9719 14.4035C22.0303 14.3691 22.0759 14.3178 22.1025 14.257Z" fill="#666766"/>
<path d="M23.7097 13.9635V14.5883H23.5058V13.986C23.5058 13.7729 23.3951 13.6688 23.2018 13.6688C22.9852 13.6688 22.8455 13.7934 22.8455 14.0288V14.5883H22.6416V13.4993H22.837V13.6634C22.8851 13.6051 22.9469 13.5588 23.0174 13.5285C23.0879 13.4981 23.1649 13.4846 23.242 13.4891C23.5164 13.4925 23.7097 13.6443 23.7097 13.9635Z" fill="#666766"/>
<path d="M24.4663 14.4243L24.5453 14.2644C24.6835 14.3735 24.8571 14.4323 25.0356 14.4304C25.2924 14.4304 25.4032 14.3345 25.4032 14.2092C25.4032 13.8594 24.503 14.0806 24.503 13.5477C24.503 13.3265 24.6808 13.1393 25.0716 13.1393C25.2402 13.1364 25.4061 13.1806 25.5492 13.2666L25.4787 13.4306C25.357 13.3551 25.2156 13.3146 25.0709 13.3135C24.8183 13.3135 24.7104 13.4163 24.7104 13.5409C24.7104 13.8914 25.6106 13.6722 25.6106 14.1983C25.6106 14.4175 25.4279 14.6067 25.0349 14.6067C24.8085 14.6047 24.5855 14.5312 24.4663 14.4243Z" fill="#666766"/>
<path d="M25.8125 13.1665C25.8126 13.1493 25.8162 13.1323 25.8232 13.1165C25.8302 13.1006 25.8404 13.0863 25.8533 13.0743C25.8661 13.0623 25.8812 13.0529 25.8979 13.0467C25.9145 13.0404 25.9322 13.0375 25.9501 13.0379C25.9679 13.0367 25.9858 13.039 26.0027 13.0447C26.0196 13.0504 26.0351 13.0593 26.0483 13.071C26.0615 13.0826 26.0721 13.0967 26.0795 13.1125C26.0869 13.1282 26.0908 13.1452 26.0912 13.1625C26.0849 13.193 26.0679 13.2205 26.0431 13.2404C26.0183 13.2604 25.9872 13.2715 25.955 13.272C25.9227 13.2725 25.8912 13.2622 25.8658 13.2431C25.8404 13.2239 25.8226 13.1969 25.8153 13.1665H25.8125ZM25.8485 13.5028H26.0524V14.5918H25.8485V13.5028Z" fill="#666766"/>
<path d="M27.29 13.933V14.5885H27.0967V14.4449C27.0262 14.5436 26.9034 14.6007 26.7278 14.6007C26.4731 14.6007 26.3115 14.4694 26.3115 14.2815C26.3115 14.1073 26.4279 13.9637 26.7637 13.9637H27.0861V13.9249C27.0861 13.7588 26.9867 13.6628 26.7849 13.6628C26.6557 13.6616 26.5299 13.7026 26.4279 13.7792L26.3433 13.6322C26.4782 13.5381 26.6418 13.4902 26.8082 13.4961C27.1158 13.4927 27.29 13.6363 27.29 13.933ZM27.0861 14.257V14.1052H26.7722C26.5704 14.1052 26.5133 14.1808 26.5133 14.2727C26.5133 14.3816 26.6064 14.449 26.7616 14.449C26.8297 14.4538 26.8977 14.4379 26.9559 14.4034C27.0142 14.369 27.0597 14.3178 27.0861 14.257Z" fill="#666766"/>
<path d="M28.7912 14.046C28.7952 14.1194 28.7832 14.1928 28.7561 14.2615C28.729 14.3302 28.6873 14.3927 28.6337 14.4449C28.5801 14.4971 28.5158 14.538 28.4448 14.5648C28.3739 14.5916 28.298 14.6039 28.2218 14.6007C28.1466 14.6031 28.0719 14.5884 28.0036 14.5578C27.9353 14.5272 27.8755 14.4815 27.8289 14.4245V14.986H27.625V13.5029H27.8204V13.6751C27.8671 13.6157 27.928 13.5681 27.9979 13.5364C28.0678 13.5046 28.1446 13.4896 28.2218 13.4927C28.2979 13.4895 28.3737 13.5016 28.4446 13.5283C28.5155 13.555 28.5798 13.5958 28.6334 13.6479C28.687 13.7 28.7287 13.7623 28.7559 13.8309C28.7831 13.8994 28.7951 13.9727 28.7912 14.046ZM28.5852 14.046C28.5819 13.9744 28.5568 13.9053 28.5132 13.8473C28.4696 13.7893 28.4092 13.7449 28.3397 13.7197C28.2701 13.6944 28.1945 13.6894 28.122 13.7053C28.0495 13.7211 27.9835 13.7572 27.9321 13.8089C27.8806 13.8607 27.8461 13.9258 27.8327 13.9963C27.8193 14.0668 27.8276 14.1396 27.8567 14.2055C27.8857 14.2715 27.9342 14.3278 27.9961 14.3675C28.058 14.4071 28.1306 14.4283 28.2049 14.4285C28.2566 14.4298 28.308 14.4206 28.3558 14.4016C28.4036 14.3826 28.4468 14.3542 28.4825 14.3183C28.5183 14.2823 28.5459 14.2395 28.5636 14.1926C28.5813 14.1457 28.5886 14.0958 28.5852 14.046Z" fill="#666766"/>
<path d="M30.0733 13.9529L29.801 14.2191V14.59H29.5894V13.1546H29.801V13.9529L30.6081 13.1519H30.8501L30.2151 13.7971L30.8903 14.5859H30.6419L30.0733 13.9529Z" fill="#666766"/>
<path d="M32.0069 14.111H31.094C31.1194 14.3016 31.2788 14.4282 31.5018 14.4282C31.5624 14.4301 31.6228 14.4195 31.6788 14.3969C31.7348 14.3744 31.7851 14.3405 31.8263 14.2975L31.9392 14.4241C31.8832 14.4832 31.8144 14.5296 31.7377 14.56C31.661 14.5905 31.5783 14.6043 31.4954 14.6004C31.1321 14.6004 30.8901 14.369 30.8901 14.0457C30.887 13.973 30.8994 13.9004 30.9265 13.8325C30.9537 13.7646 30.995 13.7028 31.0479 13.6509C31.1008 13.599 31.1642 13.5582 31.2341 13.5309C31.3041 13.5037 31.3791 13.4905 31.4545 13.4924C31.7797 13.4924 32.0111 13.7176 32.0111 14.0518C32.0111 14.0682 32.009 14.0927 32.0069 14.111ZM31.094 13.9695H31.8178C31.8075 13.8842 31.765 13.8055 31.6985 13.7484C31.632 13.6913 31.546 13.6597 31.457 13.6597C31.3679 13.6597 31.282 13.6913 31.2155 13.7484C31.149 13.8055 31.1065 13.8842 31.0961 13.9695H31.094Z" fill="#666766"/>
<path d="M32.8554 13.4927V13.6805C32.8399 13.6796 32.8244 13.6796 32.8089 13.6805C32.5902 13.6805 32.4561 13.8092 32.4561 14.0467V14.5912H32.2529V13.5022H32.4476V13.6846C32.5182 13.558 32.6579 13.4927 32.8554 13.4927Z" fill="#666766"/>
<path d="M32.6899 14.9327L32.7556 14.781C32.8031 14.8158 32.8616 14.8338 32.9213 14.832C33.03 14.832 33.0892 14.7639 33.0892 14.6414V13.5028H33.2931V14.6373C33.2931 14.8585 33.1654 14.9981 32.934 14.9981C32.8475 15.0022 32.7619 14.9793 32.6899 14.9327ZM33.0533 13.1631C33.0534 13.1459 33.057 13.1289 33.064 13.1131C33.071 13.0972 33.0812 13.0829 33.094 13.0709C33.1068 13.0589 33.122 13.0495 33.1386 13.0433C33.1552 13.037 33.173 13.034 33.1908 13.0345C33.2087 13.0333 33.2266 13.0356 33.2435 13.0413C33.2604 13.047 33.2759 13.0559 33.2891 13.0676C33.3023 13.0792 33.3129 13.0933 33.3203 13.1091C33.3276 13.1248 33.3316 13.1418 33.3319 13.159C33.3256 13.1896 33.3087 13.2171 33.2839 13.237C33.2591 13.2569 33.228 13.2681 33.1957 13.2686C33.1635 13.269 33.132 13.2588 33.1066 13.2396C33.0812 13.2205 33.0634 13.1935 33.0561 13.1631H33.0533Z" fill="#666766"/>
<path d="M34.5308 13.933V14.5885H34.3375V14.4449C34.2669 14.5436 34.1442 14.6007 33.9685 14.6007C33.7138 14.6007 33.5522 14.4694 33.5522 14.2815C33.5522 14.1073 33.6687 13.9637 34.0045 13.9637H34.3269V13.9249C34.3269 13.7588 34.2274 13.6628 34.0256 13.6628C33.8964 13.6616 33.7706 13.7026 33.6687 13.7792L33.584 13.6322C33.7189 13.5381 33.8825 13.4902 34.0489 13.4961C34.3579 13.4927 34.5308 13.6363 34.5308 13.933ZM34.3269 14.257V14.1052H34.0129C33.8112 14.1052 33.754 14.1808 33.754 14.2727C33.754 14.3816 33.8471 14.449 34.0023 14.449C34.0705 14.4538 34.1384 14.4379 34.1967 14.4034C34.2549 14.369 34.3004 14.3178 34.3269 14.257Z" fill="#666766"/>
</g>
<defs>
<clipPath id="clip0">
<rect width="51.4783" height="16" fill="white"/>
</clipPath>
</defs>
</svg>
