<svg width="545" height="425" viewBox="0 0 545 425" fill="none" xmlns="http://www.w3.org/2000/svg">
<path d="M300.694 396.142L184.87 405.921L297.9 422.685L300.694 396.142Z" fill="#DCDFE3"/>
<path d="M297.902 423.955H297.775L184.872 407.191C184.237 407.064 183.729 406.556 183.729 405.921C183.729 405.286 184.237 404.778 184.872 404.651L300.696 394.872C301.077 394.872 301.458 394.999 301.712 395.253C301.966 395.507 302.093 395.888 302.093 396.269L299.172 422.812C299.172 423.193 298.918 423.447 298.664 423.701C298.41 423.828 298.156 423.955 297.902 423.955ZM195.921 406.302L296.759 421.161L299.299 397.539L195.921 406.302Z" fill="#2F353B"/>
<path d="M306.155 360.836L184.87 403.762L293.074 416.843L306.155 360.836Z" fill="#EEEFF2"/>
<path d="M306.156 360.836L245.323 383.188L230.337 388.776L215.351 394.11L185.379 404.905L185.125 402.492L198.587 404.143L212.049 405.794L239.1 409.096C248.117 410.239 257.134 411.255 266.151 412.525L293.202 416.081L292.44 416.589C294.599 407.318 296.885 398.174 299.298 388.903L306.156 360.836ZM306.156 360.836L300.06 388.649C298.028 398.047 295.996 407.445 293.837 416.97C293.71 417.351 293.456 417.605 293.075 417.478L266.024 414.43C257.007 413.414 247.99 412.398 238.973 411.255L211.922 408.08L198.46 406.429L184.998 404.778C184.363 404.651 183.855 404.143 183.982 403.381C183.982 402.873 184.363 402.492 184.744 402.365L215.351 391.697L230.718 386.363L245.958 381.156L306.156 360.836Z" fill="#2F353B"/>
<path d="M19.0106 384.966C4.7866 353.216 -1.8174 317.402 1.6116 280.191C12.0256 165.256 113.372 80.5468 227.799 90.9608C327.875 100.105 404.964 178.972 415.632 275.619" fill="#FFB230"/>
<path d="M194.142 204.118C194.142 204.118 138.516 209.198 106.512 217.199C77.8103 224.311 70.0633 235.614 67.6503 251.616C63.5863 278.794 46.8223 375.822 46.8223 375.822L158.455 346.358" fill="#DCDFE3"/>
<path d="M194.143 204.118C171.791 206.912 149.439 210.087 127.341 214.151C121.88 215.167 116.292 216.31 110.831 217.707C105.37 218.977 100.036 220.501 94.8293 222.406C89.6223 224.438 84.7963 226.851 80.6053 230.28C76.4143 233.709 73.3663 238.154 71.5883 243.107C70.6993 245.647 70.0643 248.314 69.6833 250.981L68.4133 259.363C67.5243 264.951 66.6353 270.539 65.7463 276.127L60.0313 309.528L54.0623 342.802L47.8393 376.076L46.4423 374.806L74.3823 367.567L102.322 360.455L130.262 353.343L158.202 346.358L130.389 354.105L102.576 361.725L74.7633 369.345L46.9503 376.838L45.2993 377.346L45.5533 375.568L50.8873 342.167L56.3483 308.766L61.8093 275.365L64.4763 258.728L65.7463 250.346C66.2543 247.425 66.8893 244.631 67.9053 241.837C68.9213 239.043 70.3183 236.376 71.9693 233.963C73.7473 231.55 75.7793 229.391 78.0653 227.486C82.6373 223.803 87.9713 221.263 93.4323 219.231C98.7663 217.199 104.354 215.802 109.942 214.659C115.53 213.389 121.118 212.5 126.579 211.484C149.185 208.055 171.664 205.642 194.143 204.118Z" fill="#2F353B"/>
<path d="M179.542 126.393L182.463 97.9453L204.18 100.358L235.295 119.789L226.024 139.601L221.96 154.206L180.558 129.695L179.542 126.393Z" fill="#FFDECC"/>
<path d="M221.959 155.477C221.705 155.477 221.451 155.477 221.324 155.35L179.922 130.839C179.668 130.712 179.414 130.458 179.414 130.077L178.398 126.648C178.398 126.521 178.271 126.267 178.398 126.14L181.319 97.8188C181.319 97.4378 181.573 97.1838 181.827 96.9298C182.081 96.6758 182.462 96.6758 182.716 96.6758L204.433 99.0888C204.56 99.0888 204.814 99.2158 204.941 99.2158L236.056 118.647C236.564 119.028 236.818 119.663 236.564 120.298L227.293 139.983L223.229 154.461C223.102 154.842 222.848 155.096 222.467 155.35C222.213 155.477 222.086 155.477 221.959 155.477ZM181.573 128.934L221.07 152.302L224.753 139.221C224.753 139.094 224.753 139.094 224.88 138.967L233.643 120.171L203.671 101.502L183.605 99.4698L180.811 126.267L181.573 128.934Z" fill="#A86E4F"/>
<path d="M256.753 196.752C259.166 202.975 265.262 223.168 268.564 234.344C270.088 239.297 270.469 244.377 269.961 249.457C268.056 267.745 254.086 302.543 264.246 316.767L127.467 354.74L138.135 313.846L133.055 253.013L126.832 298.098C108.29 301.4 72.8574 291.113 72.8574 291.113C78.4454 237.646 102.067 171.479 111.592 161.065C129.499 141.507 168.869 138.586 168.869 138.586C175.219 135.411 178.521 130.585 180.172 122.33C180.172 122.33 211.16 141.126 232.369 125.759L232.242 140.872C232.242 140.872 249.26 142.142 264.627 149.762C280.629 157.763 303.489 249.838 307.045 261.903C307.045 261.903 296.25 279.683 267.802 279.429L266.151 269.015" fill="#1386FC"/>
<path d="M256.753 196.752C258.531 201.578 260.055 206.531 261.706 211.357L266.278 226.089L268.564 233.455C269.326 235.868 269.961 238.408 270.215 241.075C270.469 243.615 270.596 246.282 270.342 248.822C270.088 251.362 269.707 253.902 269.199 256.442C267.167 266.602 264.5 276.508 262.722 286.668C261.833 291.748 261.198 296.828 261.198 301.908C261.198 304.448 261.452 306.988 261.96 309.401C262.468 311.814 263.357 314.227 264.881 316.259C265.135 316.513 265.008 316.894 264.754 317.148C264.754 317.148 264.627 317.275 264.5 317.275L127.721 355.629C127.213 355.756 126.578 355.502 126.451 354.867C126.451 354.74 126.451 354.486 126.451 354.359L136.992 313.465V313.846L131.912 253.013H134.198L127.975 298.098C127.848 298.606 127.467 298.987 126.959 299.114C122.26 299.876 117.688 299.876 112.989 299.622C108.417 299.368 103.845 298.733 99.2728 298.098C94.7008 297.336 90.2558 296.447 85.8108 295.558C81.3658 294.542 76.9208 293.526 72.4758 292.256C71.8408 292.129 71.4598 291.494 71.5868 290.986C73.3648 274.349 76.5398 257.966 80.4768 241.837C84.4138 225.708 89.2398 209.706 94.8278 193.958C97.6218 186.084 100.67 178.337 104.353 170.844C105.242 168.939 106.258 167.034 107.274 165.256C108.29 163.478 109.433 161.573 110.957 159.922C113.878 156.874 117.307 154.207 120.863 151.921C128.102 147.476 135.976 144.428 143.977 142.142C152.105 139.856 160.233 138.332 168.615 137.57L168.234 137.697C171.155 136.173 173.822 134.141 175.473 131.347C177.251 128.68 178.267 125.378 178.902 122.076C179.029 121.441 179.537 121.06 180.172 121.187C180.299 121.187 180.426 121.314 180.553 121.314C184.363 123.6 188.554 125.505 192.872 127.029C197.19 128.553 201.508 129.696 205.953 130.331C210.398 130.966 214.97 130.966 219.415 130.204C223.86 129.442 228.051 127.664 231.607 124.997C231.988 124.743 232.623 124.743 232.877 125.251C233.004 125.378 233.004 125.632 233.004 125.759L232.75 140.872L231.988 139.983C238.465 140.618 244.815 142.015 251.165 143.793C254.34 144.682 257.388 145.825 260.309 147.095C261.833 147.73 263.23 148.492 264.754 149.127C266.278 150.016 267.548 151.159 268.691 152.429C270.85 154.969 272.501 157.763 274.025 160.684C275.549 163.605 276.946 166.526 278.216 169.447C280.756 175.416 283.169 181.385 285.328 187.481C289.646 199.673 293.329 211.992 296.885 224.438C300.441 236.884 303.743 249.33 307.045 261.776C307.045 261.903 307.045 261.903 307.045 262.03C304.886 265.205 302.219 267.745 299.171 270.031C296.123 272.317 292.948 274.095 289.392 275.492C282.407 278.286 274.914 279.429 267.548 279.302L266.024 268.888L267.675 279.302C275.041 279.302 282.534 278.159 289.392 275.238C292.821 273.841 295.996 271.936 299.044 269.65C301.965 267.364 304.632 264.697 306.664 261.649V261.903C303.235 249.457 299.806 237.011 296.123 224.692C292.44 212.373 288.503 200.054 284.185 187.862C282.026 181.766 279.74 175.797 277.073 169.955C275.803 167.034 274.406 164.113 272.882 161.319C271.358 158.525 269.707 155.731 267.675 153.445C266.659 152.302 265.516 151.159 264.246 150.524C262.849 149.889 261.325 149.127 259.928 148.619C257.007 147.349 253.959 146.333 250.911 145.444C244.815 143.666 238.465 142.396 232.115 141.761C231.607 141.761 231.353 141.38 231.353 140.872L231.48 125.759L233.004 126.521C229.194 129.315 224.749 131.22 220.05 132.109C215.351 132.998 210.652 132.998 205.953 132.363C201.254 131.728 196.809 130.585 192.364 129.061C187.919 127.537 183.728 125.632 179.664 123.219L181.315 122.457C180.68 125.886 179.664 129.442 177.632 132.49C176.616 134.014 175.473 135.411 174.076 136.554C172.679 137.697 171.155 138.713 169.504 139.475C169.377 139.602 169.25 139.602 169.123 139.602C160.995 140.364 152.74 141.888 144.866 144.174C136.992 146.46 129.245 149.508 122.26 153.826C118.831 155.985 115.656 158.525 112.862 161.446C111.465 162.843 110.449 164.621 109.433 166.272C108.417 168.05 107.528 169.828 106.639 171.733C103.083 179.226 100.035 186.846 97.2408 194.72C91.6528 210.341 86.9538 226.216 83.0168 242.345C79.0798 258.474 76.0318 274.73 74.2538 291.24L73.3648 289.97C77.6828 291.24 82.1278 292.256 86.5728 293.272C91.0178 294.288 95.4628 295.177 99.9078 295.812C104.353 296.574 108.925 297.082 113.37 297.336C117.815 297.59 122.387 297.59 126.705 296.828L125.689 297.844L131.912 252.759C132.039 252.124 132.547 251.743 133.182 251.743C133.69 251.87 134.198 252.251 134.198 252.759L139.151 313.592C139.151 313.719 139.151 313.846 139.151 313.973L128.483 354.867L127.213 353.597L264.119 316.005L263.738 317.021C262.214 314.862 261.198 312.322 260.69 309.655C260.182 307.115 259.928 304.448 260.055 301.908C260.055 296.701 260.817 291.621 261.833 286.541C263.738 276.381 266.532 266.475 268.691 256.442C269.199 253.902 269.58 251.362 269.834 248.822C270.088 246.282 270.088 243.742 269.834 241.202C269.58 238.662 269.072 236.122 268.31 233.709L266.151 226.343L261.706 211.611C260.055 206.531 258.531 201.578 256.753 196.752Z" fill="#2F353B"/>
<path d="M137.119 228.756L164.17 317.656L166.075 342.802L138.262 354.74H127.467L138.135 313.846L133.182 253.013L137.119 228.756Z" fill="#1D61D5"/>
<path d="M127.47 356.01C127.089 356.01 126.835 355.883 126.581 355.629C126.2 355.248 126.073 354.867 126.2 354.359L136.741 313.719L132.677 264.57L127.978 298.225C127.851 298.733 127.47 299.241 126.962 299.241C108.293 302.543 73.8758 292.637 72.3518 292.256C71.7168 292.129 71.3358 291.494 71.4628 290.859C77.0508 236.503 100.8 170.717 110.579 160.049C119.977 149.635 135.344 144.047 146.52 141.126C157.442 138.205 166.713 137.443 168.364 137.189C174.206 134.141 177.254 129.696 178.778 121.822C178.905 121.441 179.159 121.06 179.54 120.933C179.921 120.806 180.429 120.806 180.81 121.06C181.064 121.187 205.956 139.348 231.61 124.489C231.991 124.235 232.499 124.235 232.88 124.489C233.261 124.743 233.515 125.124 233.515 125.632L233.388 139.475C237.579 139.856 251.803 141.761 265.138 148.492C278.346 155.096 294.983 212.119 306.286 254.537C307.175 257.712 307.81 260.125 308.191 261.522C308.318 261.903 308.191 262.284 308.064 262.538C307.556 263.3 296.634 280.953 267.678 280.572C267.043 280.572 266.535 280.064 266.408 279.556L265.773 275.619C262.217 291.24 259.296 307.496 265.265 315.878C265.519 316.259 265.519 316.64 265.392 317.021C265.265 317.402 264.884 317.656 264.503 317.783L127.851 356.01C127.724 356.01 127.597 356.01 127.47 356.01ZM133.185 251.743C133.82 251.743 134.455 252.251 134.455 252.886L139.535 313.719C139.535 313.846 139.535 313.973 139.535 314.1L129.502 352.835L262.344 316.005C256.248 305.21 260.82 286.033 264.884 269.015C264.884 268.888 264.884 268.888 264.884 268.761C264.884 268.761 264.884 268.761 264.884 268.634C266.662 261.395 268.186 254.537 268.821 249.203C269.329 244.25 268.821 239.297 267.424 234.598C263.995 223.168 257.899 203.229 255.613 197.133C255.359 196.498 255.74 195.736 256.375 195.482C257.01 195.228 257.772 195.609 258.026 196.244C260.439 202.467 266.535 222.533 269.837 233.963C271.361 239.043 271.869 244.25 271.361 249.584C270.853 255.045 269.202 261.903 267.424 269.142L268.821 278.286C292.951 278.159 303.746 264.57 305.524 261.903C305.143 260.506 304.508 258.22 303.746 255.426C300.317 242.472 293.84 218.469 286.347 196.244C274.917 162.462 267.932 153.064 263.868 151.032C248.882 143.539 232.118 142.269 231.864 142.269C231.229 142.269 230.721 141.634 230.721 140.999L230.848 128.172C208.242 139.983 186.779 128.426 180.81 124.616C179.032 132.109 175.476 136.808 169.253 139.983C169.126 140.11 168.999 140.11 168.745 140.11C168.364 140.11 129.629 143.158 112.357 162.081C103.086 172.241 79.7178 237.646 74.0028 290.351C79.8448 292.002 108.928 299.622 125.438 297.209L131.534 253.013C131.915 252.251 132.55 251.743 133.185 251.743Z" fill="#2F353B"/>
<path d="M6.18213 388.141L19.5171 384.077L32.8521 380.013L59.5221 372.012C77.3021 366.805 95.2091 361.471 112.989 356.391C130.769 351.184 148.676 346.231 166.583 341.024L220.177 326.038L273.898 311.306C291.805 306.48 309.712 301.527 327.746 296.828C345.653 292.002 363.687 287.303 381.594 282.604L408.645 275.746L422.107 272.317L435.696 269.015L422.361 273.079L409.026 277.143L382.356 285.144C364.576 290.351 346.669 295.685 328.889 300.765C311.109 305.972 293.202 310.925 275.295 316.132L221.701 330.991L167.98 345.723C150.073 350.549 132.166 355.502 114.132 360.201C96.2251 365.027 78.1911 369.726 60.2841 374.425L33.2331 381.283L19.7711 384.839L6.18213 388.141Z" fill="#2F353B"/>
<path d="M305.143 263.935C305.143 263.935 307.683 279.302 309.588 282.858C311.493 286.541 343.243 313.846 348.831 316.64C348.831 316.64 341.084 334.928 341.592 339.5C341.592 339.5 277.965 311.814 273.647 300.384C269.329 288.827 267.678 279.429 267.678 279.429L305.143 263.935Z" fill="#FFDECC"/>
<path d="M342.481 340.643L341.465 340.135C338.798 338.992 277.584 312.322 273.266 300.638C268.948 289.208 267.17 279.683 267.17 279.556L267.043 279.048L305.651 263.046L305.778 263.808C305.778 263.935 308.445 279.048 310.223 282.604C312.001 286.033 343.751 313.338 349.212 316.132L349.72 316.386L349.466 316.894C347.307 321.974 341.846 335.817 342.354 339.373L342.481 340.643ZM268.44 279.81C268.821 281.969 270.599 290.351 274.282 300.13C278.219 310.544 333.21 335.055 340.957 338.484C341.338 333.15 346.799 319.815 347.942 316.894C340.957 312.83 310.731 286.795 308.826 283.112C307.175 279.81 305.016 267.999 304.508 264.697L268.44 279.81Z" fill="#A86E4F"/>
<path d="M273.392 277.143C273.392 277.143 278.98 295.812 283.679 298.987C288.251 302.035 324.573 331.245 324.573 331.245C324.573 331.245 284.695 315.624 275.678 303.178C271.741 297.717 267.931 279.556 267.931 279.556L273.392 277.143Z" fill="#F8CAB1"/>
<path d="M342.481 340.643L341.465 340.135C338.798 338.992 277.584 312.322 273.266 300.638C268.948 289.208 267.17 279.683 267.17 279.556L267.043 279.048L305.651 263.046L305.778 263.808C305.778 263.935 308.445 279.048 310.223 282.604C312.001 286.033 343.751 313.338 349.212 316.132L349.72 316.386L349.466 316.894C347.307 321.974 341.846 335.817 342.354 339.373L342.481 340.643ZM268.44 279.81C268.821 281.969 270.599 290.351 274.282 300.13C278.219 310.544 333.21 335.055 340.957 338.484C341.338 333.15 346.799 319.815 347.942 316.894C340.957 312.83 310.731 286.795 308.826 283.112C307.175 279.81 305.016 267.999 304.508 264.697L268.44 279.81Z" fill="#2F353B"/>
<path d="M168.106 74.8315C156.041 70.5135 159.47 88.6745 167.344 94.1355C171.281 96.8025 172.551 98.3265 175.472 102.644C178.774 107.47 182.584 101.247 182.584 101.247C182.584 101.247 186.775 110.645 192.744 117.884C198.713 125.123 227.034 135.156 234.654 134.013C242.274 132.87 251.926 108.486 251.926 108.486C253.577 101.628 261.451 91.5955 254.339 76.7365C249.894 67.4655 253.831 64.7985 253.45 58.9565C252.815 51.2095 250.275 36.7315 238.337 26.0635C226.399 15.3955 193.506 14.6335 186.013 34.0645C182.838 42.1925 170.011 58.9565 170.011 58.9565L168.106 74.8315Z" fill="#FFDECC"/>
<path d="M168.107 74.832C167.091 74.451 166.075 74.324 165.059 74.197C164.043 74.197 163.027 74.324 162.265 74.959C161.503 75.594 160.995 76.483 160.741 77.372C160.487 78.388 160.487 79.404 160.487 80.293C160.741 84.357 162.519 88.167 165.059 91.342C165.694 92.104 166.456 92.739 167.218 93.374C167.98 93.882 168.869 94.517 169.758 95.152C171.409 96.422 172.933 97.946 174.076 99.597C174.711 100.486 175.346 101.248 175.854 102.137C176.362 102.899 176.997 103.661 177.886 103.788C178.648 103.915 179.41 103.534 180.172 103.026C180.934 102.391 181.569 101.629 182.077 100.867C182.331 100.613 182.712 100.486 182.966 100.613C183.093 100.74 183.22 100.74 183.22 100.867C184.871 104.423 186.903 107.979 189.062 111.281C190.205 112.932 191.348 114.583 192.618 116.107L193.507 117.25C193.761 117.631 194.142 117.885 194.523 118.266C195.285 118.901 196.047 119.536 196.809 120.044C200.111 122.203 203.667 123.981 207.35 125.505C211.033 127.029 214.843 128.426 218.653 129.696C222.463 130.839 226.273 131.982 230.21 132.617C231.226 132.744 232.115 132.871 233.131 132.871C233.639 132.871 234.02 132.871 234.528 132.871C234.909 132.871 235.29 132.744 235.671 132.49C237.195 131.728 238.592 130.331 239.735 128.807C242.148 125.759 244.18 122.33 245.958 118.774C247.736 115.218 249.387 111.535 250.911 107.852V107.979C251.419 106.074 252.181 104.296 252.816 102.518C253.451 100.74 254.213 99.089 254.721 97.438C255.864 94.009 256.372 90.453 256.118 86.897C255.864 83.341 254.848 79.912 253.197 76.737C252.435 74.959 251.673 73.181 251.292 71.149C250.911 69.244 251.038 67.085 251.419 65.18C251.8 63.275 252.308 61.624 252.308 59.846C252.308 59.465 252.308 58.957 252.308 58.576L252.181 57.179C252.054 56.29 251.927 55.401 251.8 54.512C251.292 50.956 250.403 47.4 249.133 43.971C246.72 37.113 242.529 30.89 237.068 26.191C234.401 23.905 231.099 22.381 227.67 21.238C224.241 20.095 220.685 19.46 217.002 19.206C209.763 18.825 202.27 19.841 195.92 23.397C192.745 25.175 190.078 27.588 188.173 30.636C187.665 31.398 187.284 32.16 186.903 33.049C186.522 33.811 186.141 34.7 185.76 35.589C184.871 37.24 183.982 38.891 182.966 40.542C179.029 46.892 174.584 52.861 170.012 58.703V58.576L168.107 74.832ZM168.107 74.832L169.631 59.084V58.957C174.076 52.988 178.267 46.892 181.95 40.542C182.839 38.891 183.728 37.367 184.49 35.716L185.506 33.176C185.887 32.287 186.268 31.398 186.776 30.636C188.681 27.334 191.602 24.667 194.904 22.762C198.206 20.857 201.889 19.587 205.572 18.825C209.255 18.063 213.065 17.809 216.875 18.063C220.685 18.19 224.368 18.825 228.051 19.968C231.734 21.111 235.29 22.635 238.211 25.175C244.053 30.128 248.371 36.732 251.038 43.844C252.308 47.4 253.324 51.083 253.832 54.893C253.959 55.782 254.086 56.798 254.213 57.687L254.34 59.084C254.34 59.592 254.34 60.1 254.34 60.608C254.34 62.64 253.705 64.545 253.451 66.323C252.689 69.752 253.578 73.054 255.102 76.356C256.753 79.785 258.023 83.595 258.277 87.405C258.531 91.342 257.896 95.152 256.753 98.835C255.61 102.518 253.832 105.82 252.943 109.122V109.249C251.419 113.059 249.641 116.742 247.863 120.298C245.958 123.854 243.926 127.41 241.259 130.712C239.862 132.363 238.465 133.887 236.306 134.903C235.798 135.157 235.163 135.284 234.528 135.411C233.893 135.538 233.385 135.538 232.877 135.538C231.861 135.538 230.718 135.411 229.702 135.284C225.638 134.649 221.701 133.506 217.764 132.236C213.954 130.966 210.144 129.442 206.334 127.791C202.651 126.14 198.968 124.235 195.539 121.949C194.65 121.314 193.888 120.679 193.126 120.044C192.745 119.663 192.364 119.282 191.983 118.901L190.967 117.631C189.697 115.98 188.554 114.329 187.411 112.551C185.252 109.122 183.347 105.566 181.696 101.756L182.839 101.883C182.204 102.772 181.569 103.661 180.68 104.296C179.791 104.931 178.648 105.566 177.251 105.312C175.981 105.058 175.219 104.042 174.584 103.153C174.076 102.264 173.441 101.502 172.933 100.613C171.79 98.962 170.393 97.438 168.869 96.168C168.107 95.533 167.218 95.025 166.456 94.39C165.567 93.755 164.932 92.993 164.17 92.104C162.9 90.453 161.884 88.675 161.122 86.77C160.36 84.865 159.852 82.833 159.852 80.674C159.852 79.658 159.852 78.642 160.233 77.626C160.487 76.61 161.122 75.721 162.011 75.086C162.9 74.451 163.916 74.324 164.932 74.324C166.075 74.197 167.091 74.451 168.107 74.832Z" fill="#A86E4F"/>
<path d="M194.399 43.5906C175.476 40.1616 189.319 85.6276 179.54 82.7066C174.333 81.1826 173.317 76.1026 165.189 74.1976C162.014 73.4356 158.712 77.8806 160.49 82.9606C160.49 82.9606 154.013 80.5476 152.108 64.6726C150.203 48.7976 161.506 20.9846 180.937 12.3486C198.971 4.34756 230.721 12.3486 244.564 31.2716C244.564 31.2716 234.658 50.9566 194.399 43.5906Z" fill="#2F353B"/>
<path d="M242.621 75.0708C242.665 72.967 241.791 71.2425 240.669 71.219C239.547 71.1955 238.602 72.8819 238.558 74.9857C238.514 77.0895 239.388 78.814 240.51 78.8375C241.632 78.8609 242.577 77.1745 242.621 75.0708Z" fill="#2F353B"/>
<path d="M230.337 67.2123C230.337 67.2123 237.068 58.1953 247.99 66.5773C247.99 66.5773 241.005 65.4343 230.337 67.2123Z" fill="#2F353B"/>
<path d="M210.558 77.7788C210.603 75.675 209.729 73.9505 208.607 73.927C207.485 73.9035 206.539 75.5899 206.495 77.6937C206.451 79.7975 207.325 81.522 208.447 81.5455C209.569 81.569 210.514 79.8825 210.558 77.7788Z" fill="#2F353B"/>
<path d="M198.84 70.6409C198.84 70.6409 204.936 61.2429 216.366 68.8629C216.493 68.8629 209.381 68.1009 198.84 70.6409Z" fill="#2F353B"/>
<path d="M226.149 76.8643C228.943 81.3093 231.483 85.8813 233.896 90.5803L234.785 92.3583C235.039 92.8663 235.42 93.6283 235.42 94.5173C235.293 95.4063 234.785 96.0413 234.277 96.5493C233.642 97.0573 233.007 97.3113 232.372 97.5653C229.705 98.3273 226.911 97.6923 224.498 96.6763C227.038 97.3113 229.705 97.4383 231.991 96.5493C233.134 96.1683 234.15 95.4063 234.277 94.3903C234.277 93.8823 234.023 93.5013 233.769 92.8663L232.88 91.0883C230.34 86.3893 228.181 81.6903 226.149 76.8643Z" fill="#2F353B"/>
<path d="M154.771 57.0522C170.412 57.0522 183.092 44.3724 183.092 28.7312C183.092 13.0899 170.412 0.410156 154.771 0.410156C139.13 0.410156 126.45 13.0899 126.45 28.7312C126.45 44.3724 139.13 57.0522 154.771 57.0522Z" fill="#2F353B"/>
<path d="M174.837 96.6759C171.916 94.7709 168.868 92.7389 167.344 89.4369C166.582 87.7859 166.582 85.7539 167.344 83.9759C167.725 83.0869 168.233 82.3249 168.995 81.6899C169.757 81.0549 170.646 80.5469 171.662 80.6739C172.17 80.6739 172.805 81.0549 173.059 81.5629C173.313 82.0709 173.313 82.4519 173.44 82.9599C173.567 83.8489 173.567 84.7379 173.567 85.6269C173.567 87.4049 173.567 89.1829 173.694 90.8339C173.694 91.2149 173.821 91.7229 173.948 91.9769C173.948 92.1039 174.075 92.1039 174.075 92.1039C174.075 92.1039 174.202 92.2309 174.329 92.3579C174.456 92.4849 174.71 92.6119 174.837 92.7389C175.472 93.2469 176.361 93.6279 176.742 92.8659C176.869 92.7389 176.869 92.4849 176.996 92.2309C177.123 91.9769 177.504 91.8499 177.758 91.9769C178.266 92.1039 178.52 92.4849 178.901 92.7389C179.536 93.3739 180.044 94.0089 180.679 94.7709C180.044 94.1359 179.409 93.5009 178.774 92.9929C178.393 92.7389 178.012 92.4849 177.758 92.3579C177.377 92.2309 177.377 92.6119 177.25 93.1199C177.123 93.3739 176.996 93.6279 176.742 93.7549C176.488 93.8819 176.234 93.8819 175.98 93.8819C175.472 93.7549 175.091 93.5009 174.71 93.3739C174.456 93.2469 174.329 93.1199 174.202 92.9929C174.075 92.8659 174.075 92.8659 173.948 92.7389C173.821 92.6119 173.694 92.4849 173.694 92.3579C173.44 91.8499 173.44 91.4689 173.313 90.9609C173.059 89.1829 173.186 87.4049 173.059 85.7539C173.059 84.8649 172.932 83.9759 172.805 83.2139C172.678 82.8329 172.678 82.3249 172.551 82.0709C172.424 81.8169 172.17 81.6899 171.916 81.6899C171.281 81.6899 170.519 82.0709 169.884 82.4519C169.249 82.9599 168.741 83.5949 168.36 84.3569C167.979 85.1189 167.852 85.8809 167.852 86.7699C167.852 87.5319 167.979 88.4209 168.36 89.1829C168.995 90.7069 170.011 92.1039 171.281 93.3739C172.17 94.5169 173.567 95.5329 174.837 96.6759Z" fill="#A86E4F"/>
<path d="M481.165 234.852L459.575 371.123C459.067 373.155 457.289 374.552 455.257 374.679L296.507 422.558C293.078 422.812 290.411 419.51 291.427 416.208L317.208 268.253C317.843 266.348 319.494 265.078 321.399 264.951L475.958 228.756C479.387 228.502 482.054 231.677 481.165 234.852Z" fill="#2F353B"/>
<path d="M296.126 423.955C294.221 423.955 292.443 423.066 291.3 421.669C290.03 420.018 289.649 417.986 290.284 416.081L316.065 268.126V267.999C316.827 265.713 318.859 264.062 321.272 263.808L475.704 227.74H475.831C477.863 227.613 479.768 228.375 481.038 229.899C482.308 231.423 482.816 233.455 482.308 235.36L460.718 371.504C460.083 374.044 457.924 375.949 455.384 376.203L296.761 424.082C296.634 424.082 296.634 424.082 296.507 424.082C296.507 423.955 296.253 423.955 296.126 423.955ZM318.478 268.634L292.824 416.462V416.589C292.443 417.732 292.697 419.002 293.459 419.891C294.221 420.78 295.237 421.288 296.507 421.288L455.13 373.409C455.257 373.409 455.257 373.409 455.384 373.409C456.908 373.282 458.178 372.266 458.559 370.742L480.022 234.598V234.471C480.276 233.328 480.022 232.185 479.26 231.296C478.498 230.407 477.482 229.899 476.339 230.026L321.907 266.094H321.78C320.129 266.348 318.986 267.237 318.478 268.634Z" fill="#2F353B"/>
<path d="M186.14 402.238C186.14 402.238 182.712 402.111 183.347 405.794C183.601 407.191 185.887 407.318 185.887 407.318L186.521 404.143L186.14 402.238Z" fill="#2F353B"/>
<path d="M409.295 324.616C410.879 316.135 406.35 308.175 399.179 306.835C392.009 305.496 384.912 311.285 383.328 319.766C381.744 328.246 386.273 336.207 393.443 337.546C400.614 338.885 407.711 333.096 409.295 324.616Z" fill="#EEEFF2"/>
<path d="M395.565 338.991C394.803 338.991 394.041 338.864 393.279 338.737C385.405 337.213 380.452 328.577 382.23 319.433C384.008 310.289 391.755 303.939 399.502 305.463C407.376 306.987 412.329 315.623 410.551 324.767C409.027 333.149 402.55 338.991 395.565 338.991ZM397.216 307.876C391.374 307.876 386.04 312.956 384.643 320.068C383.246 327.815 387.183 335.181 393.66 336.451C400.137 337.594 406.487 332.26 408.011 324.513C409.408 316.766 405.471 309.4 398.994 308.13C398.359 307.876 397.724 307.876 397.216 307.876Z" fill="#2F353B"/>
<path d="M214.591 105.186C216.496 106.329 218.274 107.345 220.179 108.107C221.068 108.488 222.084 108.742 223.1 108.996C224.116 109.25 225.132 109.377 226.148 109.631C225.132 110.012 223.989 110.139 222.846 110.012C221.703 109.885 220.687 109.631 219.671 109.25C218.655 108.869 217.639 108.234 216.75 107.599C215.861 106.964 215.099 106.202 214.591 105.186Z" fill="#2F353B"/>
<path d="M130.007 275.746C130.134 271.047 130.642 266.475 131.15 261.776C131.658 257.204 132.293 252.505 132.928 247.933C133.69 243.361 134.325 238.789 135.214 234.217C136.103 229.645 136.992 225.073 138.262 220.628C138.135 225.327 137.627 229.899 137.119 234.598C136.611 239.17 135.976 243.869 135.341 248.441C134.579 253.013 133.944 257.585 133.055 262.157C132.166 266.602 131.277 271.174 130.007 275.746Z" fill="#2F353B"/>
<path d="M261.578 385.475L253.45 392.333L270.341 403.128L280.374 400.588L277.834 387.761L270.087 382.935L261.578 385.475Z" fill="#FFDECC"/>
<path d="M249.64 400.841C249.64 400.841 262.721 401.476 267.674 404.143L265.261 399.063L256.625 396.65L249.64 400.841Z" fill="#FFDECC"/>
<path d="M267.676 404.524C267.549 404.524 267.549 404.524 267.422 404.524C262.596 401.984 249.642 401.349 249.515 401.349C249.261 401.349 249.134 401.222 249.134 400.968C249.134 400.714 249.134 400.587 249.388 400.46L256.5 396.396C256.627 396.269 256.754 396.269 256.881 396.396L265.517 398.809C265.644 398.809 265.771 398.936 265.771 399.063L268.184 404.143C268.311 404.27 268.184 404.524 268.057 404.651C267.93 404.524 267.803 404.524 267.676 404.524ZM251.166 400.46C254.468 400.714 262.215 401.476 266.66 403.127L264.882 399.444L256.754 397.158L251.166 400.46Z" fill="#A86E4F"/>
<path d="M283.17 396.142C283.17 396.142 287.615 396.396 289.393 398.301C291.171 400.206 286.98 404.016 284.567 403.762C282.027 403.508 283.17 396.142 283.17 396.142Z" fill="#FFDECC"/>
<path d="M284.818 404.397C284.691 404.397 284.564 404.397 284.437 404.397C283.929 404.397 283.421 404.016 283.167 403.635C281.77 401.73 282.405 396.65 282.532 396.142C282.532 395.761 282.913 395.634 283.167 395.634C283.294 395.634 287.866 396.015 289.771 398.047C290.533 398.809 290.533 399.825 290.025 400.968C289.136 402.492 286.723 404.397 284.818 404.397ZM283.675 396.904C283.421 398.936 283.421 401.857 284.183 402.873C284.31 403.127 284.437 403.127 284.564 403.127C285.834 403.254 288.12 401.857 288.882 400.206C289.136 399.571 289.136 399.063 288.882 398.682C287.612 397.539 284.945 397.031 283.675 396.904Z" fill="#A86E4F"/>
<path d="M278.976 403.381C278.976 403.381 279.865 406.048 280.119 407.318C280.373 408.588 282.659 410.747 283.675 409.35C284.691 408.08 284.564 400.206 284.056 399.317C283.548 398.428 281.897 390.681 280.119 388.903C278.341 387.125 272.88 382.68 272.118 382.045" fill="#FFDECC"/>
<path d="M278.976 403.381C279.23 404.143 279.611 405.032 279.865 405.794L280.246 407.064C280.373 407.445 280.5 407.826 280.754 408.08C281.262 408.715 281.897 409.35 282.532 409.477C282.913 409.477 283.04 409.477 283.294 409.223C283.421 408.969 283.548 408.588 283.548 408.207C283.802 406.556 283.802 404.905 283.802 403.254C283.802 402.365 283.802 401.603 283.675 400.714C283.675 400.333 283.548 399.825 283.548 399.698C283.421 399.19 283.294 398.809 283.167 398.428C282.659 396.777 282.278 395.126 281.77 393.602C281.516 392.84 281.262 391.951 280.881 391.316C280.5 390.554 280.246 389.919 279.611 389.411L275.801 385.982C274.531 384.839 273.261 383.696 272.118 382.426C273.515 383.442 274.785 384.458 276.182 385.474L280.246 388.649C280.627 388.903 281.008 389.284 281.135 389.665C281.389 390.046 281.643 390.427 281.77 390.808C282.151 391.57 282.532 392.459 282.786 393.221C283.421 394.872 283.802 396.523 284.31 398.174C284.437 398.555 284.564 399.063 284.691 399.317C284.945 399.952 284.818 400.333 284.945 400.714C285.072 401.603 285.072 402.492 285.072 403.254C285.072 405.032 284.945 406.683 284.564 408.461C284.437 408.842 284.31 409.35 284.056 409.858C283.675 410.366 282.913 410.493 282.405 410.366C281.389 409.985 280.754 409.35 280.246 408.588C280.119 408.334 279.992 408.207 279.992 407.953C279.865 407.699 279.865 407.445 279.865 407.318L279.611 406.048C279.23 405.032 279.103 404.27 278.976 403.381Z" fill="#A86E4F"/>
<path d="M267.292 386.744C269.197 387.76 274.277 391.697 275.293 392.713C276.309 393.729 278.087 399.19 278.976 404.524C279.865 409.858 277.325 408.969 276.182 408.588C275.039 408.207 274.912 406.556 274.912 406.556C274.785 406.048 273.769 403.762 273.769 403.762C273.769 403.762 272.626 401.603 270.213 398.809" fill="#FFDECC"/>
<path d="M267.292 386.744C268.562 387.252 269.578 388.014 270.721 388.776C271.864 389.538 272.88 390.3 274.023 391.062C274.531 391.443 275.039 391.824 275.547 392.332C276.055 392.967 276.309 393.602 276.69 394.11C277.198 395.38 277.706 396.65 278.087 397.92C278.849 400.46 279.484 403 279.738 405.794C279.738 406.556 279.738 407.191 279.484 407.953C279.357 408.334 279.103 408.715 278.722 409.096C278.341 409.35 277.833 409.477 277.452 409.477C277.071 409.477 276.69 409.35 276.309 409.223C276.182 409.223 276.055 409.096 275.801 409.096C275.547 408.969 275.42 408.842 275.293 408.715C274.658 408.08 274.531 407.318 274.404 406.556V406.683C274.15 406.048 273.896 405.286 273.642 404.651C273.388 403.889 273.007 403.381 272.626 402.619C271.864 401.349 270.975 400.079 270.086 398.936C271.229 399.952 272.245 401.095 273.134 402.365C273.642 403 274.023 403.635 274.277 404.397C274.658 405.032 274.912 405.794 275.293 406.429V406.556C275.42 407.064 275.674 407.699 275.928 407.953C276.055 408.08 276.309 408.08 276.69 408.207C276.944 408.334 277.325 408.334 277.579 408.334C278.087 408.334 278.341 408.08 278.468 407.572C278.595 407.064 278.595 406.429 278.595 405.794C278.468 404.524 278.214 403.254 277.96 401.984C277.706 400.714 277.325 399.444 276.944 398.174C276.563 396.904 276.182 395.634 275.674 394.491C275.42 393.856 275.166 393.221 274.912 392.84C274.531 392.332 274.023 391.951 273.515 391.443C271.483 389.919 269.451 388.141 267.292 386.744Z" fill="#A86E4F"/>
<path d="M259.293 391.57C259.293 391.57 265.77 394.999 266.659 395.634C267.548 396.269 267.802 396.65 271.485 400.714C275.168 404.778 274.787 408.461 272.501 408.588C270.215 408.715 265.135 403.508 263.865 401.857C262.595 400.206 256.372 399.444 256.372 399.444C255.102 400.714 243.164 405.921 233.893 400.079L218.78 392.205C144.231 364.773 72.8571 327.943 72.4761 314.1C72.0951 300.765 74.8891 291.748 74.8891 291.748C106.766 300.765 124.8 298.606 124.8 298.606L124.038 309.274C124.038 309.274 200.619 364.519 241.894 380.394C245.45 381.791 251.292 381.41 251.292 381.41C251.292 381.41 259.547 381.918 261.198 380.775C262.849 379.632 264.119 378.489 266.278 378.743C266.278 378.743 268.818 376.33 270.85 376.457C272.882 376.584 281.772 382.045 283.55 383.188C285.328 384.331 289.9 390.173 290.789 391.697C291.678 393.221 294.98 399.952 293.71 401.349C292.44 402.746 289.519 401.603 288.757 400.46C287.995 399.317 283.169 391.316 282.28 390.3C281.264 389.284 278.851 387.76 278.851 387.76" fill="#FFDECC"/>
<path d="M259.292 391.57L264.118 394.11C264.88 394.491 265.769 394.999 266.531 395.507C267.293 396.015 267.928 396.65 268.563 397.285C269.833 398.682 271.103 399.952 272.246 401.349C273.389 402.746 274.405 404.524 274.278 406.429C274.278 406.937 274.151 407.318 273.897 407.826C273.643 408.207 273.135 408.461 272.754 408.588C271.738 408.715 270.849 408.08 270.087 407.699C268.563 406.683 267.166 405.413 265.896 404.143C265.261 403.508 264.626 402.873 263.991 402.111C263.483 401.349 262.594 400.968 261.832 400.714C260.054 400.079 258.276 399.825 256.498 399.571H256.625C255.863 400.206 254.847 400.587 253.958 400.968C253.069 401.349 252.053 401.603 251.164 401.984C249.259 402.492 247.354 402.873 245.322 403C243.29 403.127 241.385 403 239.353 402.492C237.448 402.111 235.543 401.349 233.892 400.206L218.779 392.332C203.793 386.871 189.061 381.029 174.456 374.933C159.851 368.71 145.246 362.233 131.022 355.248C116.798 348.136 102.701 340.77 89.3663 332.007C86.0643 329.721 82.7623 327.435 79.7143 324.895C78.1903 323.625 76.6663 322.228 75.3963 320.704C74.1263 319.18 72.7293 317.529 72.0943 315.497C71.9673 314.989 71.8403 314.354 71.8403 313.846V312.322C71.8403 311.306 71.8403 310.29 71.8403 309.274C71.9673 307.242 71.9673 305.337 72.2213 303.305C72.6023 299.368 73.2373 295.431 74.2533 291.494C74.3803 291.113 74.6343 290.986 75.0153 291.113L81.1113 292.764C83.1433 293.272 85.1753 293.78 87.2073 294.288C91.2713 295.177 95.4623 296.066 99.6533 296.701C103.844 297.336 108.035 297.844 112.226 298.098C116.417 298.352 120.608 298.479 124.799 298.098C125.053 298.098 125.434 298.352 125.434 298.606V298.733L124.672 309.401L124.418 308.893C134.324 316.005 144.484 322.99 154.644 329.848C164.804 336.706 175.091 343.437 185.505 349.914C195.919 356.391 206.46 362.614 217.255 368.456C222.716 371.377 228.177 374.171 233.765 376.711L237.956 378.616C239.353 379.124 240.75 379.759 242.274 380.267C245.068 381.156 248.243 381.283 251.291 381.156C253.831 381.283 256.498 381.283 259.038 381.029C259.673 380.902 260.308 380.902 260.816 380.648C261.324 380.394 261.832 379.886 262.34 379.632C263.356 378.87 264.88 378.362 266.15 378.616L265.896 378.743C266.912 377.854 268.055 377.092 269.325 376.584C269.96 376.33 270.722 376.203 271.357 376.457C271.992 376.711 272.627 376.965 273.262 377.219C275.675 378.362 277.961 379.759 280.12 381.029C281.263 381.664 282.406 382.426 283.422 383.061C284.565 383.823 285.327 384.839 286.216 385.855C287.105 386.871 287.867 387.887 288.756 388.903C289.518 389.919 290.407 391.062 290.915 392.205C292.058 394.618 293.201 397.031 293.709 399.571C293.709 399.952 293.836 400.206 293.709 400.587C293.709 400.968 293.582 401.349 293.201 401.476C292.693 401.984 291.931 402.111 291.296 401.984C290.026 401.857 288.629 401.222 287.994 399.952L283.803 393.221C283.041 392.078 282.406 390.935 281.517 390.046C280.501 389.157 279.485 388.395 278.342 387.76C279.485 388.395 280.628 389.157 281.517 390.046C282.406 390.935 283.041 392.205 283.803 393.221L287.994 399.952C288.629 401.095 289.899 401.73 291.169 401.857C291.804 401.857 292.439 401.857 292.947 401.349C293.455 400.968 293.328 400.206 293.328 399.571C292.82 397.031 291.677 394.618 290.534 392.332C290.026 391.189 289.137 390.173 288.375 389.03C287.613 388.014 286.724 386.998 285.835 385.982C284.946 384.966 284.057 383.95 283.041 383.315C281.898 382.553 280.755 381.918 279.739 381.283C277.453 380.013 275.167 378.616 272.881 377.473C272.246 377.219 271.738 376.965 271.103 376.711C270.468 376.457 269.96 376.584 269.325 376.838C268.182 377.219 267.039 377.981 266.15 378.87C266.15 378.87 266.023 378.997 265.896 378.997C264.626 378.87 263.483 379.251 262.467 380.013C261.959 380.394 261.451 380.775 260.816 381.156C260.181 381.41 259.546 381.537 258.784 381.664C257.514 381.791 256.117 381.918 254.847 381.918C253.577 381.918 252.18 381.918 250.91 381.791C247.862 381.918 244.687 381.918 241.639 380.902C240.242 380.394 238.718 379.759 237.321 379.251L233.13 377.473C227.542 374.933 222.081 372.139 216.62 369.345C205.825 363.503 195.157 357.28 184.743 350.93C174.329 344.453 163.915 337.849 153.755 330.991C143.595 324.133 133.435 317.275 123.402 310.036C123.275 309.909 123.148 309.782 123.148 309.528L123.91 298.86L124.545 299.495C120.227 299.876 116.036 299.749 111.845 299.495C107.654 299.241 103.463 298.733 99.2723 298.098C95.0813 297.463 90.8903 296.701 86.8263 295.812C84.7943 295.431 82.7623 294.796 80.6033 294.288L74.5073 292.637L75.2693 292.256C74.2533 295.939 73.6183 300.003 73.2373 303.813C72.9833 305.718 72.9833 307.75 72.8563 309.782C72.8563 310.798 72.8563 311.814 72.8563 312.703V314.227C72.8563 314.735 72.9833 315.116 73.1103 315.497C73.6183 317.275 74.8883 318.799 76.1583 320.323C77.4283 321.72 78.9523 323.117 80.3493 324.387C83.3973 326.927 86.5723 329.213 89.8743 331.499C103.082 340.262 117.179 347.755 131.276 354.867C145.5 361.852 159.978 368.456 174.583 374.679C189.188 380.902 203.92 386.744 218.906 392.205L234.019 400.079C235.67 401.095 237.448 401.857 239.353 402.238C241.258 402.619 243.163 402.873 245.068 402.746C246.973 402.619 248.878 402.365 250.783 401.857C251.672 401.603 252.688 401.349 253.577 400.968C254.466 400.587 255.355 400.206 256.117 399.571H256.244C258.022 399.825 259.927 400.079 261.705 400.714C262.594 401.095 263.483 401.349 263.991 402.238C264.499 403 265.134 403.635 265.769 404.27C267.039 405.54 268.436 406.81 269.96 407.826C270.722 408.334 271.611 408.842 272.373 408.715C273.262 408.588 273.77 407.699 273.77 406.81C273.77 405.032 272.881 403.254 271.738 401.857C270.595 400.46 269.325 399.063 268.055 397.793C267.42 397.158 266.785 396.396 266.023 395.888C265.261 395.38 264.372 394.999 263.61 394.491L259.292 391.57Z" fill="#A86E4F"/>
<path d="M81.8731 293.653C81.8731 293.653 78.5711 308.258 79.5871 314.735C80.3491 319.688 172.297 375.314 218.906 392.205C218.906 392.205 145.246 361.979 134.07 356.391C122.894 350.803 79.5871 330.356 72.4751 314.1L74.8881 291.748L81.8731 293.653Z" fill="#F8CAB1"/>
<path d="M259.292 391.57L264.118 394.11C264.88 394.491 265.769 394.999 266.531 395.507C267.293 396.015 267.928 396.65 268.563 397.285C269.833 398.682 271.103 399.952 272.246 401.349C273.389 402.746 274.405 404.524 274.278 406.429C274.278 406.937 274.151 407.318 273.897 407.826C273.643 408.207 273.135 408.461 272.754 408.588C271.738 408.715 270.849 408.08 270.087 407.699C268.563 406.683 267.166 405.413 265.896 404.143C265.261 403.508 264.626 402.873 263.991 402.111C263.483 401.349 262.594 400.968 261.832 400.714C260.054 400.079 258.276 399.825 256.498 399.571H256.625C255.863 400.206 254.847 400.587 253.958 400.968C253.069 401.349 252.053 401.603 251.164 401.984C249.259 402.492 247.354 402.873 245.322 403C243.29 403.127 241.385 403 239.353 402.492C237.448 402.111 235.543 401.349 233.892 400.206L218.779 392.332C203.793 386.871 189.061 381.029 174.456 374.933C159.851 368.71 145.246 362.233 131.022 355.248C116.798 348.136 102.701 340.77 89.3663 332.007C86.0643 329.721 82.7623 327.435 79.7143 324.895C78.1903 323.625 76.6663 322.228 75.3963 320.704C74.1263 319.18 72.7293 317.529 72.0943 315.497C71.9673 314.989 71.8403 314.354 71.8403 313.846V312.322C71.8403 311.306 71.8403 310.29 71.8403 309.274C71.9673 307.242 71.9673 305.337 72.2213 303.305C72.6023 299.368 73.2373 295.431 74.2533 291.494C74.3803 291.113 74.6343 290.986 75.0153 291.113L81.1113 292.764C83.1433 293.272 85.1753 293.78 87.2073 294.288C91.2713 295.177 95.4623 296.066 99.6533 296.701C103.844 297.336 108.035 297.844 112.226 298.098C116.417 298.352 120.608 298.479 124.799 298.098C125.053 298.098 125.434 298.352 125.434 298.606V298.733L124.672 309.401L124.418 308.893C134.324 316.005 144.484 322.99 154.644 329.848C164.804 336.706 175.091 343.437 185.505 349.914C195.919 356.391 206.46 362.614 217.255 368.456C222.716 371.377 228.177 374.171 233.765 376.711L237.956 378.616C239.353 379.124 240.75 379.759 242.274 380.267C245.068 381.156 248.243 381.283 251.291 381.156C253.831 381.283 256.498 381.283 259.038 381.029C259.673 380.902 260.308 380.902 260.816 380.648C261.324 380.394 261.832 379.886 262.34 379.632C263.356 378.87 264.88 378.362 266.15 378.616L265.896 378.743C266.912 377.854 268.055 377.092 269.325 376.584C269.96 376.33 270.722 376.203 271.357 376.457C271.992 376.711 272.627 376.965 273.262 377.219C275.675 378.362 277.961 379.759 280.12 381.029C281.263 381.664 282.406 382.426 283.422 383.061C284.565 383.823 285.327 384.839 286.216 385.855C287.105 386.871 287.867 387.887 288.756 388.903C289.518 389.919 290.407 391.062 290.915 392.205C292.058 394.618 293.201 397.031 293.709 399.571C293.709 399.952 293.836 400.206 293.709 400.587C293.709 400.968 293.582 401.349 293.201 401.476C292.693 401.984 291.931 402.111 291.296 401.984C290.026 401.857 288.629 401.222 287.994 399.952L283.803 393.221C283.041 392.078 282.406 390.935 281.517 390.046C280.501 389.157 279.485 388.395 278.342 387.76C279.485 388.395 280.628 389.157 281.517 390.046C282.406 390.935 283.041 392.205 283.803 393.221L287.994 399.952C288.629 401.095 289.899 401.73 291.169 401.857C291.804 401.857 292.439 401.857 292.947 401.349C293.455 400.968 293.328 400.206 293.328 399.571C292.82 397.031 291.677 394.618 290.534 392.332C290.026 391.189 289.137 390.173 288.375 389.03C287.613 388.014 286.724 386.998 285.835 385.982C284.946 384.966 284.057 383.95 283.041 383.315C281.898 382.553 280.755 381.918 279.739 381.283C277.453 380.013 275.167 378.616 272.881 377.473C272.246 377.219 271.738 376.965 271.103 376.711C270.468 376.457 269.96 376.584 269.325 376.838C268.182 377.219 267.039 377.981 266.15 378.87C266.15 378.87 266.023 378.997 265.896 378.997C264.626 378.87 263.483 379.251 262.467 380.013C261.959 380.394 261.451 380.775 260.816 381.156C260.181 381.41 259.546 381.537 258.784 381.664C257.514 381.791 256.117 381.918 254.847 381.918C253.577 381.918 252.18 381.918 250.91 381.791C247.862 381.918 244.687 381.918 241.639 380.902C240.242 380.394 238.718 379.759 237.321 379.251L233.13 377.473C227.542 374.933 222.081 372.139 216.62 369.345C205.825 363.503 195.157 357.28 184.743 350.93C174.329 344.453 163.915 337.849 153.755 330.991C143.595 324.133 133.435 317.275 123.402 310.036C123.275 309.909 123.148 309.782 123.148 309.528L123.91 298.86L124.545 299.495C120.227 299.876 116.036 299.749 111.845 299.495C107.654 299.241 103.463 298.733 99.2723 298.098C95.0813 297.463 90.8903 296.701 86.8263 295.812C84.7943 295.431 82.7623 294.796 80.6033 294.288L74.5073 292.637L75.2693 292.256C74.2533 295.939 73.6183 300.003 73.2373 303.813C72.9833 305.718 72.9833 307.75 72.8563 309.782C72.8563 310.798 72.8563 311.814 72.8563 312.703V314.227C72.8563 314.735 72.9833 315.116 73.1103 315.497C73.6183 317.275 74.8883 318.799 76.1583 320.323C77.4283 321.72 78.9523 323.117 80.3493 324.387C83.3973 326.927 86.5723 329.213 89.8743 331.499C103.082 340.262 117.179 347.755 131.276 354.867C145.5 361.852 159.978 368.456 174.583 374.679C189.188 380.902 203.92 386.744 218.906 392.205L234.019 400.079C235.67 401.095 237.448 401.857 239.353 402.238C241.258 402.619 243.163 402.873 245.068 402.746C246.973 402.619 248.878 402.365 250.783 401.857C251.672 401.603 252.688 401.349 253.577 400.968C254.466 400.587 255.355 400.206 256.117 399.571H256.244C258.022 399.825 259.927 400.079 261.705 400.714C262.594 401.095 263.483 401.349 263.991 402.238C264.499 403 265.134 403.635 265.769 404.27C267.039 405.54 268.436 406.81 269.96 407.826C270.722 408.334 271.611 408.842 272.373 408.715C273.262 408.588 273.77 407.699 273.77 406.81C273.77 405.032 272.881 403.254 271.738 401.857C270.595 400.46 269.325 399.063 268.055 397.793C267.42 397.158 266.785 396.396 266.023 395.888C265.261 395.38 264.372 394.999 263.61 394.491L259.292 391.57Z" fill="#A86E4F"/>
<path d="M168.995 138.713C171.535 139.856 174.075 140.999 176.615 142.015C179.155 143.031 181.822 143.92 184.489 144.555C189.823 146.079 195.157 147.222 200.618 147.603C206.079 148.111 211.54 147.857 217.001 146.714C222.335 145.698 227.542 143.666 232.368 140.872C230.082 142.396 227.669 143.92 225.129 144.936C222.589 146.079 219.922 146.968 217.255 147.603C211.794 148.873 206.206 149.127 200.618 148.746C195.03 148.238 189.569 147.095 184.235 145.444C178.774 143.666 173.694 141.507 168.995 138.713Z" fill="#2F353B"/>
<path d="M364.194 147.349C357.59 134.522 353.78 120.171 353.78 104.804C353.78 53.242 396.325 11.332 448.903 11.332C501.481 11.332 544.026 53.115 544.026 104.804C544.026 156.366 501.481 198.276 448.903 198.276C431.885 198.276 415.756 193.831 401.913 186.084C395.055 184.941 376.767 185.83 368.512 192.18C367.623 192.815 366.48 191.926 366.607 190.529C366.988 183.29 373.084 170.082 364.194 147.349Z" fill="#ADB4BD"/>
<path d="M448.776 198.784C432.266 198.784 416.01 194.593 401.659 186.592C394.674 185.449 376.767 186.465 368.766 192.561C368.258 192.942 367.496 193.069 366.988 192.688C366.226 192.307 365.845 191.418 365.845 190.402C365.972 188.878 366.353 187.1 366.734 185.068C368.258 177.194 370.671 165.51 363.686 147.603V147.476C356.701 134.141 353.145 119.663 353.145 104.677C353.145 52.8613 396.071 10.5703 448.903 10.5703C501.735 10.5703 544.661 52.7343 544.661 104.677C544.534 156.62 501.608 198.784 448.776 198.784ZM401.786 185.322L402.167 185.449C416.391 193.323 432.52 197.514 448.776 197.514C500.846 197.514 543.264 155.858 543.264 104.677C543.264 53.4963 500.846 11.9673 448.776 11.9673C396.706 11.9673 354.288 53.6233 354.288 104.804C354.288 119.663 357.844 133.887 364.702 147.095L364.829 147.349C371.941 165.383 369.528 177.448 367.877 185.449C367.496 187.481 367.115 189.132 366.988 190.656C366.988 191.291 367.242 191.672 367.496 191.799C367.623 191.926 367.75 191.926 367.877 191.799C376.259 185.322 394.674 184.179 401.786 185.322Z" fill="#2F353B"/>
<path d="M392.515 66.5773C392.896 65.5613 393.15 64.5453 393.531 63.5293C405.723 75.5943 417.915 87.6593 430.107 99.7243C417.915 111.789 405.723 123.854 393.531 135.919C393.277 135.157 392.896 134.141 392.642 133.125C392.515 111.027 392.515 88.8023 392.515 66.5773Z" fill="white"/>
<path d="M507.323 58.5764C505.545 60.2274 503.767 62.0054 502.116 63.6564C486.876 78.8964 471.636 94.1364 456.523 109.376C454.237 111.662 451.951 111.662 449.792 109.376C433.155 92.6124 416.518 75.9754 399.881 59.2114C399.627 58.9574 399.373 58.7034 398.865 58.0684C400.262 57.8144 401.532 57.4334 402.675 57.3064C403.183 57.1794 403.691 57.3064 404.199 57.3064C436.838 57.3064 469.604 57.3064 502.243 57.3064C503.894 57.3064 505.672 57.6874 507.323 57.9414C507.196 58.1954 507.196 58.4494 507.323 58.5764Z" fill="white"/>
<path d="M398.865 141.508C411.057 129.443 423.249 117.378 435.441 105.312C435.568 105.44 435.822 105.694 436.203 105.948C439.124 108.869 441.918 111.79 444.839 114.711C449.792 119.664 456.523 119.664 461.476 114.711C464.651 111.536 467.826 108.361 470.874 105.312C483.066 117.378 495.131 129.316 507.577 141.635C506.18 142.016 504.91 142.27 503.767 142.524C503.386 142.651 502.878 142.524 502.497 142.524C469.604 142.524 436.838 142.524 403.945 142.524C402.167 142.524 400.516 142.27 398.865 141.508Z" fill="white"/>
<path d="M512.656 136.427C500.337 124.235 488.145 112.17 475.953 100.105C488.145 88.0402 500.337 75.9752 512.656 63.7832C512.91 65.0532 513.418 66.4502 513.418 67.8472C513.418 89.3102 513.418 110.646 513.418 132.109C513.545 133.506 513.037 134.903 512.656 136.427Z" fill="white"/>
</svg>
